<?xml version="1.0" encoding="utf-8"?>
<svg xmlns="http://www.w3.org/2000/svg" xmlns:xlink="http://www.w3.org/1999/xlink" width="600" height="600" viewBox="0 0 2400 2400">
<defs>
  <clipPath id="clip700">
    <rect x="0" y="0" width="2400" height="2400"/>
  </clipPath>
</defs>
<path clip-path="url(#clip700)" d="
M0 2400 L2400 2400 L2400 0 L0 0  Z
  " fill="#ffffff" fill-rule="evenodd" fill-opacity="1"/>
<defs>
  <clipPath id="clip701">
    <rect x="480" y="240" width="1681" height="1681"/>
  </clipPath>
</defs>
<path clip-path="url(#clip700)" d="
M160.001 2352.76 L2352.76 2352.76 L2352.76 138.832 L160.001 138.832  Z
  " fill="#ffffff" fill-rule="evenodd" fill-opacity="1"/>
<defs>
  <clipPath id="clip702">
    <rect x="160" y="138" width="2194" height="2215"/>
  </clipPath>
</defs>
<polyline clip-path="url(#clip702)" style="stroke:#000000; stroke-width:2; stroke-opacity:0.1; fill:none" points="
  222.06,138.832 222.06,2352.76 
  "/>
<polyline clip-path="url(#clip702)" style="stroke:#000000; stroke-width:2; stroke-opacity:0.1; fill:none" points="
  365.431,138.832 365.431,2352.76 
  "/>
<polyline clip-path="url(#clip702)" style="stroke:#000000; stroke-width:2; stroke-opacity:0.1; fill:none" points="
  488.32,138.832 488.32,2352.76 
  "/>
<polyline clip-path="url(#clip702)" style="stroke:#000000; stroke-width:2; stroke-opacity:0.1; fill:none" points="
  631.691,138.832 631.691,2352.76 
  "/>
<polyline clip-path="url(#clip702)" style="stroke:#000000; stroke-width:2; stroke-opacity:0.1; fill:none" points="
  754.58,138.832 754.58,2352.76 
  "/>
<polyline clip-path="url(#clip702)" style="stroke:#000000; stroke-width:2; stroke-opacity:0.1; fill:none" points="
  897.951,138.832 897.951,2352.76 
  "/>
<polyline clip-path="url(#clip702)" style="stroke:#000000; stroke-width:2; stroke-opacity:0.1; fill:none" points="
  1020.84,138.832 1020.84,2352.76 
  "/>
<polyline clip-path="url(#clip702)" style="stroke:#000000; stroke-width:2; stroke-opacity:0.1; fill:none" points="
  1143.73,138.832 1143.73,2352.76 
  "/>
<polyline clip-path="url(#clip702)" style="stroke:#000000; stroke-width:2; stroke-opacity:0.1; fill:none" points="
  1266.62,138.832 1266.62,2352.76 
  "/>
<polyline clip-path="url(#clip702)" style="stroke:#000000; stroke-width:2; stroke-opacity:0.1; fill:none" points="
  1409.99,138.832 1409.99,2352.76 
  "/>
<polyline clip-path="url(#clip702)" style="stroke:#000000; stroke-width:2; stroke-opacity:0.1; fill:none" points="
  1532.88,138.832 1532.88,2352.76 
  "/>
<polyline clip-path="url(#clip702)" style="stroke:#000000; stroke-width:2; stroke-opacity:0.1; fill:none" points="
  1655.77,138.832 1655.77,2352.76 
  "/>
<polyline clip-path="url(#clip702)" style="stroke:#000000; stroke-width:2; stroke-opacity:0.1; fill:none" points="
  1778.66,138.832 1778.66,2352.76 
  "/>
<polyline clip-path="url(#clip702)" style="stroke:#000000; stroke-width:2; stroke-opacity:0.1; fill:none" points="
  1922.03,138.832 1922.03,2352.76 
  "/>
<polyline clip-path="url(#clip702)" style="stroke:#000000; stroke-width:2; stroke-opacity:0.1; fill:none" points="
  2044.92,138.832 2044.92,2352.76 
  "/>
<polyline clip-path="url(#clip702)" style="stroke:#000000; stroke-width:2; stroke-opacity:0.1; fill:none" points="
  2167.81,138.832 2167.81,2352.76 
  "/>
<polyline clip-path="url(#clip702)" style="stroke:#000000; stroke-width:2; stroke-opacity:0.1; fill:none" points="
  2290.7,138.832 2290.7,2352.76 
  "/>
<path clip-path="url(#clip700)" d="M 0 0 M212.442 105.329 L220.081 105.329 L220.081 78.9634 L211.771 80.63 L211.771 76.3708 L220.035 74.7041 L224.711 74.7041 L224.711 105.329 L232.349 105.329 L232.349 109.264 L212.442 109.264 L212.442 105.329 Z" fill="#000000" fill-rule="evenodd" fill-opacity="1" /><path clip-path="url(#clip700)" d="M 0 0 M365.431 92.8522 Q362.098 92.8522 360.176 94.6346 Q358.278 96.417 358.278 99.542 Q358.278 102.667 360.176 104.449 Q362.098 106.232 365.431 106.232 Q368.764 106.232 370.686 104.449 Q372.607 102.644 372.607 99.542 Q372.607 96.417 370.686 94.6346 Q368.787 92.8522 365.431 92.8522 M360.755 90.8614 Q357.746 90.1207 356.056 88.0605 Q354.389 86.0004 354.389 83.0374 Q354.389 78.8939 357.329 76.4865 Q360.292 74.0791 365.431 74.0791 Q370.593 74.0791 373.533 76.4865 Q376.473 78.8939 376.473 83.0374 Q376.473 86.0004 374.783 88.0605 Q373.116 90.1207 370.13 90.8614 Q373.51 91.6485 375.385 93.9401 Q377.283 96.2318 377.283 99.542 Q377.283 104.565 374.204 107.25 Q371.149 109.935 365.431 109.935 Q359.713 109.935 356.635 107.25 Q353.579 104.565 353.579 99.542 Q353.579 96.2318 355.477 93.9401 Q357.375 91.6485 360.755 90.8614 M359.042 83.4772 Q359.042 86.1624 360.709 87.667 Q362.399 89.1716 365.431 89.1716 Q368.44 89.1716 370.13 87.667 Q371.843 86.1624 371.843 83.4772 Q371.843 80.7921 370.13 79.2874 Q368.44 77.7828 365.431 77.7828 Q362.399 77.7828 360.709 79.2874 Q359.042 80.7921 359.042 83.4772 Z" fill="#000000" fill-rule="evenodd" fill-opacity="1" /><path clip-path="url(#clip700)" d="M 0 0 M464.952 105.329 L472.591 105.329 L472.591 78.9634 L464.281 80.63 L464.281 76.3708 L472.545 74.7041 L477.221 74.7041 L477.221 105.329 L484.86 105.329 L484.86 109.264 L464.952 109.264 L464.952 105.329 Z" fill="#000000" fill-rule="evenodd" fill-opacity="1" /><path clip-path="url(#clip700)" d="M 0 0 M502.776 78.7782 L490.971 97.2272 L502.776 97.2272 L502.776 78.7782 M501.549 74.7041 L507.429 74.7041 L507.429 97.2272 L512.359 97.2272 L512.359 101.116 L507.429 101.116 L507.429 109.264 L502.776 109.264 L502.776 101.116 L487.174 101.116 L487.174 96.6022 L501.549 74.7041 Z" fill="#000000" fill-rule="evenodd" fill-opacity="1" /><path clip-path="url(#clip700)" d="M 0 0 M613.45 105.329 L629.77 105.329 L629.77 109.264 L607.826 109.264 L607.826 105.329 Q610.488 102.574 615.071 97.9447 Q619.677 93.292 620.858 91.9494 Q623.103 89.4263 623.983 87.6902 Q624.886 85.9309 624.886 84.2411 Q624.886 81.4865 622.941 79.7504 Q621.02 78.0143 617.918 78.0143 Q615.719 78.0143 613.265 78.7782 Q610.835 79.5421 608.057 81.093 L608.057 76.3708 Q610.881 75.2365 613.335 74.6578 Q615.788 74.0791 617.825 74.0791 Q623.196 74.0791 626.39 76.7643 Q629.585 79.4495 629.585 83.9402 Q629.585 86.0698 628.774 87.9911 Q627.987 89.8892 625.881 92.4818 Q625.302 93.1531 622.2 96.3707 Q619.099 99.5651 613.45 105.329 Z" fill="#000000" fill-rule="evenodd" fill-opacity="1" /><path clip-path="url(#clip700)" d="M 0 0 M635.649 105.329 L643.288 105.329 L643.288 78.9634 L634.978 80.63 L634.978 76.3708 L643.242 74.7041 L647.918 74.7041 L647.918 105.329 L655.557 105.329 L655.557 109.264 L635.649 109.264 L635.649 105.329 Z" fill="#000000" fill-rule="evenodd" fill-opacity="1" /><path clip-path="url(#clip700)" d="M 0 0 M736.178 105.329 L752.497 105.329 L752.497 109.264 L730.553 109.264 L730.553 105.329 Q733.215 102.574 737.798 97.9447 Q742.405 93.292 743.585 91.9494 Q745.83 89.4263 746.71 87.6902 Q747.613 85.9309 747.613 84.2411 Q747.613 81.4865 745.668 79.7504 Q743.747 78.0143 740.645 78.0143 Q738.446 78.0143 735.993 78.7782 Q733.562 79.5421 730.784 81.093 L730.784 76.3708 Q733.608 75.2365 736.062 74.6578 Q738.516 74.0791 740.553 74.0791 Q745.923 74.0791 749.118 76.7643 Q752.312 79.4495 752.312 83.9402 Q752.312 86.0698 751.502 87.9911 Q750.715 89.8892 748.608 92.4818 Q748.03 93.1531 744.928 96.3707 Q741.826 99.5651 736.178 105.329 Z" fill="#000000" fill-rule="evenodd" fill-opacity="1" /><path clip-path="url(#clip700)" d="M 0 0 M756.386 74.7041 L778.608 74.7041 L778.608 76.6949 L766.062 109.264 L761.178 109.264 L772.983 78.6393 L756.386 78.6393 L756.386 74.7041 Z" fill="#000000" fill-rule="evenodd" fill-opacity="1" /><path clip-path="url(#clip700)" d="M 0 0 M888.449 90.63 Q891.805 91.3476 893.68 93.6161 Q895.579 95.8846 895.579 99.2179 Q895.579 104.334 892.06 107.135 Q888.542 109.935 882.06 109.935 Q879.884 109.935 877.569 109.496 Q875.278 109.079 872.824 108.222 L872.824 103.709 Q874.769 104.843 877.083 105.422 Q879.398 106 881.921 106 Q886.319 106 888.611 104.264 Q890.926 102.528 890.926 99.2179 Q890.926 96.1623 888.773 94.4494 Q886.643 92.7133 882.824 92.7133 L878.796 92.7133 L878.796 88.8707 L883.009 88.8707 Q886.458 88.8707 888.287 87.505 Q890.116 86.1161 890.116 83.5235 Q890.116 80.8615 888.218 79.4495 Q886.343 78.0143 882.824 78.0143 Q880.903 78.0143 878.704 78.431 Q876.505 78.8476 873.866 79.7272 L873.866 75.5606 Q876.528 74.8199 878.843 74.4495 Q881.181 74.0791 883.241 74.0791 Q888.565 74.0791 891.667 76.5097 Q894.768 78.9171 894.768 83.0374 Q894.768 85.9078 893.125 87.8985 Q891.481 89.8661 888.449 90.63 Z" fill="#000000" fill-rule="evenodd" fill-opacity="1" /><path clip-path="url(#clip700)" d="M 0 0 M913.495 78.7782 L901.69 97.2272 L913.495 97.2272 L913.495 78.7782 M912.268 74.7041 L918.148 74.7041 L918.148 97.2272 L923.078 97.2272 L923.078 101.116 L918.148 101.116 L918.148 109.264 L913.495 109.264 L913.495 101.116 L897.893 101.116 L897.893 96.6022 L912.268 74.7041 Z" fill="#000000" fill-rule="evenodd" fill-opacity="1" /><path clip-path="url(#clip700)" d="M 0 0 M1010.34 78.7782 L998.537 97.2272 L1010.34 97.2272 L1010.34 78.7782 M1009.12 74.7041 L1015 74.7041 L1015 97.2272 L1019.93 97.2272 L1019.93 101.116 L1015 101.116 L1015 109.264 L1010.34 109.264 L1010.34 101.116 L994.741 101.116 L994.741 96.6022 L1009.12 74.7041 Z" fill="#000000" fill-rule="evenodd" fill-opacity="1" /><path clip-path="url(#clip700)" d="M 0 0 M1035 77.7828 Q1031.38 77.7828 1029.56 81.3476 Q1027.75 84.8893 1027.75 92.0188 Q1027.75 99.1253 1029.56 102.69 Q1031.38 106.232 1035 106.232 Q1038.63 106.232 1040.44 102.69 Q1042.26 99.1253 1042.26 92.0188 Q1042.26 84.8893 1040.44 81.3476 Q1038.63 77.7828 1035 77.7828 M1035 74.0791 Q1040.81 74.0791 1043.86 78.6856 Q1046.94 83.2689 1046.94 92.0188 Q1046.94 100.746 1043.86 105.352 Q1040.81 109.935 1035 109.935 Q1029.19 109.935 1026.11 105.352 Q1023.05 100.746 1023.05 92.0188 Q1023.05 83.2689 1026.11 78.6856 Q1029.19 74.0791 1035 74.0791 Z" fill="#000000" fill-rule="evenodd" fill-opacity="1" /><path clip-path="url(#clip700)" d="M 0 0 M1133.15 78.7782 L1121.35 97.2272 L1133.15 97.2272 L1133.15 78.7782 M1131.92 74.7041 L1137.8 74.7041 L1137.8 97.2272 L1142.73 97.2272 L1142.73 101.116 L1137.8 101.116 L1137.8 109.264 L1133.15 109.264 L1133.15 101.116 L1117.55 101.116 L1117.55 96.6022 L1131.92 74.7041 Z" fill="#000000" fill-rule="evenodd" fill-opacity="1" /><path clip-path="url(#clip700)" d="M 0 0 M1158.38 90.1207 Q1155.23 90.1207 1153.38 92.2735 Q1151.55 94.4262 1151.55 98.1762 Q1151.55 101.903 1153.38 104.079 Q1155.23 106.232 1158.38 106.232 Q1161.53 106.232 1163.36 104.079 Q1165.21 101.903 1165.21 98.1762 Q1165.21 94.4262 1163.36 92.2735 Q1161.53 90.1207 1158.38 90.1207 M1167.66 75.468 L1167.66 79.7272 Q1165.91 78.8939 1164.1 78.4541 Q1162.32 78.0143 1160.56 78.0143 Q1155.93 78.0143 1153.48 81.1393 Q1151.04 84.2643 1150.7 90.5837 Q1152.06 88.5698 1154.12 87.505 Q1156.18 86.417 1158.66 86.417 Q1163.87 86.417 1166.88 89.5883 Q1169.91 92.7364 1169.91 98.1762 Q1169.91 103.5 1166.76 106.718 Q1163.61 109.935 1158.38 109.935 Q1152.39 109.935 1149.22 105.352 Q1146.04 100.746 1146.04 92.0188 Q1146.04 83.8244 1149.93 78.9634 Q1153.82 74.0791 1160.37 74.0791 Q1162.13 74.0791 1163.91 74.4263 Q1165.72 74.7736 1167.66 75.468 Z" fill="#000000" fill-rule="evenodd" fill-opacity="1" /><path clip-path="url(#clip700)" d="M 0 0 M1244.19 74.7041 L1262.55 74.7041 L1262.55 78.6393 L1248.47 78.6393 L1248.47 87.1115 Q1249.49 86.7642 1250.51 86.6022 Q1251.53 86.417 1252.55 86.417 Q1258.33 86.417 1261.71 89.5883 Q1265.09 92.7596 1265.09 98.1762 Q1265.09 103.755 1261.62 106.857 Q1258.15 109.935 1251.83 109.935 Q1249.65 109.935 1247.38 109.565 Q1245.14 109.195 1242.73 108.454 L1242.73 103.755 Q1244.81 104.889 1247.04 105.445 Q1249.26 106 1251.74 106 Q1255.74 106 1258.08 103.894 Q1260.42 101.787 1260.42 98.1762 Q1260.42 94.5651 1258.08 92.4587 Q1255.74 90.3522 1251.74 90.3522 Q1249.86 90.3522 1247.99 90.7689 Q1246.13 91.1855 1244.19 92.0651 L1244.19 74.7041 Z" fill="#000000" fill-rule="evenodd" fill-opacity="1" /><path clip-path="url(#clip700)" d="M 0 0 M1274.19 105.329 L1290.51 105.329 L1290.51 109.264 L1268.56 109.264 L1268.56 105.329 Q1271.23 102.574 1275.81 97.9447 Q1280.42 93.292 1281.6 91.9494 Q1283.84 89.4263 1284.72 87.6902 Q1285.62 85.9309 1285.62 84.2411 Q1285.62 81.4865 1283.68 79.7504 Q1281.76 78.0143 1278.66 78.0143 Q1276.46 78.0143 1274 78.7782 Q1271.57 79.5421 1268.8 81.093 L1268.8 76.3708 Q1271.62 75.2365 1274.07 74.6578 Q1276.53 74.0791 1278.56 74.0791 Q1283.93 74.0791 1287.13 76.7643 Q1290.32 79.4495 1290.32 83.9402 Q1290.32 86.0698 1289.51 87.9911 Q1288.73 89.8892 1286.62 92.4818 Q1286.04 93.1531 1282.94 96.3707 Q1279.84 99.5651 1274.19 105.329 Z" fill="#000000" fill-rule="evenodd" fill-opacity="1" /><path clip-path="url(#clip700)" d="M 0 0 M1386.85 74.7041 L1405.21 74.7041 L1405.21 78.6393 L1391.14 78.6393 L1391.14 87.1115 Q1392.15 86.7642 1393.17 86.6022 Q1394.19 86.417 1395.21 86.417 Q1401 86.417 1404.38 89.5883 Q1407.76 92.7596 1407.76 98.1762 Q1407.76 103.755 1404.28 106.857 Q1400.81 109.935 1394.49 109.935 Q1392.32 109.935 1390.05 109.565 Q1387.8 109.195 1385.4 108.454 L1385.4 103.755 Q1387.48 104.889 1389.7 105.445 Q1391.92 106 1394.4 106 Q1398.4 106 1400.74 103.894 Q1403.08 101.787 1403.08 98.1762 Q1403.08 94.5651 1400.74 92.4587 Q1398.4 90.3522 1394.4 90.3522 Q1392.52 90.3522 1390.65 90.7689 Q1388.8 91.1855 1386.85 92.0651 L1386.85 74.7041 Z" fill="#000000" fill-rule="evenodd" fill-opacity="1" /><path clip-path="url(#clip700)" d="M 0 0 M1412.96 108.547 L1412.96 104.287 Q1414.72 105.121 1416.53 105.56 Q1418.33 106 1420.07 106 Q1424.7 106 1427.13 102.898 Q1429.58 99.7734 1429.93 93.4309 Q1428.59 95.4216 1426.53 96.4864 Q1424.47 97.5512 1421.97 97.5512 Q1416.78 97.5512 1413.75 94.4262 Q1410.74 91.2781 1410.74 85.8383 Q1410.74 80.5143 1413.89 77.2967 Q1417.04 74.0791 1422.27 74.0791 Q1428.27 74.0791 1431.41 78.6856 Q1434.58 83.2689 1434.58 92.0188 Q1434.58 100.19 1430.7 105.074 Q1426.83 109.935 1420.28 109.935 Q1418.52 109.935 1416.71 109.588 Q1414.91 109.241 1412.96 108.547 M1422.27 93.8938 Q1425.42 93.8938 1427.25 91.7411 Q1429.1 89.5883 1429.1 85.8383 Q1429.1 82.1115 1427.25 79.9587 Q1425.42 77.7828 1422.27 77.7828 Q1419.12 77.7828 1417.27 79.9587 Q1415.44 82.1115 1415.44 85.8383 Q1415.44 89.5883 1417.27 91.7411 Q1419.12 93.8938 1422.27 93.8938 Z" fill="#000000" fill-rule="evenodd" fill-opacity="1" /><path clip-path="url(#clip700)" d="M 0 0 M1520.28 90.1207 Q1517.13 90.1207 1515.28 92.2735 Q1513.45 94.4262 1513.45 98.1762 Q1513.45 101.903 1515.28 104.079 Q1517.13 106.232 1520.28 106.232 Q1523.42 106.232 1525.25 104.079 Q1527.1 101.903 1527.1 98.1762 Q1527.1 94.4262 1525.25 92.2735 Q1523.42 90.1207 1520.28 90.1207 M1529.56 75.468 L1529.56 79.7272 Q1527.8 78.8939 1525.99 78.4541 Q1524.21 78.0143 1522.45 78.0143 Q1517.82 78.0143 1515.37 81.1393 Q1512.94 84.2643 1512.59 90.5837 Q1513.96 88.5698 1516.02 87.505 Q1518.08 86.417 1520.55 86.417 Q1525.76 86.417 1528.77 89.5883 Q1531.8 92.7364 1531.8 98.1762 Q1531.8 103.5 1528.65 106.718 Q1525.51 109.935 1520.28 109.935 Q1514.28 109.935 1511.11 105.352 Q1507.94 100.746 1507.94 92.0188 Q1507.94 83.8244 1511.83 78.9634 Q1515.72 74.0791 1522.27 74.0791 Q1524.03 74.0791 1525.81 74.4263 Q1527.61 74.7736 1529.56 75.468 Z" fill="#000000" fill-rule="evenodd" fill-opacity="1" /><path clip-path="url(#clip700)" d="M 0 0 M1536.92 74.7041 L1555.28 74.7041 L1555.28 78.6393 L1541.2 78.6393 L1541.2 87.1115 Q1542.22 86.7642 1543.24 86.6022 Q1544.26 86.417 1545.28 86.417 Q1551.06 86.417 1554.44 89.5883 Q1557.82 92.7596 1557.82 98.1762 Q1557.82 103.755 1554.35 106.857 Q1550.88 109.935 1544.56 109.935 Q1542.38 109.935 1540.11 109.565 Q1537.87 109.195 1535.46 108.454 L1535.46 103.755 Q1537.54 104.889 1539.77 105.445 Q1541.99 106 1544.46 106 Q1548.47 106 1550.81 103.894 Q1553.15 101.787 1553.15 98.1762 Q1553.15 94.5651 1550.81 92.4587 Q1548.47 90.3522 1544.46 90.3522 Q1542.59 90.3522 1540.72 90.7689 Q1538.86 91.1855 1536.92 92.0651 L1536.92 74.7041 Z" fill="#000000" fill-rule="evenodd" fill-opacity="1" /><path clip-path="url(#clip700)" d="M 0 0 M1631.76 74.7041 L1653.99 74.7041 L1653.99 76.6949 L1641.44 109.264 L1636.56 109.264 L1648.36 78.6393 L1631.76 78.6393 L1631.76 74.7041 Z" fill="#000000" fill-rule="evenodd" fill-opacity="1" /><path clip-path="url(#clip700)" d="M 0 0 M1659.87 105.329 L1667.5 105.329 L1667.5 78.9634 L1659.19 80.63 L1659.19 76.3708 L1667.46 74.7041 L1672.13 74.7041 L1672.13 105.329 L1679.77 105.329 L1679.77 109.264 L1659.87 109.264 L1659.87 105.329 Z" fill="#000000" fill-rule="evenodd" fill-opacity="1" /><path clip-path="url(#clip700)" d="M 0 0 M1754.49 74.7041 L1776.71 74.7041 L1776.71 76.6949 L1764.17 109.264 L1759.28 109.264 L1771.09 78.6393 L1754.49 78.6393 L1754.49 74.7041 Z" fill="#000000" fill-rule="evenodd" fill-opacity="1" /><path clip-path="url(#clip700)" d="M 0 0 M1780.6 74.7041 L1802.82 74.7041 L1802.82 76.6949 L1790.28 109.264 L1785.39 109.264 L1797.2 78.6393 L1780.6 78.6393 L1780.6 74.7041 Z" fill="#000000" fill-rule="evenodd" fill-opacity="1" /><path clip-path="url(#clip700)" d="M 0 0 M1908.28 92.8522 Q1904.95 92.8522 1903.02 94.6346 Q1901.13 96.417 1901.13 99.542 Q1901.13 102.667 1903.02 104.449 Q1904.95 106.232 1908.28 106.232 Q1911.61 106.232 1913.53 104.449 Q1915.45 102.644 1915.45 99.542 Q1915.45 96.417 1913.53 94.6346 Q1911.64 92.8522 1908.28 92.8522 M1903.6 90.8614 Q1900.59 90.1207 1898.9 88.0605 Q1897.24 86.0004 1897.24 83.0374 Q1897.24 78.8939 1900.18 76.4865 Q1903.14 74.0791 1908.28 74.0791 Q1913.44 74.0791 1916.38 76.4865 Q1919.32 78.8939 1919.32 83.0374 Q1919.32 86.0004 1917.63 88.0605 Q1915.96 90.1207 1912.98 90.8614 Q1916.36 91.6485 1918.23 93.9401 Q1920.13 96.2318 1920.13 99.542 Q1920.13 104.565 1917.05 107.25 Q1914 109.935 1908.28 109.935 Q1902.56 109.935 1899.48 107.25 Q1896.43 104.565 1896.43 99.542 Q1896.43 96.2318 1898.33 93.9401 Q1900.22 91.6485 1903.6 90.8614 M1901.89 83.4772 Q1901.89 86.1624 1903.56 87.667 Q1905.25 89.1716 1908.28 89.1716 Q1911.29 89.1716 1912.98 87.667 Q1914.69 86.1624 1914.69 83.4772 Q1914.69 80.7921 1912.98 79.2874 Q1911.29 77.7828 1908.28 77.7828 Q1905.25 77.7828 1903.56 79.2874 Q1901.89 80.7921 1901.89 83.4772 Z" fill="#000000" fill-rule="evenodd" fill-opacity="1" /><path clip-path="url(#clip700)" d="M 0 0 M1938.05 78.7782 L1926.24 97.2272 L1938.05 97.2272 L1938.05 78.7782 M1936.82 74.7041 L1942.7 74.7041 L1942.7 97.2272 L1947.63 97.2272 L1947.63 101.116 L1942.7 101.116 L1942.7 109.264 L1938.05 109.264 L1938.05 101.116 L1922.45 101.116 L1922.45 96.6022 L1936.82 74.7041 Z" fill="#000000" fill-rule="evenodd" fill-opacity="1" /><path clip-path="url(#clip700)" d="M 0 0 M2021.71 108.547 L2021.71 104.287 Q2023.47 105.121 2025.28 105.56 Q2027.08 106 2028.82 106 Q2033.45 106 2035.88 102.898 Q2038.33 99.7734 2038.68 93.4309 Q2037.34 95.4216 2035.28 96.4864 Q2033.22 97.5512 2030.72 97.5512 Q2025.53 97.5512 2022.5 94.4262 Q2019.49 91.2781 2019.49 85.8383 Q2019.49 80.5143 2022.64 77.2967 Q2025.79 74.0791 2031.02 74.0791 Q2037.01 74.0791 2040.16 78.6856 Q2043.33 83.2689 2043.33 92.0188 Q2043.33 100.19 2039.44 105.074 Q2035.58 109.935 2029.03 109.935 Q2027.27 109.935 2025.46 109.588 Q2023.66 109.241 2021.71 108.547 M2031.02 93.8938 Q2034.17 93.8938 2035.99 91.7411 Q2037.85 89.5883 2037.85 85.8383 Q2037.85 82.1115 2035.99 79.9587 Q2034.17 77.7828 2031.02 77.7828 Q2027.87 77.7828 2026.02 79.9587 Q2024.19 82.1115 2024.19 85.8383 Q2024.19 89.5883 2026.02 91.7411 Q2027.87 93.8938 2031.02 93.8938 Z" fill="#000000" fill-rule="evenodd" fill-opacity="1" /><path clip-path="url(#clip700)" d="M 0 0 M2058.4 77.7828 Q2054.79 77.7828 2052.96 81.3476 Q2051.16 84.8893 2051.16 92.0188 Q2051.16 99.1253 2052.96 102.69 Q2054.79 106.232 2058.4 106.232 Q2062.04 106.232 2063.84 102.69 Q2065.67 99.1253 2065.67 92.0188 Q2065.67 84.8893 2063.84 81.3476 Q2062.04 77.7828 2058.4 77.7828 M2058.4 74.0791 Q2064.21 74.0791 2067.27 78.6856 Q2070.35 83.2689 2070.35 92.0188 Q2070.35 100.746 2067.27 105.352 Q2064.21 109.935 2058.4 109.935 Q2052.59 109.935 2049.51 105.352 Q2046.46 100.746 2046.46 92.0188 Q2046.46 83.2689 2049.51 78.6856 Q2052.59 74.0791 2058.4 74.0791 Z" fill="#000000" fill-rule="evenodd" fill-opacity="1" /><path clip-path="url(#clip700)" d="M 0 0 M2144.52 108.547 L2144.52 104.287 Q2146.28 105.121 2148.09 105.56 Q2149.89 106 2151.63 106 Q2156.26 106 2158.69 102.898 Q2161.14 99.7734 2161.49 93.4309 Q2160.15 95.4216 2158.09 96.4864 Q2156.03 97.5512 2153.53 97.5512 Q2148.34 97.5512 2145.31 94.4262 Q2142.3 91.2781 2142.3 85.8383 Q2142.3 80.5143 2145.45 77.2967 Q2148.59 74.0791 2153.83 74.0791 Q2159.82 74.0791 2162.97 78.6856 Q2166.14 83.2689 2166.14 92.0188 Q2166.14 100.19 2162.25 105.074 Q2158.39 109.935 2151.84 109.935 Q2150.08 109.935 2148.27 109.588 Q2146.47 109.241 2144.52 108.547 M2153.83 93.8938 Q2156.97 93.8938 2158.8 91.7411 Q2160.65 89.5883 2160.65 85.8383 Q2160.65 82.1115 2158.8 79.9587 Q2156.97 77.7828 2153.83 77.7828 Q2150.68 77.7828 2148.83 79.9587 Q2147 82.1115 2147 85.8383 Q2147 89.5883 2148.83 91.7411 Q2150.68 93.8938 2153.83 93.8938 Z" fill="#000000" fill-rule="evenodd" fill-opacity="1" /><path clip-path="url(#clip700)" d="M 0 0 M2181.79 90.1207 Q2178.64 90.1207 2176.79 92.2735 Q2174.96 94.4262 2174.96 98.1762 Q2174.96 101.903 2176.79 104.079 Q2178.64 106.232 2181.79 106.232 Q2184.94 106.232 2186.77 104.079 Q2188.62 101.903 2188.62 98.1762 Q2188.62 94.4262 2186.77 92.2735 Q2184.94 90.1207 2181.79 90.1207 M2191.07 75.468 L2191.07 79.7272 Q2189.31 78.8939 2187.51 78.4541 Q2185.72 78.0143 2183.96 78.0143 Q2179.34 78.0143 2176.88 81.1393 Q2174.45 84.2643 2174.1 90.5837 Q2175.47 88.5698 2177.53 87.505 Q2179.59 86.417 2182.07 86.417 Q2187.27 86.417 2190.28 89.5883 Q2193.32 92.7364 2193.32 98.1762 Q2193.32 103.5 2190.17 106.718 Q2187.02 109.935 2181.79 109.935 Q2175.79 109.935 2172.62 105.352 Q2169.45 100.746 2169.45 92.0188 Q2169.45 83.8244 2173.34 78.9634 Q2177.23 74.0791 2183.78 74.0791 Q2185.54 74.0791 2187.32 74.4263 Q2189.13 74.7736 2191.07 75.468 Z" fill="#000000" fill-rule="evenodd" fill-opacity="1" /><path clip-path="url(#clip700)" d="M 0 0 M2254.86 105.329 L2262.5 105.329 L2262.5 78.9634 L2254.19 80.63 L2254.19 76.3708 L2262.46 74.7041 L2267.13 74.7041 L2267.13 105.329 L2274.77 105.329 L2274.77 109.264 L2254.86 109.264 L2254.86 105.329 Z" fill="#000000" fill-rule="evenodd" fill-opacity="1" /><path clip-path="url(#clip700)" d="M 0 0 M2289.84 77.7828 Q2286.23 77.7828 2284.4 81.3476 Q2282.59 84.8893 2282.59 92.0188 Q2282.59 99.1253 2284.4 102.69 Q2286.23 106.232 2289.84 106.232 Q2293.47 106.232 2295.28 102.69 Q2297.11 99.1253 2297.11 92.0188 Q2297.11 84.8893 2295.28 81.3476 Q2293.47 77.7828 2289.84 77.7828 M2289.84 74.0791 Q2295.65 74.0791 2298.71 78.6856 Q2301.78 83.2689 2301.78 92.0188 Q2301.78 100.746 2298.71 105.352 Q2295.65 109.935 2289.84 109.935 Q2284.03 109.935 2280.95 105.352 Q2277.9 100.746 2277.9 92.0188 Q2277.9 83.2689 2280.95 78.6856 Q2284.03 74.0791 2289.84 74.0791 Z" fill="#000000" fill-rule="evenodd" fill-opacity="1" /><path clip-path="url(#clip700)" d="M 0 0 M2310.88 105.329 L2327.2 105.329 L2327.2 109.264 L2305.26 109.264 L2305.26 105.329 Q2307.92 102.574 2312.5 97.9447 Q2317.11 93.292 2318.29 91.9494 Q2320.53 89.4263 2321.41 87.6902 Q2322.32 85.9309 2322.32 84.2411 Q2322.32 81.4865 2320.37 79.7504 Q2318.45 78.0143 2315.35 78.0143 Q2313.15 78.0143 2310.7 78.7782 Q2308.27 79.5421 2305.49 81.093 L2305.49 76.3708 Q2308.31 75.2365 2310.77 74.6578 Q2313.22 74.0791 2315.26 74.0791 Q2320.63 74.0791 2323.82 76.7643 Q2327.02 79.4495 2327.02 83.9402 Q2327.02 86.0698 2326.21 87.9911 Q2325.42 89.8892 2323.31 92.4818 Q2322.73 93.1531 2319.63 96.3707 Q2316.53 99.5651 2310.88 105.329 Z" fill="#000000" fill-rule="evenodd" fill-opacity="1" /><polyline clip-path="url(#clip702)" style="stroke:#000000; stroke-width:2; stroke-opacity:0.1; fill:none" points="
  160.001,211.476 2352.76,211.476 
  "/>
<polyline clip-path="url(#clip702)" style="stroke:#000000; stroke-width:2; stroke-opacity:0.1; fill:none" points="
  160.001,354.847 2352.76,354.847 
  "/>
<polyline clip-path="url(#clip702)" style="stroke:#000000; stroke-width:2; stroke-opacity:0.1; fill:none" points="
  160.001,477.736 2352.76,477.736 
  "/>
<polyline clip-path="url(#clip702)" style="stroke:#000000; stroke-width:2; stroke-opacity:0.1; fill:none" points="
  160.001,621.107 2352.76,621.107 
  "/>
<polyline clip-path="url(#clip702)" style="stroke:#000000; stroke-width:2; stroke-opacity:0.1; fill:none" points="
  160.001,743.996 2352.76,743.996 
  "/>
<polyline clip-path="url(#clip702)" style="stroke:#000000; stroke-width:2; stroke-opacity:0.1; fill:none" points="
  160.001,887.367 2352.76,887.367 
  "/>
<polyline clip-path="url(#clip702)" style="stroke:#000000; stroke-width:2; stroke-opacity:0.1; fill:none" points="
  160.001,1010.26 2352.76,1010.26 
  "/>
<polyline clip-path="url(#clip702)" style="stroke:#000000; stroke-width:2; stroke-opacity:0.1; fill:none" points="
  160.001,1133.15 2352.76,1133.15 
  "/>
<polyline clip-path="url(#clip702)" style="stroke:#000000; stroke-width:2; stroke-opacity:0.1; fill:none" points="
  160.001,1256.03 2352.76,1256.03 
  "/>
<polyline clip-path="url(#clip702)" style="stroke:#000000; stroke-width:2; stroke-opacity:0.1; fill:none" points="
  160.001,1399.41 2352.76,1399.41 
  "/>
<polyline clip-path="url(#clip702)" style="stroke:#000000; stroke-width:2; stroke-opacity:0.1; fill:none" points="
  160.001,1522.29 2352.76,1522.29 
  "/>
<polyline clip-path="url(#clip702)" style="stroke:#000000; stroke-width:2; stroke-opacity:0.1; fill:none" points="
  160.001,1645.18 2352.76,1645.18 
  "/>
<polyline clip-path="url(#clip702)" style="stroke:#000000; stroke-width:2; stroke-opacity:0.1; fill:none" points="
  160.001,1768.07 2352.76,1768.07 
  "/>
<polyline clip-path="url(#clip702)" style="stroke:#000000; stroke-width:2; stroke-opacity:0.1; fill:none" points="
  160.001,1911.44 2352.76,1911.44 
  "/>
<polyline clip-path="url(#clip702)" style="stroke:#000000; stroke-width:2; stroke-opacity:0.1; fill:none" points="
  160.001,2034.33 2352.76,2034.33 
  "/>
<polyline clip-path="url(#clip702)" style="stroke:#000000; stroke-width:2; stroke-opacity:0.1; fill:none" points="
  160.001,2157.22 2352.76,2157.22 
  "/>
<polyline clip-path="url(#clip702)" style="stroke:#000000; stroke-width:2; stroke-opacity:0.1; fill:none" points="
  160.001,2280.11 2352.76,2280.11 
  "/>
<path clip-path="url(#clip700)" d="M 0 0 M104.094 224.82 L111.733 224.82 L111.733 198.455 L103.422 200.122 L103.422 195.862 L111.686 194.196 L116.362 194.196 L116.362 224.82 L124.001 224.82 L124.001 228.756 L104.094 228.756 L104.094 224.82 Z" fill="#000000" fill-rule="evenodd" fill-opacity="1" /><path clip-path="url(#clip700)" d="M 0 0 M112.149 355.715 Q108.816 355.715 106.895 357.497 Q104.996 359.279 104.996 362.404 Q104.996 365.529 106.895 367.312 Q108.816 369.094 112.149 369.094 Q115.483 369.094 117.404 367.312 Q119.325 365.506 119.325 362.404 Q119.325 359.279 117.404 357.497 Q115.506 355.715 112.149 355.715 M107.473 353.724 Q104.464 352.983 102.774 350.923 Q101.108 348.863 101.108 345.9 Q101.108 341.756 104.047 339.349 Q107.01 336.942 112.149 336.942 Q117.311 336.942 120.251 339.349 Q123.191 341.756 123.191 345.9 Q123.191 348.863 121.501 350.923 Q119.834 352.983 116.848 353.724 Q120.228 354.511 122.103 356.803 Q124.001 359.094 124.001 362.404 Q124.001 367.427 120.922 370.113 Q117.867 372.798 112.149 372.798 Q106.432 372.798 103.353 370.113 Q100.297 367.427 100.297 362.404 Q100.297 359.094 102.196 356.803 Q104.094 354.511 107.473 353.724 M105.76 346.34 Q105.76 349.025 107.427 350.529 Q109.117 352.034 112.149 352.034 Q115.158 352.034 116.848 350.529 Q118.561 349.025 118.561 346.34 Q118.561 343.654 116.848 342.15 Q115.158 340.645 112.149 340.645 Q109.117 340.645 107.427 342.15 Q105.76 343.654 105.76 346.34 Z" fill="#000000" fill-rule="evenodd" fill-opacity="1" /><path clip-path="url(#clip700)" d="M 0 0 M76.5938 491.081 L84.2327 491.081 L84.2327 464.715 L75.9225 466.382 L75.9225 462.122 L84.1864 460.456 L88.8623 460.456 L88.8623 491.081 L96.5011 491.081 L96.5011 495.016 L76.5938 495.016 L76.5938 491.081 Z" fill="#000000" fill-rule="evenodd" fill-opacity="1" /><path clip-path="url(#clip700)" d="M 0 0 M114.418 464.53 L102.612 482.979 L114.418 482.979 L114.418 464.53 M113.191 460.456 L119.07 460.456 L119.07 482.979 L124.001 482.979 L124.001 486.868 L119.07 486.868 L119.07 495.016 L114.418 495.016 L114.418 486.868 L98.8159 486.868 L98.8159 482.354 L113.191 460.456 Z" fill="#000000" fill-rule="evenodd" fill-opacity="1" /><path clip-path="url(#clip700)" d="M 0 0 M81.8947 634.452 L98.2141 634.452 L98.2141 638.387 L76.2698 638.387 L76.2698 634.452 Q78.9318 631.697 83.5151 627.067 Q88.1216 622.415 89.3021 621.072 Q91.5475 618.549 92.4271 616.813 Q93.3299 615.053 93.3299 613.364 Q93.3299 610.609 91.3854 608.873 Q89.4641 607.137 86.3623 607.137 Q84.1632 607.137 81.7096 607.901 Q79.279 608.665 76.5012 610.216 L76.5012 605.493 Q79.3253 604.359 81.779 603.78 Q84.2327 603.202 86.2697 603.202 Q91.6401 603.202 94.8345 605.887 Q98.0289 608.572 98.0289 613.063 Q98.0289 615.192 97.2187 617.114 Q96.4317 619.012 94.3252 621.604 Q93.7465 622.276 90.6447 625.493 Q87.5429 628.688 81.8947 634.452 Z" fill="#000000" fill-rule="evenodd" fill-opacity="1" /><path clip-path="url(#clip700)" d="M 0 0 M104.094 634.452 L111.733 634.452 L111.733 608.086 L103.422 609.753 L103.422 605.493 L111.686 603.827 L116.362 603.827 L116.362 634.452 L124.001 634.452 L124.001 638.387 L104.094 638.387 L104.094 634.452 Z" fill="#000000" fill-rule="evenodd" fill-opacity="1" /><path clip-path="url(#clip700)" d="M 0 0 M81.5707 757.341 L97.89 757.341 L97.89 761.276 L75.9457 761.276 L75.9457 757.341 Q78.6077 754.586 83.191 749.957 Q87.7975 745.304 88.978 743.961 Q91.2234 741.438 92.103 739.702 Q93.0058 737.943 93.0058 736.253 Q93.0058 733.498 91.0614 731.762 Q89.1401 730.026 86.0382 730.026 Q83.8392 730.026 81.3855 730.79 Q78.9549 731.554 76.1772 733.105 L76.1772 728.383 Q79.0012 727.248 81.4549 726.67 Q83.9086 726.091 85.9456 726.091 Q91.316 726.091 94.5104 728.776 Q97.7048 731.461 97.7048 735.952 Q97.7048 738.082 96.8947 740.003 Q96.1076 741.901 94.0012 744.494 Q93.4225 745.165 90.3206 748.383 Q87.2188 751.577 81.5707 757.341 Z" fill="#000000" fill-rule="evenodd" fill-opacity="1" /><path clip-path="url(#clip700)" d="M 0 0 M101.779 726.716 L124.001 726.716 L124.001 728.707 L111.455 761.276 L106.571 761.276 L118.376 730.651 L101.779 730.651 L101.779 726.716 Z" fill="#000000" fill-rule="evenodd" fill-opacity="1" /><path clip-path="url(#clip700)" d="M 0 0 M89.3715 886.013 Q92.728 886.73 94.603 888.999 Q96.5011 891.267 96.5011 894.601 Q96.5011 899.716 92.9826 902.517 Q89.4641 905.318 82.9827 905.318 Q80.8068 905.318 78.492 904.878 Q76.2003 904.462 73.7466 903.605 L73.7466 899.091 Q75.6911 900.226 78.0059 900.804 Q80.3207 901.383 82.8438 901.383 Q87.2419 901.383 89.5336 899.647 Q91.8484 897.911 91.8484 894.601 Q91.8484 891.545 89.6956 889.832 Q87.566 888.096 83.7466 888.096 L79.7188 888.096 L79.7188 884.253 L83.9318 884.253 Q87.3808 884.253 89.2095 882.888 Q91.0382 881.499 91.0382 878.906 Q91.0382 876.244 89.1401 874.832 Q87.2651 873.397 83.7466 873.397 Q81.8253 873.397 79.6262 873.814 Q77.4272 874.23 74.7883 875.11 L74.7883 870.943 Q77.4503 870.203 79.7651 869.832 Q82.1031 869.462 84.1632 869.462 Q89.4873 869.462 92.5891 871.892 Q95.691 874.3 95.691 878.42 Q95.691 881.291 94.0475 883.281 Q92.4039 885.249 89.3715 886.013 Z" fill="#000000" fill-rule="evenodd" fill-opacity="1" /><path clip-path="url(#clip700)" d="M 0 0 M114.418 874.161 L102.612 892.61 L114.418 892.61 L114.418 874.161 M113.191 870.087 L119.07 870.087 L119.07 892.61 L124.001 892.61 L124.001 896.499 L119.07 896.499 L119.07 904.647 L114.418 904.647 L114.418 896.499 L98.8159 896.499 L98.8159 891.985 L113.191 870.087 Z" fill="#000000" fill-rule="evenodd" fill-opacity="1" /><path clip-path="url(#clip700)" d="M 0 0 M87.404 997.05 L75.5985 1015.5 L87.404 1015.5 L87.404 997.05 M86.1771 992.976 L92.0567 992.976 L92.0567 1015.5 L96.9872 1015.5 L96.9872 1019.39 L92.0567 1019.39 L92.0567 1027.54 L87.404 1027.54 L87.404 1019.39 L71.8022 1019.39 L71.8022 1014.87 L86.1771 992.976 Z" fill="#000000" fill-rule="evenodd" fill-opacity="1" /><path clip-path="url(#clip700)" d="M 0 0 M112.057 996.055 Q108.446 996.055 106.617 999.62 Q104.811 1003.16 104.811 1010.29 Q104.811 1017.4 106.617 1020.96 Q108.446 1024.5 112.057 1024.5 Q115.691 1024.5 117.496 1020.96 Q119.325 1017.4 119.325 1010.29 Q119.325 1003.16 117.496 999.62 Q115.691 996.055 112.057 996.055 M112.057 992.351 Q117.867 992.351 120.922 996.958 Q124.001 1001.54 124.001 1010.29 Q124.001 1019.02 120.922 1023.62 Q117.867 1028.21 112.057 1028.21 Q106.246 1028.21 103.168 1023.62 Q100.112 1019.02 100.112 1010.29 Q100.112 1001.54 103.168 996.958 Q106.246 992.351 112.057 992.351 Z" fill="#000000" fill-rule="evenodd" fill-opacity="1" /><path clip-path="url(#clip700)" d="M 0 0 M87.2419 1119.94 L75.4364 1138.39 L87.2419 1138.39 L87.2419 1119.94 M86.0151 1115.87 L91.8947 1115.87 L91.8947 1138.39 L96.8252 1138.39 L96.8252 1142.28 L91.8947 1142.28 L91.8947 1150.43 L87.2419 1150.43 L87.2419 1142.28 L71.6402 1142.28 L71.6402 1137.76 L86.0151 1115.87 Z" fill="#000000" fill-rule="evenodd" fill-opacity="1" /><path clip-path="url(#clip700)" d="M 0 0 M112.473 1131.28 Q109.325 1131.28 107.473 1133.43 Q105.645 1135.59 105.645 1139.34 Q105.645 1143.06 107.473 1145.24 Q109.325 1147.39 112.473 1147.39 Q115.621 1147.39 117.45 1145.24 Q119.302 1143.06 119.302 1139.34 Q119.302 1135.59 117.45 1133.43 Q115.621 1131.28 112.473 1131.28 M121.756 1116.63 L121.756 1120.89 Q119.996 1120.06 118.191 1119.62 Q116.408 1119.18 114.649 1119.18 Q110.02 1119.18 107.566 1122.3 Q105.135 1125.43 104.788 1131.75 Q106.154 1129.73 108.214 1128.67 Q110.274 1127.58 112.751 1127.58 Q117.959 1127.58 120.969 1130.75 Q124.001 1133.9 124.001 1139.34 Q124.001 1144.66 120.853 1147.88 Q117.705 1151.1 112.473 1151.1 Q106.478 1151.1 103.307 1146.51 Q100.135 1141.91 100.135 1133.18 Q100.135 1124.99 104.024 1120.12 Q107.913 1115.24 114.464 1115.24 Q116.223 1115.24 118.006 1115.59 Q119.811 1115.93 121.756 1116.63 Z" fill="#000000" fill-rule="evenodd" fill-opacity="1" /><path clip-path="url(#clip700)" d="M 0 0 M77.6818 1238.75 L96.0382 1238.75 L96.0382 1242.69 L81.9642 1242.69 L81.9642 1251.16 Q82.9827 1250.81 84.0012 1250.65 Q85.0197 1250.47 86.0382 1250.47 Q91.8252 1250.47 95.2049 1253.64 Q98.5845 1256.81 98.5845 1262.23 Q98.5845 1267.81 95.1123 1270.91 Q91.6401 1273.99 85.3206 1273.99 Q83.1447 1273.99 80.8762 1273.62 Q78.6309 1273.25 76.2235 1272.5 L76.2235 1267.81 Q78.3068 1268.94 80.529 1269.5 Q82.7512 1270.05 85.2281 1270.05 Q89.2327 1270.05 91.5706 1267.94 Q93.9086 1265.84 93.9086 1262.23 Q93.9086 1258.62 91.5706 1256.51 Q89.2327 1254.4 85.2281 1254.4 Q83.3531 1254.4 81.4781 1254.82 Q79.6262 1255.24 77.6818 1256.12 L77.6818 1238.75 Z" fill="#000000" fill-rule="evenodd" fill-opacity="1" /><path clip-path="url(#clip700)" d="M 0 0 M107.682 1269.38 L124.001 1269.38 L124.001 1273.31 L102.057 1273.31 L102.057 1269.38 Q104.719 1266.63 109.302 1262 Q113.908 1257.34 115.089 1256 Q117.334 1253.48 118.214 1251.74 Q119.117 1249.98 119.117 1248.29 Q119.117 1245.54 117.172 1243.8 Q115.251 1242.06 112.149 1242.06 Q109.95 1242.06 107.496 1242.83 Q105.066 1243.59 102.288 1245.14 L102.288 1240.42 Q105.112 1239.29 107.566 1238.71 Q110.02 1238.13 112.057 1238.13 Q117.427 1238.13 120.621 1240.81 Q123.816 1243.5 123.816 1247.99 Q123.816 1250.12 123.006 1252.04 Q122.219 1253.94 120.112 1256.53 Q119.533 1257.2 116.432 1260.42 Q113.33 1263.62 107.682 1269.38 Z" fill="#000000" fill-rule="evenodd" fill-opacity="1" /><path clip-path="url(#clip700)" d="M 0 0 M76.2698 1382.13 L94.6262 1382.13 L94.6262 1386.06 L80.5522 1386.06 L80.5522 1394.53 Q81.5707 1394.19 82.5892 1394.02 Q83.6077 1393.84 84.6262 1393.84 Q90.4132 1393.84 93.7928 1397.01 Q97.1724 1400.18 97.1724 1405.6 Q97.1724 1411.18 93.7002 1414.28 Q90.228 1417.36 83.9086 1417.36 Q81.7327 1417.36 79.4642 1416.99 Q77.2188 1416.62 74.8114 1415.88 L74.8114 1411.18 Q76.8948 1412.31 79.117 1412.87 Q81.3392 1413.42 83.816 1413.42 Q87.8206 1413.42 90.1586 1411.32 Q92.4965 1409.21 92.4965 1405.6 Q92.4965 1401.99 90.1586 1399.88 Q87.8206 1397.77 83.816 1397.77 Q81.941 1397.77 80.066 1398.19 Q78.2142 1398.61 76.2698 1399.49 L76.2698 1382.13 Z" fill="#000000" fill-rule="evenodd" fill-opacity="1" /><path clip-path="url(#clip700)" d="M 0 0 M102.381 1415.97 L102.381 1411.71 Q104.14 1412.54 105.946 1412.98 Q107.751 1413.42 109.487 1413.42 Q114.117 1413.42 116.547 1410.32 Q119.001 1407.19 119.348 1400.85 Q118.006 1402.84 115.945 1403.91 Q113.885 1404.97 111.385 1404.97 Q106.2 1404.97 103.168 1401.85 Q100.159 1398.7 100.159 1393.26 Q100.159 1387.94 103.307 1384.72 Q106.455 1381.5 111.686 1381.5 Q117.682 1381.5 120.83 1386.11 Q124.001 1390.69 124.001 1399.44 Q124.001 1407.61 120.112 1412.5 Q116.246 1417.36 109.696 1417.36 Q107.936 1417.36 106.131 1417.01 Q104.325 1416.66 102.381 1415.97 M111.686 1401.32 Q114.834 1401.32 116.663 1399.16 Q118.515 1397.01 118.515 1393.26 Q118.515 1389.53 116.663 1387.38 Q114.834 1385.2 111.686 1385.2 Q108.538 1385.2 106.686 1387.38 Q104.858 1389.53 104.858 1393.26 Q104.858 1397.01 106.686 1399.16 Q108.538 1401.32 111.686 1401.32 Z" fill="#000000" fill-rule="evenodd" fill-opacity="1" /><path clip-path="url(#clip700)" d="M 0 0 M86.4549 1520.43 Q83.3068 1520.43 81.4549 1522.58 Q79.6262 1524.74 79.6262 1528.49 Q79.6262 1532.21 81.4549 1534.39 Q83.3068 1536.54 86.4549 1536.54 Q89.603 1536.54 91.4317 1534.39 Q93.2836 1532.21 93.2836 1528.49 Q93.2836 1524.74 91.4317 1522.58 Q89.603 1520.43 86.4549 1520.43 M95.7373 1505.78 L95.7373 1510.04 Q93.978 1509.2 92.1725 1508.76 Q90.3901 1508.33 88.6308 1508.33 Q84.0012 1508.33 81.5475 1511.45 Q79.117 1514.58 78.7698 1520.89 Q80.1355 1518.88 82.1957 1517.82 Q84.2558 1516.73 86.7327 1516.73 Q91.941 1516.73 94.9502 1519.9 Q97.9826 1523.05 97.9826 1528.49 Q97.9826 1533.81 94.8345 1537.03 Q91.6864 1540.25 86.4549 1540.25 Q80.4596 1540.25 77.2883 1535.66 Q74.117 1531.06 74.117 1522.33 Q74.117 1514.14 78.0059 1509.27 Q81.8947 1504.39 88.4456 1504.39 Q90.2049 1504.39 91.9873 1504.74 Q93.7928 1505.08 95.7373 1505.78 Z" fill="#000000" fill-rule="evenodd" fill-opacity="1" /><path clip-path="url(#clip700)" d="M 0 0 M103.098 1505.01 L121.455 1505.01 L121.455 1508.95 L107.381 1508.95 L107.381 1517.42 Q108.399 1517.08 109.418 1516.91 Q110.436 1516.73 111.455 1516.73 Q117.242 1516.73 120.621 1519.9 Q124.001 1523.07 124.001 1528.49 Q124.001 1534.07 120.529 1537.17 Q117.057 1540.25 110.737 1540.25 Q108.561 1540.25 106.293 1539.88 Q104.047 1539.51 101.64 1538.76 L101.64 1534.07 Q103.723 1535.2 105.946 1535.76 Q108.168 1536.31 110.645 1536.31 Q114.649 1536.31 116.987 1534.2 Q119.325 1532.1 119.325 1528.49 Q119.325 1524.88 116.987 1522.77 Q114.649 1520.66 110.645 1520.66 Q108.77 1520.66 106.895 1521.08 Q105.043 1521.5 103.098 1522.38 L103.098 1505.01 Z" fill="#000000" fill-rule="evenodd" fill-opacity="1" /><path clip-path="url(#clip700)" d="M 0 0 M75.992 1627.9 L98.2141 1627.9 L98.2141 1629.9 L85.6679 1662.46 L80.7836 1662.46 L92.5891 1631.84 L75.992 1631.84 L75.992 1627.9 Z" fill="#000000" fill-rule="evenodd" fill-opacity="1" /><path clip-path="url(#clip700)" d="M 0 0 M104.094 1658.53 L111.733 1658.53 L111.733 1632.16 L103.422 1633.83 L103.422 1629.57 L111.686 1627.9 L116.362 1627.9 L116.362 1658.53 L124.001 1658.53 L124.001 1662.46 L104.094 1662.46 L104.094 1658.53 Z" fill="#000000" fill-rule="evenodd" fill-opacity="1" /><path clip-path="url(#clip700)" d="M 0 0 M75.6679 1750.79 L97.89 1750.79 L97.89 1752.78 L85.3438 1785.35 L80.4596 1785.35 L92.2651 1754.73 L75.6679 1754.73 L75.6679 1750.79 Z" fill="#000000" fill-rule="evenodd" fill-opacity="1" /><path clip-path="url(#clip700)" d="M 0 0 M101.779 1750.79 L124.001 1750.79 L124.001 1752.78 L111.455 1785.35 L106.571 1785.35 L118.376 1754.73 L101.779 1754.73 L101.779 1750.79 Z" fill="#000000" fill-rule="evenodd" fill-opacity="1" /><path clip-path="url(#clip700)" d="M 0 0 M84.6494 1912.31 Q81.316 1912.31 79.3948 1914.09 Q77.4966 1915.88 77.4966 1919 Q77.4966 1922.13 79.3948 1923.91 Q81.316 1925.69 84.6494 1925.69 Q87.9827 1925.69 89.904 1923.91 Q91.8252 1922.1 91.8252 1919 Q91.8252 1915.88 89.904 1914.09 Q88.0058 1912.31 84.6494 1912.31 M79.9735 1910.32 Q76.9642 1909.58 75.2744 1907.52 Q73.6077 1905.46 73.6077 1902.5 Q73.6077 1898.35 76.5475 1895.95 Q79.5105 1893.54 84.6494 1893.54 Q89.8114 1893.54 92.7512 1895.95 Q95.691 1898.35 95.691 1902.5 Q95.691 1905.46 94.0012 1907.52 Q92.3345 1909.58 89.3484 1910.32 Q92.728 1911.11 94.603 1913.4 Q96.5011 1915.69 96.5011 1919 Q96.5011 1924.03 93.4225 1926.71 Q90.3669 1929.4 84.6494 1929.4 Q78.9318 1929.4 75.8531 1926.71 Q72.7976 1924.03 72.7976 1919 Q72.7976 1915.69 74.6957 1913.4 Q76.5938 1911.11 79.9735 1910.32 M78.2605 1902.94 Q78.2605 1905.62 79.9272 1907.13 Q81.617 1908.63 84.6494 1908.63 Q87.6586 1908.63 89.3484 1907.13 Q91.0614 1905.62 91.0614 1902.94 Q91.0614 1900.25 89.3484 1898.75 Q87.6586 1897.24 84.6494 1897.24 Q81.617 1897.24 79.9272 1898.75 Q78.2605 1900.25 78.2605 1902.94 Z" fill="#000000" fill-rule="evenodd" fill-opacity="1" /><path clip-path="url(#clip700)" d="M 0 0 M114.418 1898.24 L102.612 1916.69 L114.418 1916.69 L114.418 1898.24 M113.191 1894.16 L119.07 1894.16 L119.07 1916.69 L124.001 1916.69 L124.001 1920.58 L119.07 1920.58 L119.07 1928.72 L114.418 1928.72 L114.418 1920.58 L98.8159 1920.58 L98.8159 1916.06 L113.191 1894.16 Z" fill="#000000" fill-rule="evenodd" fill-opacity="1" /><path clip-path="url(#clip700)" d="M 0 0 M75.367 2050.9 L75.367 2046.64 Q77.1262 2047.47 78.9318 2047.91 Q80.7373 2048.35 82.4734 2048.35 Q87.103 2048.35 89.5336 2045.25 Q91.9873 2042.12 92.3345 2035.78 Q90.9919 2037.77 88.9317 2038.84 Q86.8716 2039.9 84.3716 2039.9 Q79.1864 2039.9 76.154 2036.78 Q73.1448 2033.63 73.1448 2028.19 Q73.1448 2022.86 76.2929 2019.65 Q79.441 2016.43 84.6725 2016.43 Q90.6678 2016.43 93.816 2021.04 Q96.9872 2025.62 96.9872 2034.37 Q96.9872 2042.54 93.0984 2047.42 Q89.2327 2052.29 82.6818 2052.29 Q80.9225 2052.29 79.117 2051.94 Q77.3114 2051.59 75.367 2050.9 M84.6725 2036.24 Q87.8206 2036.24 89.6493 2034.09 Q91.5012 2031.94 91.5012 2028.19 Q91.5012 2024.46 89.6493 2022.31 Q87.8206 2020.13 84.6725 2020.13 Q81.5244 2020.13 79.6725 2022.31 Q77.8438 2024.46 77.8438 2028.19 Q77.8438 2031.94 79.6725 2034.09 Q81.5244 2036.24 84.6725 2036.24 Z" fill="#000000" fill-rule="evenodd" fill-opacity="1" /><path clip-path="url(#clip700)" d="M 0 0 M112.057 2020.13 Q108.446 2020.13 106.617 2023.7 Q104.811 2027.24 104.811 2034.37 Q104.811 2041.47 106.617 2045.04 Q108.446 2048.58 112.057 2048.58 Q115.691 2048.58 117.496 2045.04 Q119.325 2041.47 119.325 2034.37 Q119.325 2027.24 117.496 2023.7 Q115.691 2020.13 112.057 2020.13 M112.057 2016.43 Q117.867 2016.43 120.922 2021.04 Q124.001 2025.62 124.001 2034.37 Q124.001 2043.1 120.922 2047.7 Q117.867 2052.29 112.057 2052.29 Q106.246 2052.29 103.168 2047.7 Q100.112 2043.1 100.112 2034.37 Q100.112 2025.62 103.168 2021.04 Q106.246 2016.43 112.057 2016.43 Z" fill="#000000" fill-rule="evenodd" fill-opacity="1" /><path clip-path="url(#clip700)" d="M 0 0 M75.205 2173.79 L75.205 2169.53 Q76.9642 2170.36 78.7698 2170.8 Q80.5753 2171.24 82.3114 2171.24 Q86.941 2171.24 89.3715 2168.14 Q91.8252 2165.01 92.1725 2158.67 Q90.8299 2160.66 88.7697 2161.73 Q86.7095 2162.79 84.2095 2162.79 Q79.0244 2162.79 75.992 2159.67 Q72.9827 2156.52 72.9827 2151.08 Q72.9827 2145.75 76.1309 2142.54 Q79.279 2139.32 84.5105 2139.32 Q90.5058 2139.32 93.6539 2143.92 Q96.8252 2148.51 96.8252 2157.26 Q96.8252 2165.43 92.9363 2170.31 Q89.0706 2175.17 82.5197 2175.17 Q80.7605 2175.17 78.9549 2174.83 Q77.1494 2174.48 75.205 2173.79 M84.5105 2159.13 Q87.6586 2159.13 89.4873 2156.98 Q91.3391 2154.83 91.3391 2151.08 Q91.3391 2147.35 89.4873 2145.2 Q87.6586 2143.02 84.5105 2143.02 Q81.3623 2143.02 79.5105 2145.2 Q77.6818 2147.35 77.6818 2151.08 Q77.6818 2154.83 79.5105 2156.98 Q81.3623 2159.13 84.5105 2159.13 Z" fill="#000000" fill-rule="evenodd" fill-opacity="1" /><path clip-path="url(#clip700)" d="M 0 0 M112.473 2155.36 Q109.325 2155.36 107.473 2157.51 Q105.645 2159.67 105.645 2163.42 Q105.645 2167.14 107.473 2169.32 Q109.325 2171.47 112.473 2171.47 Q115.621 2171.47 117.45 2169.32 Q119.302 2167.14 119.302 2163.42 Q119.302 2159.67 117.45 2157.51 Q115.621 2155.36 112.473 2155.36 M121.756 2140.71 L121.756 2144.97 Q119.996 2144.13 118.191 2143.69 Q116.408 2143.25 114.649 2143.25 Q110.02 2143.25 107.566 2146.38 Q105.135 2149.5 104.788 2155.82 Q106.154 2153.81 108.214 2152.74 Q110.274 2151.66 112.751 2151.66 Q117.959 2151.66 120.969 2154.83 Q124.001 2157.98 124.001 2163.42 Q124.001 2168.74 120.853 2171.96 Q117.705 2175.17 112.473 2175.17 Q106.478 2175.17 103.307 2170.59 Q100.135 2165.98 100.135 2157.26 Q100.135 2149.06 104.024 2144.2 Q107.913 2139.32 114.464 2139.32 Q116.223 2139.32 118.006 2139.67 Q119.811 2140.01 121.756 2140.71 Z" fill="#000000" fill-rule="evenodd" fill-opacity="1" /><path clip-path="url(#clip700)" d="M 0 0 M51.6634 2293.46 L59.3023 2293.46 L59.3023 2267.09 L50.9921 2268.76 L50.9921 2264.5 L59.256 2262.83 L63.9319 2262.83 L63.9319 2293.46 L71.5707 2293.46 L71.5707 2297.39 L51.6634 2297.39 L51.6634 2293.46 Z" fill="#000000" fill-rule="evenodd" fill-opacity="1" /><path clip-path="url(#clip700)" d="M 0 0 M86.6401 2265.91 Q83.029 2265.91 81.2003 2269.48 Q79.3948 2273.02 79.3948 2280.15 Q79.3948 2287.25 81.2003 2290.82 Q83.029 2294.36 86.6401 2294.36 Q90.2743 2294.36 92.0799 2290.82 Q93.9086 2287.25 93.9086 2280.15 Q93.9086 2273.02 92.0799 2269.48 Q90.2743 2265.91 86.6401 2265.91 M86.6401 2262.21 Q92.4502 2262.21 95.5058 2266.81 Q98.5845 2271.4 98.5845 2280.15 Q98.5845 2288.87 95.5058 2293.48 Q92.4502 2298.06 86.6401 2298.06 Q80.8299 2298.06 77.7512 2293.48 Q74.6957 2288.87 74.6957 2280.15 Q74.6957 2271.4 77.7512 2266.81 Q80.8299 2262.21 86.6401 2262.21 Z" fill="#000000" fill-rule="evenodd" fill-opacity="1" /><path clip-path="url(#clip700)" d="M 0 0 M107.682 2293.46 L124.001 2293.46 L124.001 2297.39 L102.057 2297.39 L102.057 2293.46 Q104.719 2290.7 109.302 2286.07 Q113.908 2281.42 115.089 2280.08 Q117.334 2277.55 118.214 2275.82 Q119.117 2274.06 119.117 2272.37 Q119.117 2269.61 117.172 2267.88 Q115.251 2266.14 112.149 2266.14 Q109.95 2266.14 107.496 2266.91 Q105.066 2267.67 102.288 2269.22 L102.288 2264.5 Q105.112 2263.36 107.566 2262.79 Q110.02 2262.21 112.057 2262.21 Q117.427 2262.21 120.621 2264.89 Q123.816 2267.58 123.816 2272.07 Q123.816 2274.2 123.006 2276.12 Q122.219 2278.02 120.112 2280.61 Q119.533 2281.28 116.432 2284.5 Q113.33 2287.69 107.682 2293.46 Z" fill="#000000" fill-rule="evenodd" fill-opacity="1" /><path clip-path="url(#clip702)" d="
M222.06 211.476 L365.431 211.476 L365.431 354.847 L222.06 354.847 L222.06 211.476  Z
  " fill="#ff6347" fill-rule="evenodd" fill-opacity="1"/>
<polyline clip-path="url(#clip702)" style="stroke:#000000; stroke-width:4; stroke-opacity:1; fill:none" points="
  222.06,211.476 365.431,211.476 365.431,354.847 222.06,354.847 222.06,211.476 
  "/>
<path clip-path="url(#clip702)" d="
M365.431 354.847 L488.32 354.847 L488.32 477.736 L365.431 477.736 L365.431 354.847  Z
  " fill="#ff6347" fill-rule="evenodd" fill-opacity="1"/>
<polyline clip-path="url(#clip702)" style="stroke:#000000; stroke-width:4; stroke-opacity:1; fill:none" points="
  365.431,354.847 488.32,354.847 488.32,477.736 365.431,477.736 365.431,354.847 
  "/>
<path clip-path="url(#clip702)" d="
M365.431 211.476 L488.32 211.476 L488.32 354.847 L365.431 354.847 L365.431 211.476  Z
  " fill="#f0f8ff" fill-rule="evenodd" fill-opacity="1"/>
<polyline clip-path="url(#clip702)" style="stroke:#000000; stroke-width:4; stroke-opacity:1; fill:none" points="
  365.431,211.476 488.32,211.476 488.32,354.847 365.431,354.847 365.431,211.476 
  "/>
<path clip-path="url(#clip702)" d="
M222.06 354.847 L365.431 354.847 L365.431 477.736 L222.06 477.736 L222.06 354.847  Z
  " fill="#f0f8ff" fill-rule="evenodd" fill-opacity="1"/>
<polyline clip-path="url(#clip702)" style="stroke:#000000; stroke-width:4; stroke-opacity:1; fill:none" points="
  222.06,354.847 365.431,354.847 365.431,477.736 222.06,477.736 222.06,354.847 
  "/>
<path clip-path="url(#clip702)" d="
M488.32 477.736 L631.691 477.736 L631.691 621.107 L488.32 621.107 L488.32 477.736  Z
  " fill="#ff6347" fill-rule="evenodd" fill-opacity="1"/>
<polyline clip-path="url(#clip702)" style="stroke:#000000; stroke-width:4; stroke-opacity:1; fill:none" points="
  488.32,477.736 631.691,477.736 631.691,621.107 488.32,621.107 488.32,477.736 
  "/>
<path clip-path="url(#clip702)" d="
M631.691 621.107 L754.58 621.107 L754.58 743.996 L631.691 743.996 L631.691 621.107  Z
  " fill="#ff6347" fill-rule="evenodd" fill-opacity="1"/>
<polyline clip-path="url(#clip702)" style="stroke:#000000; stroke-width:4; stroke-opacity:1; fill:none" points="
  631.691,621.107 754.58,621.107 754.58,743.996 631.691,743.996 631.691,621.107 
  "/>
<path clip-path="url(#clip702)" d="
M631.691 477.736 L754.58 477.736 L754.58 621.107 L631.691 621.107 L631.691 477.736  Z
  " fill="#f0f8ff" fill-rule="evenodd" fill-opacity="1"/>
<polyline clip-path="url(#clip702)" style="stroke:#000000; stroke-width:4; stroke-opacity:1; fill:none" points="
  631.691,477.736 754.58,477.736 754.58,621.107 631.691,621.107 631.691,477.736 
  "/>
<path clip-path="url(#clip702)" d="
M488.32 621.107 L631.691 621.107 L631.691 743.996 L488.32 743.996 L488.32 621.107  Z
  " fill="#f0f8ff" fill-rule="evenodd" fill-opacity="1"/>
<polyline clip-path="url(#clip702)" style="stroke:#000000; stroke-width:4; stroke-opacity:1; fill:none" points="
  488.32,621.107 631.691,621.107 631.691,743.996 488.32,743.996 488.32,621.107 
  "/>
<path clip-path="url(#clip702)" d="
M488.32 211.476 L754.58 211.476 L754.58 477.736 L488.32 477.736 L488.32 211.476  Z
  " fill="#f0f8ff" fill-rule="evenodd" fill-opacity="1"/>
<polyline clip-path="url(#clip702)" style="stroke:#000000; stroke-width:4; stroke-opacity:1; fill:none" points="
  488.32,211.476 754.58,211.476 754.58,477.736 488.32,477.736 488.32,211.476 
  "/>
<path clip-path="url(#clip702)" d="
M222.06 477.736 L488.32 477.736 L488.32 743.996 L222.06 743.996 L222.06 477.736  Z
  " fill="#f0f8ff" fill-rule="evenodd" fill-opacity="1"/>
<polyline clip-path="url(#clip702)" style="stroke:#000000; stroke-width:4; stroke-opacity:1; fill:none" points="
  222.06,477.736 488.32,477.736 488.32,743.996 222.06,743.996 222.06,477.736 
  "/>
<path clip-path="url(#clip702)" d="
M754.58 743.996 L897.951 743.996 L897.951 887.367 L754.58 887.367 L754.58 743.996  Z
  " fill="#ff6347" fill-rule="evenodd" fill-opacity="1"/>
<polyline clip-path="url(#clip702)" style="stroke:#000000; stroke-width:4; stroke-opacity:1; fill:none" points="
  754.58,743.996 897.951,743.996 897.951,887.367 754.58,887.367 754.58,743.996 
  "/>
<path clip-path="url(#clip702)" d="
M897.951 887.367 L1020.84 887.367 L1020.84 1010.26 L897.951 1010.26 L897.951 887.367  Z
  " fill="#ff6347" fill-rule="evenodd" fill-opacity="1"/>
<polyline clip-path="url(#clip702)" style="stroke:#000000; stroke-width:4; stroke-opacity:1; fill:none" points="
  897.951,887.367 1020.84,887.367 1020.84,1010.26 897.951,1010.26 897.951,887.367 
  "/>
<path clip-path="url(#clip702)" d="
M897.951 743.996 L1020.84 743.996 L1020.84 887.367 L897.951 887.367 L897.951 743.996  Z
  " fill="#f0f8ff" fill-rule="evenodd" fill-opacity="1"/>
<polyline clip-path="url(#clip702)" style="stroke:#000000; stroke-width:4; stroke-opacity:1; fill:none" points="
  897.951,743.996 1020.84,743.996 1020.84,887.367 897.951,887.367 897.951,743.996 
  "/>
<path clip-path="url(#clip702)" d="
M754.58 887.367 L897.951 887.367 L897.951 1010.26 L754.58 1010.26 L754.58 887.367  Z
  " fill="#f0f8ff" fill-rule="evenodd" fill-opacity="1"/>
<polyline clip-path="url(#clip702)" style="stroke:#000000; stroke-width:4; stroke-opacity:1; fill:none" points="
  754.58,887.367 897.951,887.367 897.951,1010.26 754.58,1010.26 754.58,887.367 
  "/>
<path clip-path="url(#clip702)" d="
M1020.84 1010.26 L1143.73 1010.26 L1143.73 1133.15 L1020.84 1133.15 L1020.84 1010.26  Z
  " fill="#ff6347" fill-rule="evenodd" fill-opacity="1"/>
<polyline clip-path="url(#clip702)" style="stroke:#000000; stroke-width:4; stroke-opacity:1; fill:none" points="
  1020.84,1010.26 1143.73,1010.26 1143.73,1133.15 1020.84,1133.15 1020.84,1010.26 
  "/>
<path clip-path="url(#clip702)" d="
M1143.73 1133.15 L1266.62 1133.15 L1266.62 1256.03 L1143.73 1256.03 L1143.73 1133.15  Z
  " fill="#ff6347" fill-rule="evenodd" fill-opacity="1"/>
<polyline clip-path="url(#clip702)" style="stroke:#000000; stroke-width:4; stroke-opacity:1; fill:none" points="
  1143.73,1133.15 1266.62,1133.15 1266.62,1256.03 1143.73,1256.03 1143.73,1133.15 
  "/>
<path clip-path="url(#clip702)" d="
M1143.73 1010.26 L1266.62 1010.26 L1266.62 1133.15 L1143.73 1133.15 L1143.73 1010.26  Z
  " fill="#f0f8ff" fill-rule="evenodd" fill-opacity="1"/>
<polyline clip-path="url(#clip702)" style="stroke:#000000; stroke-width:4; stroke-opacity:1; fill:none" points="
  1143.73,1010.26 1266.62,1010.26 1266.62,1133.15 1143.73,1133.15 1143.73,1010.26 
  "/>
<path clip-path="url(#clip702)" d="
M1020.84 1133.15 L1143.73 1133.15 L1143.73 1256.03 L1020.84 1256.03 L1020.84 1133.15  Z
  " fill="#f0f8ff" fill-rule="evenodd" fill-opacity="1"/>
<polyline clip-path="url(#clip702)" style="stroke:#000000; stroke-width:4; stroke-opacity:1; fill:none" points="
  1020.84,1133.15 1143.73,1133.15 1143.73,1256.03 1020.84,1256.03 1020.84,1133.15 
  "/>
<path clip-path="url(#clip702)" d="
M1020.84 743.996 L1266.62 743.996 L1266.62 1010.26 L1020.84 1010.26 L1020.84 743.996  Z
  " fill="#f0f8ff" fill-rule="evenodd" fill-opacity="1"/>
<polyline clip-path="url(#clip702)" style="stroke:#000000; stroke-width:4; stroke-opacity:1; fill:none" points="
  1020.84,743.996 1266.62,743.996 1266.62,1010.26 1020.84,1010.26 1020.84,743.996 
  "/>
<path clip-path="url(#clip702)" d="
M754.58 1010.26 L1020.84 1010.26 L1020.84 1256.03 L754.58 1256.03 L754.58 1010.26  Z
  " fill="#f0f8ff" fill-rule="evenodd" fill-opacity="1"/>
<polyline clip-path="url(#clip702)" style="stroke:#000000; stroke-width:4; stroke-opacity:1; fill:none" points="
  754.58,1010.26 1020.84,1010.26 1020.84,1256.03 754.58,1256.03 754.58,1010.26 
  "/>
<path clip-path="url(#clip702)" d="
M754.58 211.476 L1266.62 211.476 L1266.62 743.996 L754.58 743.996 L754.58 211.476  Z
  " fill="#f0f8ff" fill-rule="evenodd" fill-opacity="1"/>
<polyline clip-path="url(#clip702)" style="stroke:#000000; stroke-width:4; stroke-opacity:1; fill:none" points="
  754.58,211.476 1266.62,211.476 1266.62,743.996 754.58,743.996 754.58,211.476 
  "/>
<path clip-path="url(#clip702)" d="
M222.06 743.996 L754.58 743.996 L754.58 1256.03 L222.06 1256.03 L222.06 743.996  Z
  " fill="#f0f8ff" fill-rule="evenodd" fill-opacity="1"/>
<polyline clip-path="url(#clip702)" style="stroke:#000000; stroke-width:4; stroke-opacity:1; fill:none" points="
  222.06,743.996 754.58,743.996 754.58,1256.03 222.06,1256.03 222.06,743.996 
  "/>
<path clip-path="url(#clip702)" d="
M1266.62 1256.03 L1409.99 1256.03 L1409.99 1399.41 L1266.62 1399.41 L1266.62 1256.03  Z
  " fill="#ff6347" fill-rule="evenodd" fill-opacity="1"/>
<polyline clip-path="url(#clip702)" style="stroke:#000000; stroke-width:4; stroke-opacity:1; fill:none" points="
  1266.62,1256.03 1409.99,1256.03 1409.99,1399.41 1266.62,1399.41 1266.62,1256.03 
  "/>
<path clip-path="url(#clip702)" d="
M1409.99 1399.41 L1532.88 1399.41 L1532.88 1522.29 L1409.99 1522.29 L1409.99 1399.41  Z
  " fill="#ff6347" fill-rule="evenodd" fill-opacity="1"/>
<polyline clip-path="url(#clip702)" style="stroke:#000000; stroke-width:4; stroke-opacity:1; fill:none" points="
  1409.99,1399.41 1532.88,1399.41 1532.88,1522.29 1409.99,1522.29 1409.99,1399.41 
  "/>
<path clip-path="url(#clip702)" d="
M1409.99 1256.03 L1532.88 1256.03 L1532.88 1399.41 L1409.99 1399.41 L1409.99 1256.03  Z
  " fill="#f0f8ff" fill-rule="evenodd" fill-opacity="1"/>
<polyline clip-path="url(#clip702)" style="stroke:#000000; stroke-width:4; stroke-opacity:1; fill:none" points="
  1409.99,1256.03 1532.88,1256.03 1532.88,1399.41 1409.99,1399.41 1409.99,1256.03 
  "/>
<path clip-path="url(#clip702)" d="
M1266.62 1399.41 L1409.99 1399.41 L1409.99 1522.29 L1266.62 1522.29 L1266.62 1399.41  Z
  " fill="#f0f8ff" fill-rule="evenodd" fill-opacity="1"/>
<polyline clip-path="url(#clip702)" style="stroke:#000000; stroke-width:4; stroke-opacity:1; fill:none" points="
  1266.62,1399.41 1409.99,1399.41 1409.99,1522.29 1266.62,1522.29 1266.62,1399.41 
  "/>
<path clip-path="url(#clip702)" d="
M1532.88 1522.29 L1655.77 1522.29 L1655.77 1645.18 L1532.88 1645.18 L1532.88 1522.29  Z
  " fill="#ff6347" fill-rule="evenodd" fill-opacity="1"/>
<polyline clip-path="url(#clip702)" style="stroke:#000000; stroke-width:4; stroke-opacity:1; fill:none" points="
  1532.88,1522.29 1655.77,1522.29 1655.77,1645.18 1532.88,1645.18 1532.88,1522.29 
  "/>
<path clip-path="url(#clip702)" d="
M1655.77 1645.18 L1778.66 1645.18 L1778.66 1768.07 L1655.77 1768.07 L1655.77 1645.18  Z
  " fill="#ff6347" fill-rule="evenodd" fill-opacity="1"/>
<polyline clip-path="url(#clip702)" style="stroke:#000000; stroke-width:4; stroke-opacity:1; fill:none" points="
  1655.77,1645.18 1778.66,1645.18 1778.66,1768.07 1655.77,1768.07 1655.77,1645.18 
  "/>
<path clip-path="url(#clip702)" d="
M1655.77 1522.29 L1778.66 1522.29 L1778.66 1645.18 L1655.77 1645.18 L1655.77 1522.29  Z
  " fill="#f0f8ff" fill-rule="evenodd" fill-opacity="1"/>
<polyline clip-path="url(#clip702)" style="stroke:#000000; stroke-width:4; stroke-opacity:1; fill:none" points="
  1655.77,1522.29 1778.66,1522.29 1778.66,1645.18 1655.77,1645.18 1655.77,1522.29 
  "/>
<path clip-path="url(#clip702)" d="
M1532.88 1645.18 L1655.77 1645.18 L1655.77 1768.07 L1532.88 1768.07 L1532.88 1645.18  Z
  " fill="#f0f8ff" fill-rule="evenodd" fill-opacity="1"/>
<polyline clip-path="url(#clip702)" style="stroke:#000000; stroke-width:4; stroke-opacity:1; fill:none" points="
  1532.88,1645.18 1655.77,1645.18 1655.77,1768.07 1532.88,1768.07 1532.88,1645.18 
  "/>
<path clip-path="url(#clip702)" d="
M1532.88 1256.03 L1778.66 1256.03 L1778.66 1522.29 L1532.88 1522.29 L1532.88 1256.03  Z
  " fill="#f0f8ff" fill-rule="evenodd" fill-opacity="1"/>
<polyline clip-path="url(#clip702)" style="stroke:#000000; stroke-width:4; stroke-opacity:1; fill:none" points="
  1532.88,1256.03 1778.66,1256.03 1778.66,1522.29 1532.88,1522.29 1532.88,1256.03 
  "/>
<path clip-path="url(#clip702)" d="
M1266.62 1522.29 L1532.88 1522.29 L1532.88 1768.07 L1266.62 1768.07 L1266.62 1522.29  Z
  " fill="#f0f8ff" fill-rule="evenodd" fill-opacity="1"/>
<polyline clip-path="url(#clip702)" style="stroke:#000000; stroke-width:4; stroke-opacity:1; fill:none" points="
  1266.62,1522.29 1532.88,1522.29 1532.88,1768.07 1266.62,1768.07 1266.62,1522.29 
  "/>
<path clip-path="url(#clip702)" d="
M1778.66 1768.07 L1922.03 1768.07 L1922.03 1911.44 L1778.66 1911.44 L1778.66 1768.07  Z
  " fill="#ff6347" fill-rule="evenodd" fill-opacity="1"/>
<polyline clip-path="url(#clip702)" style="stroke:#000000; stroke-width:4; stroke-opacity:1; fill:none" points="
  1778.66,1768.07 1922.03,1768.07 1922.03,1911.44 1778.66,1911.44 1778.66,1768.07 
  "/>
<path clip-path="url(#clip702)" d="
M1922.03 1911.44 L2044.92 1911.44 L2044.92 2034.33 L1922.03 2034.33 L1922.03 1911.44  Z
  " fill="#ff6347" fill-rule="evenodd" fill-opacity="1"/>
<polyline clip-path="url(#clip702)" style="stroke:#000000; stroke-width:4; stroke-opacity:1; fill:none" points="
  1922.03,1911.44 2044.92,1911.44 2044.92,2034.33 1922.03,2034.33 1922.03,1911.44 
  "/>
<path clip-path="url(#clip702)" d="
M1922.03 1768.07 L2044.92 1768.07 L2044.92 1911.44 L1922.03 1911.44 L1922.03 1768.07  Z
  " fill="#f0f8ff" fill-rule="evenodd" fill-opacity="1"/>
<polyline clip-path="url(#clip702)" style="stroke:#000000; stroke-width:4; stroke-opacity:1; fill:none" points="
  1922.03,1768.07 2044.92,1768.07 2044.92,1911.44 1922.03,1911.44 1922.03,1768.07 
  "/>
<path clip-path="url(#clip702)" d="
M1778.66 1911.44 L1922.03 1911.44 L1922.03 2034.33 L1778.66 2034.33 L1778.66 1911.44  Z
  " fill="#f0f8ff" fill-rule="evenodd" fill-opacity="1"/>
<polyline clip-path="url(#clip702)" style="stroke:#000000; stroke-width:4; stroke-opacity:1; fill:none" points="
  1778.66,1911.44 1922.03,1911.44 1922.03,2034.33 1778.66,2034.33 1778.66,1911.44 
  "/>
<path clip-path="url(#clip702)" d="
M2044.92 2034.33 L2167.81 2034.33 L2167.81 2157.22 L2044.92 2157.22 L2044.92 2034.33  Z
  " fill="#ff6347" fill-rule="evenodd" fill-opacity="1"/>
<polyline clip-path="url(#clip702)" style="stroke:#000000; stroke-width:4; stroke-opacity:1; fill:none" points="
  2044.92,2034.33 2167.81,2034.33 2167.81,2157.22 2044.92,2157.22 2044.92,2034.33 
  "/>
<path clip-path="url(#clip702)" d="
M2167.81 2157.22 L2290.7 2157.22 L2290.7 2280.11 L2167.81 2280.11 L2167.81 2157.22  Z
  " fill="#ff6347" fill-rule="evenodd" fill-opacity="1"/>
<polyline clip-path="url(#clip702)" style="stroke:#000000; stroke-width:4; stroke-opacity:1; fill:none" points="
  2167.81,2157.22 2290.7,2157.22 2290.7,2280.11 2167.81,2280.11 2167.81,2157.22 
  "/>
<path clip-path="url(#clip702)" d="
M2167.81 2034.33 L2290.7 2034.33 L2290.7 2157.22 L2167.81 2157.22 L2167.81 2034.33  Z
  " fill="#f0f8ff" fill-rule="evenodd" fill-opacity="1"/>
<polyline clip-path="url(#clip702)" style="stroke:#000000; stroke-width:4; stroke-opacity:1; fill:none" points="
  2167.81,2034.33 2290.7,2034.33 2290.7,2157.22 2167.81,2157.22 2167.81,2034.33 
  "/>
<path clip-path="url(#clip702)" d="
M2044.92 2157.22 L2167.81 2157.22 L2167.81 2280.11 L2044.92 2280.11 L2044.92 2157.22  Z
  " fill="#f0f8ff" fill-rule="evenodd" fill-opacity="1"/>
<polyline clip-path="url(#clip702)" style="stroke:#000000; stroke-width:4; stroke-opacity:1; fill:none" points="
  2044.92,2157.22 2167.81,2157.22 2167.81,2280.11 2044.92,2280.11 2044.92,2157.22 
  "/>
<path clip-path="url(#clip702)" d="
M2044.92 1768.07 L2290.7 1768.07 L2290.7 2034.33 L2044.92 2034.33 L2044.92 1768.07  Z
  " fill="#f0f8ff" fill-rule="evenodd" fill-opacity="1"/>
<polyline clip-path="url(#clip702)" style="stroke:#000000; stroke-width:4; stroke-opacity:1; fill:none" points="
  2044.92,1768.07 2290.7,1768.07 2290.7,2034.33 2044.92,2034.33 2044.92,1768.07 
  "/>
<path clip-path="url(#clip702)" d="
M1778.66 2034.33 L2044.92 2034.33 L2044.92 2280.11 L1778.66 2280.11 L1778.66 2034.33  Z
  " fill="#f0f8ff" fill-rule="evenodd" fill-opacity="1"/>
<polyline clip-path="url(#clip702)" style="stroke:#000000; stroke-width:4; stroke-opacity:1; fill:none" points="
  1778.66,2034.33 2044.92,2034.33 2044.92,2280.11 1778.66,2280.11 1778.66,2034.33 
  "/>
<path clip-path="url(#clip702)" d="
M1778.66 1256.03 L2290.7 1256.03 L2290.7 1768.07 L1778.66 1768.07 L1778.66 1256.03  Z
  " fill="#f0f8ff" fill-rule="evenodd" fill-opacity="1"/>
<polyline clip-path="url(#clip702)" style="stroke:#000000; stroke-width:4; stroke-opacity:1; fill:none" points="
  1778.66,1256.03 2290.7,1256.03 2290.7,1768.07 1778.66,1768.07 1778.66,1256.03 
  "/>
<path clip-path="url(#clip702)" d="
M1266.62 1768.07 L1778.66 1768.07 L1778.66 2280.11 L1266.62 2280.11 L1266.62 1768.07  Z
  " fill="#f0f8ff" fill-rule="evenodd" fill-opacity="1"/>
<polyline clip-path="url(#clip702)" style="stroke:#000000; stroke-width:4; stroke-opacity:1; fill:none" points="
  1266.62,1768.07 1778.66,1768.07 1778.66,2280.11 1266.62,2280.11 1266.62,1768.07 
  "/>
<path clip-path="url(#clip702)" d="
M1266.62 211.476 L2290.7 211.476 L2290.7 1256.03 L1266.62 1256.03 L1266.62 211.476  Z
  " fill="#f0f8ff" fill-rule="evenodd" fill-opacity="1"/>
<polyline clip-path="url(#clip702)" style="stroke:#000000; stroke-width:4; stroke-opacity:1; fill:none" points="
  1266.62,211.476 2290.7,211.476 2290.7,1256.03 1266.62,1256.03 1266.62,211.476 
  "/>
<path clip-path="url(#clip702)" d="
M222.06 1256.03 L1266.62 1256.03 L1266.62 2280.11 L222.06 2280.11 L222.06 1256.03  Z
  " fill="#f0f8ff" fill-rule="evenodd" fill-opacity="1"/>
<polyline clip-path="url(#clip702)" style="stroke:#000000; stroke-width:4; stroke-opacity:1; fill:none" points="
  222.06,1256.03 1266.62,1256.03 1266.62,2280.11 222.06,2280.11 222.06,1256.03 
  "/>
<path clip-path="url(#clip700)" d="M 0 0 M421.528 296.506 L437.848 296.506 L437.848 300.441 L415.903 300.441 L415.903 296.506 Q418.565 293.751 423.149 289.122 Q427.755 284.469 428.936 283.126 Q431.181 280.603 432.061 278.867 Q432.964 277.108 432.964 275.418 Q432.964 272.663 431.019 270.927 Q429.098 269.191 425.996 269.191 Q423.797 269.191 421.343 269.955 Q418.913 270.719 416.135 272.27 L416.135 267.548 Q418.959 266.413 421.413 265.835 Q423.866 265.256 425.903 265.256 Q431.274 265.256 434.468 267.941 Q437.663 270.626 437.663 275.117 Q437.663 277.247 436.852 279.168 Q436.065 281.066 433.959 283.659 Q433.38 284.33 430.278 287.548 Q427.177 290.742 421.528 296.506 Z" fill="#000000" fill-rule="evenodd" fill-opacity="1" /><path clip-path="url(#clip700)" d="M 0 0 M288.398 429.636 L304.718 429.636 L304.718 433.571 L282.773 433.571 L282.773 429.636 Q285.435 426.881 290.019 422.252 Q294.625 417.599 295.806 416.256 Q298.051 413.733 298.931 411.997 Q299.833 410.238 299.833 408.548 Q299.833 405.794 297.889 404.057 Q295.968 402.321 292.866 402.321 Q290.667 402.321 288.213 403.085 Q285.783 403.849 283.005 405.4 L283.005 400.678 Q285.829 399.544 288.283 398.965 Q290.736 398.386 292.773 398.386 Q298.144 398.386 301.338 401.071 Q304.533 403.757 304.533 408.247 Q304.533 410.377 303.722 412.298 Q302.935 414.196 300.829 416.789 Q300.25 417.46 297.148 420.678 Q294.046 423.872 288.398 429.636 Z" fill="#000000" fill-rule="evenodd" fill-opacity="1" /><path clip-path="url(#clip700)" d="M 0 0 M687.789 562.766 L704.108 562.766 L704.108 566.701 L682.164 566.701 L682.164 562.766 Q684.826 560.011 689.409 555.382 Q694.015 550.729 695.196 549.387 Q697.441 546.863 698.321 545.127 Q699.224 543.368 699.224 541.678 Q699.224 538.924 697.279 537.188 Q695.358 535.451 692.256 535.451 Q690.057 535.451 687.603 536.215 Q685.173 536.979 682.395 538.53 L682.395 533.808 Q685.219 532.674 687.673 532.095 Q690.127 531.516 692.164 531.516 Q697.534 531.516 700.728 534.201 Q703.923 536.887 703.923 541.377 Q703.923 543.507 703.113 545.428 Q702.326 547.326 700.219 549.919 Q699.64 550.59 696.539 553.808 Q693.437 557.002 687.789 562.766 Z" fill="#000000" fill-rule="evenodd" fill-opacity="1" /><path clip-path="url(#clip700)" d="M 0 0 M554.659 695.896 L570.978 695.896 L570.978 699.831 L549.034 699.831 L549.034 695.896 Q551.696 693.142 556.279 688.512 Q560.885 683.859 562.066 682.517 Q564.311 679.993 565.191 678.257 Q566.094 676.498 566.094 674.808 Q566.094 672.054 564.149 670.318 Q562.228 668.582 559.126 668.582 Q556.927 668.582 554.473 669.345 Q552.043 670.109 549.265 671.66 L549.265 666.938 Q552.089 665.804 554.543 665.225 Q556.996 664.646 559.033 664.646 Q564.404 664.646 567.598 667.332 Q570.793 670.017 570.793 674.507 Q570.793 676.637 569.982 678.558 Q569.195 680.456 567.089 683.049 Q566.51 683.72 563.408 686.938 Q560.307 690.132 554.659 695.896 Z" fill="#000000" fill-rule="evenodd" fill-opacity="1" /><path clip-path="url(#clip700)" d="M 0 0 M616.103 357.951 L632.423 357.951 L632.423 361.886 L610.478 361.886 L610.478 357.951 Q613.14 355.196 617.724 350.566 Q622.33 345.914 623.511 344.571 Q625.756 342.048 626.636 340.312 Q627.538 338.553 627.538 336.863 Q627.538 334.108 625.594 332.372 Q623.673 330.636 620.571 330.636 Q618.372 330.636 615.918 331.4 Q613.487 332.164 610.71 333.715 L610.71 328.992 Q613.534 327.858 615.987 327.279 Q618.441 326.701 620.478 326.701 Q625.848 326.701 629.043 329.386 Q632.237 332.071 632.237 336.562 Q632.237 338.691 631.427 340.613 Q630.64 342.511 628.534 345.103 Q627.955 345.775 624.853 348.992 Q621.751 352.187 616.103 357.951 Z" fill="#000000" fill-rule="evenodd" fill-opacity="1" /><path clip-path="url(#clip700)" d="M 0 0 M349.843 624.211 L366.162 624.211 L366.162 628.146 L344.218 628.146 L344.218 624.211 Q346.88 621.456 351.463 616.827 Q356.07 612.174 357.25 610.831 Q359.496 608.308 360.375 606.572 Q361.278 604.813 361.278 603.123 Q361.278 600.368 359.334 598.632 Q357.412 596.896 354.311 596.896 Q352.111 596.896 349.658 597.66 Q347.227 598.424 344.449 599.975 L344.449 595.253 Q347.274 594.118 349.727 593.54 Q352.181 592.961 354.218 592.961 Q359.588 592.961 362.783 595.646 Q365.977 598.331 365.977 602.822 Q365.977 604.952 365.167 606.873 Q364.38 608.771 362.273 611.364 Q361.695 612.035 358.593 615.252 Q355.491 618.447 349.843 624.211 Z" fill="#000000" fill-rule="evenodd" fill-opacity="1" /><path clip-path="url(#clip700)" d="M 0 0 M954.049 829.026 L970.368 829.026 L970.368 832.961 L948.424 832.961 L948.424 829.026 Q951.086 826.272 955.669 821.642 Q960.276 816.989 961.456 815.647 Q963.701 813.124 964.581 811.387 Q965.484 809.628 965.484 807.938 Q965.484 805.184 963.539 803.448 Q961.618 801.712 958.516 801.712 Q956.317 801.712 953.864 802.475 Q951.433 803.239 948.655 804.79 L948.655 800.068 Q951.479 798.934 953.933 798.355 Q956.387 797.776 958.424 797.776 Q963.794 797.776 966.989 800.462 Q970.183 803.147 970.183 807.637 Q970.183 809.767 969.373 811.688 Q968.586 813.587 966.479 816.179 Q965.901 816.85 962.799 820.068 Q959.697 823.262 954.049 829.026 Z" fill="#000000" fill-rule="evenodd" fill-opacity="1" /><path clip-path="url(#clip700)" d="M 0 0 M820.919 962.156 L837.238 962.156 L837.238 966.092 L815.294 966.092 L815.294 962.156 Q817.956 959.402 822.539 954.772 Q827.145 950.119 828.326 948.777 Q830.571 946.254 831.451 944.518 Q832.354 942.758 832.354 941.069 Q832.354 938.314 830.409 936.578 Q828.488 934.842 825.386 934.842 Q823.187 934.842 820.733 935.606 Q818.303 936.369 815.525 937.92 L815.525 933.198 Q818.349 932.064 820.803 931.485 Q823.257 930.907 825.294 930.907 Q830.664 930.907 833.858 933.592 Q837.053 936.277 837.053 940.768 Q837.053 942.897 836.243 944.818 Q835.456 946.717 833.349 949.309 Q832.77 949.98 829.669 953.198 Q826.567 956.392 820.919 962.156 Z" fill="#000000" fill-rule="evenodd" fill-opacity="1" /><path clip-path="url(#clip700)" d="M 0 0 M1199.83 1085.05 L1216.15 1085.05 L1216.15 1088.98 L1194.2 1088.98 L1194.2 1085.05 Q1196.86 1082.29 1201.45 1077.66 Q1206.05 1073.01 1207.23 1071.67 Q1209.48 1069.14 1210.36 1067.41 Q1211.26 1065.65 1211.26 1063.96 Q1211.26 1061.2 1209.32 1059.47 Q1207.4 1057.73 1204.29 1057.73 Q1202.1 1057.73 1199.64 1058.49 Q1197.21 1059.26 1194.43 1060.81 L1194.43 1056.09 Q1197.26 1054.95 1199.71 1054.37 Q1202.17 1053.8 1204.2 1053.8 Q1209.57 1053.8 1212.77 1056.48 Q1215.96 1059.17 1215.96 1063.66 Q1215.96 1065.79 1215.15 1067.71 Q1214.36 1069.61 1212.26 1072.2 Q1211.68 1072.87 1208.58 1076.09 Q1205.48 1079.28 1199.83 1085.05 Z" fill="#000000" fill-rule="evenodd" fill-opacity="1" /><path clip-path="url(#clip700)" d="M 0 0 M1076.94 1207.93 L1093.26 1207.93 L1093.26 1211.87 L1071.31 1211.87 L1071.31 1207.93 Q1073.98 1205.18 1078.56 1200.55 Q1083.16 1195.9 1084.35 1194.56 Q1086.59 1192.03 1087.47 1190.3 Q1088.37 1188.54 1088.37 1186.85 Q1088.37 1184.09 1086.43 1182.36 Q1084.51 1180.62 1081.41 1180.62 Q1079.21 1180.62 1076.75 1181.38 Q1074.32 1182.15 1071.54 1183.7 L1071.54 1178.98 Q1074.37 1177.84 1076.82 1177.26 Q1079.28 1176.69 1081.31 1176.69 Q1086.68 1176.69 1089.88 1179.37 Q1093.07 1182.06 1093.07 1186.55 Q1093.07 1188.68 1092.26 1190.6 Q1091.48 1192.5 1089.37 1195.09 Q1088.79 1195.76 1085.69 1198.98 Q1082.59 1202.17 1076.94 1207.93 Z" fill="#000000" fill-rule="evenodd" fill-opacity="1" /><path clip-path="url(#clip700)" d="M 0 0 M1138.38 890.471 L1154.7 890.471 L1154.7 894.406 L1132.76 894.406 L1132.76 890.471 Q1135.42 887.716 1140 883.087 Q1144.61 878.434 1145.79 877.091 Q1148.04 874.568 1148.92 872.832 Q1149.82 871.073 1149.82 869.383 Q1149.82 866.628 1147.87 864.892 Q1145.95 863.156 1142.85 863.156 Q1140.65 863.156 1138.2 863.92 Q1135.77 864.684 1132.99 866.235 L1132.99 861.513 Q1135.81 860.378 1138.27 859.8 Q1140.72 859.221 1142.76 859.221 Q1148.13 859.221 1151.32 861.906 Q1154.52 864.591 1154.52 869.082 Q1154.52 871.212 1153.71 873.133 Q1152.92 875.031 1150.81 877.624 Q1150.23 878.295 1147.13 881.513 Q1144.03 884.707 1138.38 890.471 Z" fill="#000000" fill-rule="evenodd" fill-opacity="1" /><path clip-path="url(#clip700)" d="M 0 0 M882.363 1146.49 L898.683 1146.49 L898.683 1150.43 L876.738 1150.43 L876.738 1146.49 Q879.4 1143.74 883.984 1139.11 Q888.59 1134.45 889.771 1133.11 Q892.016 1130.59 892.896 1128.85 Q893.798 1127.09 893.798 1125.4 Q893.798 1122.65 891.854 1120.91 Q889.933 1119.18 886.831 1119.18 Q884.632 1119.18 882.178 1119.94 Q879.748 1120.7 876.97 1122.25 L876.97 1117.53 Q879.794 1116.4 882.248 1115.82 Q884.701 1115.24 886.738 1115.24 Q892.109 1115.24 895.303 1117.93 Q898.498 1120.61 898.498 1125.1 Q898.498 1127.23 897.687 1129.15 Q896.9 1131.05 894.794 1133.64 Q894.215 1134.31 891.113 1137.53 Q888.011 1140.73 882.363 1146.49 Z" fill="#000000" fill-rule="evenodd" fill-opacity="1" /><path clip-path="url(#clip700)" d="M 0 0 M1005.25 491.081 L1021.57 491.081 L1021.57 495.016 L999.628 495.016 L999.628 491.081 Q1002.29 488.326 1006.87 483.696 Q1011.48 479.044 1012.66 477.701 Q1014.91 475.178 1015.78 473.442 Q1016.69 471.683 1016.69 469.993 Q1016.69 467.238 1014.74 465.502 Q1012.82 463.766 1009.72 463.766 Q1007.52 463.766 1005.07 464.53 Q1002.64 465.294 999.859 466.845 L999.859 462.122 Q1002.68 460.988 1005.14 460.41 Q1007.59 459.831 1009.63 459.831 Q1015 459.831 1018.19 462.516 Q1021.39 465.201 1021.39 469.692 Q1021.39 471.822 1020.58 473.743 Q1019.79 475.641 1017.68 478.234 Q1017.1 478.905 1014 482.122 Q1010.9 485.317 1005.25 491.081 Z" fill="#000000" fill-rule="evenodd" fill-opacity="1" /><path clip-path="url(#clip700)" d="M 0 0 M482.973 1013.36 L499.292 1013.36 L499.292 1017.3 L477.348 1017.3 L477.348 1013.36 Q480.01 1010.61 484.593 1005.98 Q489.2 1001.32 490.38 999.981 Q492.626 997.458 493.505 995.721 Q494.408 993.962 494.408 992.272 Q494.408 989.518 492.464 987.782 Q490.542 986.046 487.441 986.046 Q485.242 986.046 482.788 986.809 Q480.357 987.573 477.58 989.124 L477.58 984.402 Q480.404 983.268 482.857 982.689 Q485.311 982.11 487.348 982.11 Q492.718 982.11 495.913 984.796 Q499.107 987.481 499.107 991.971 Q499.107 994.101 498.297 996.022 Q497.51 997.921 495.404 1000.51 Q494.825 1001.18 491.723 1004.4 Q488.621 1007.6 482.973 1013.36 Z" fill="#000000" fill-rule="evenodd" fill-opacity="1" /><path clip-path="url(#clip700)" d="M 0 0 M1466.09 1341.07 L1482.41 1341.07 L1482.41 1345 L1460.46 1345 L1460.46 1341.07 Q1463.12 1338.31 1467.71 1333.68 Q1472.31 1329.03 1473.49 1327.69 Q1475.74 1325.16 1476.62 1323.43 Q1477.52 1321.67 1477.52 1319.98 Q1477.52 1317.22 1475.58 1315.49 Q1473.66 1313.75 1470.56 1313.75 Q1468.36 1313.75 1465.9 1314.51 Q1463.47 1315.28 1460.69 1316.83 L1460.69 1312.11 Q1463.52 1310.97 1465.97 1310.39 Q1468.43 1309.82 1470.46 1309.82 Q1475.83 1309.82 1479.03 1312.5 Q1482.22 1315.19 1482.22 1319.68 Q1482.22 1321.81 1481.41 1323.73 Q1480.62 1325.63 1478.52 1328.22 Q1477.94 1328.89 1474.84 1332.11 Q1471.74 1335.3 1466.09 1341.07 Z" fill="#000000" fill-rule="evenodd" fill-opacity="1" /><path clip-path="url(#clip700)" d="M 0 0 M1332.96 1474.2 L1349.28 1474.2 L1349.28 1478.13 L1327.33 1478.13 L1327.33 1474.2 Q1329.99 1471.44 1334.58 1466.81 Q1339.18 1462.16 1340.36 1460.82 Q1342.61 1458.29 1343.49 1456.56 Q1344.39 1454.8 1344.39 1453.11 Q1344.39 1450.35 1342.45 1448.62 Q1340.53 1446.88 1337.43 1446.88 Q1335.23 1446.88 1332.77 1447.64 Q1330.34 1448.41 1327.56 1449.96 L1327.56 1445.24 Q1330.39 1444.1 1332.84 1443.52 Q1335.3 1442.95 1337.33 1442.95 Q1342.7 1442.95 1345.9 1445.63 Q1349.09 1448.32 1349.09 1452.81 Q1349.09 1454.94 1348.28 1456.86 Q1347.49 1458.76 1345.39 1461.35 Q1344.81 1462.02 1341.71 1465.24 Q1338.61 1468.43 1332.96 1474.2 Z" fill="#000000" fill-rule="evenodd" fill-opacity="1" /><path clip-path="url(#clip700)" d="M 0 0 M1711.87 1597.08 L1728.19 1597.08 L1728.19 1601.02 L1706.24 1601.02 L1706.24 1597.08 Q1708.9 1594.33 1713.49 1589.7 Q1718.09 1585.05 1719.27 1583.7 Q1721.52 1581.18 1722.4 1579.45 Q1723.3 1577.69 1723.3 1576 Q1723.3 1573.24 1721.36 1571.51 Q1719.44 1569.77 1716.33 1569.77 Q1714.13 1569.77 1711.68 1570.53 Q1709.25 1571.3 1706.47 1572.85 L1706.47 1568.13 Q1709.3 1566.99 1711.75 1566.41 Q1714.2 1565.83 1716.24 1565.83 Q1721.61 1565.83 1724.81 1568.52 Q1728 1571.2 1728 1575.7 Q1728 1577.83 1727.19 1579.75 Q1726.4 1581.64 1724.3 1584.24 Q1723.72 1584.91 1720.62 1588.13 Q1717.51 1591.32 1711.87 1597.08 Z" fill="#000000" fill-rule="evenodd" fill-opacity="1" /><path clip-path="url(#clip700)" d="M 0 0 M1588.98 1719.97 L1605.3 1719.97 L1605.3 1723.91 L1583.35 1723.91 L1583.35 1719.97 Q1586.01 1717.22 1590.6 1712.59 Q1595.2 1707.94 1596.38 1706.59 Q1598.63 1704.07 1599.51 1702.33 Q1600.41 1700.58 1600.41 1698.89 Q1600.41 1696.13 1598.47 1694.4 Q1596.55 1692.66 1593.44 1692.66 Q1591.25 1692.66 1588.79 1693.42 Q1586.36 1694.19 1583.58 1695.74 L1583.58 1691.02 Q1586.41 1689.88 1588.86 1689.3 Q1591.31 1688.72 1593.35 1688.72 Q1598.72 1688.72 1601.92 1691.41 Q1605.11 1694.09 1605.11 1698.58 Q1605.11 1700.71 1604.3 1702.64 Q1603.51 1704.53 1601.41 1707.13 Q1600.83 1707.8 1597.73 1711.02 Q1594.62 1714.21 1588.98 1719.97 Z" fill="#000000" fill-rule="evenodd" fill-opacity="1" /><path clip-path="url(#clip700)" d="M 0 0 M1650.42 1402.51 L1666.74 1402.51 L1666.74 1406.44 L1644.8 1406.44 L1644.8 1402.51 Q1647.46 1399.76 1652.04 1395.13 Q1656.65 1390.47 1657.83 1389.13 Q1660.07 1386.61 1660.95 1384.87 Q1661.86 1383.11 1661.86 1381.42 Q1661.86 1378.67 1659.91 1376.93 Q1657.99 1375.2 1654.89 1375.2 Q1652.69 1375.2 1650.24 1375.96 Q1647.81 1376.72 1645.03 1378.27 L1645.03 1373.55 Q1647.85 1372.42 1650.31 1371.84 Q1652.76 1371.26 1654.8 1371.26 Q1660.17 1371.26 1663.36 1373.95 Q1666.56 1376.63 1666.56 1381.12 Q1666.56 1383.25 1665.75 1385.17 Q1664.96 1387.07 1662.85 1389.66 Q1662.27 1390.33 1659.17 1393.55 Q1656.07 1396.75 1650.42 1402.51 Z" fill="#000000" fill-rule="evenodd" fill-opacity="1" /><path clip-path="url(#clip700)" d="M 0 0 M1394.4 1658.53 L1410.72 1658.53 L1410.72 1662.46 L1388.78 1662.46 L1388.78 1658.53 Q1391.44 1655.77 1396.02 1651.14 Q1400.63 1646.49 1401.81 1645.15 Q1404.05 1642.63 1404.93 1640.89 Q1405.84 1639.13 1405.84 1637.44 Q1405.84 1634.69 1403.89 1632.95 Q1401.97 1631.21 1398.87 1631.21 Q1396.67 1631.21 1394.22 1631.98 Q1391.79 1632.74 1389.01 1634.29 L1389.01 1629.57 Q1391.83 1628.44 1394.29 1627.86 Q1396.74 1627.28 1398.78 1627.28 Q1404.15 1627.28 1407.34 1629.96 Q1410.54 1632.65 1410.54 1637.14 Q1410.54 1639.27 1409.73 1641.19 Q1408.94 1643.09 1406.83 1645.68 Q1406.25 1646.35 1403.15 1649.57 Q1400.05 1652.77 1394.4 1658.53 Z" fill="#000000" fill-rule="evenodd" fill-opacity="1" /><path clip-path="url(#clip700)" d="M 0 0 M1978.13 1853.1 L1994.45 1853.1 L1994.45 1857.04 L1972.5 1857.04 L1972.5 1853.1 Q1975.16 1850.35 1979.75 1845.72 Q1984.35 1841.07 1985.53 1839.72 Q1987.78 1837.2 1988.66 1835.47 Q1989.56 1833.71 1989.56 1832.02 Q1989.56 1829.26 1987.62 1827.53 Q1985.7 1825.79 1982.59 1825.79 Q1980.39 1825.79 1977.94 1826.55 Q1975.51 1827.32 1972.73 1828.87 L1972.73 1824.15 Q1975.56 1823.01 1978.01 1822.43 Q1980.46 1821.85 1982.5 1821.85 Q1987.87 1821.85 1991.07 1824.54 Q1994.26 1827.22 1994.26 1831.72 Q1994.26 1833.84 1993.45 1835.77 Q1992.66 1837.66 1990.56 1840.26 Q1989.98 1840.93 1986.88 1844.15 Q1983.77 1847.34 1978.13 1853.1 Z" fill="#000000" fill-rule="evenodd" fill-opacity="1" /><path clip-path="url(#clip700)" d="M 0 0 M1845 1986.23 L1861.32 1986.23 L1861.32 1990.17 L1839.37 1990.17 L1839.37 1986.23 Q1842.03 1983.48 1846.62 1978.85 Q1851.22 1974.2 1852.4 1972.85 Q1854.65 1970.33 1855.53 1968.6 Q1856.43 1966.84 1856.43 1965.15 Q1856.43 1962.39 1854.49 1960.66 Q1852.57 1958.92 1849.46 1958.92 Q1847.26 1958.92 1844.81 1959.68 Q1842.38 1960.45 1839.6 1962 L1839.6 1957.28 Q1842.43 1956.14 1844.88 1955.56 Q1847.33 1954.98 1849.37 1954.98 Q1854.74 1954.98 1857.94 1957.67 Q1861.13 1960.35 1861.13 1964.85 Q1861.13 1966.97 1860.32 1968.9 Q1859.53 1970.79 1857.43 1973.39 Q1856.85 1974.06 1853.75 1977.28 Q1850.64 1980.47 1845 1986.23 Z" fill="#000000" fill-rule="evenodd" fill-opacity="1" /><path clip-path="url(#clip700)" d="M 0 0 M2223.9 2109.12 L2240.22 2109.12 L2240.22 2113.06 L2218.28 2113.06 L2218.28 2109.12 Q2220.94 2106.37 2225.53 2101.74 Q2230.13 2097.09 2231.31 2095.74 Q2233.56 2093.22 2234.44 2091.48 Q2235.34 2089.73 2235.34 2088.04 Q2235.34 2085.28 2233.4 2083.54 Q2231.47 2081.81 2228.37 2081.81 Q2226.17 2081.81 2223.72 2082.57 Q2221.29 2083.34 2218.51 2084.89 L2218.51 2080.17 Q2221.34 2079.03 2223.79 2078.45 Q2226.24 2077.87 2228.28 2077.87 Q2233.65 2077.87 2236.84 2080.56 Q2240.04 2083.24 2240.04 2087.73 Q2240.04 2089.86 2239.23 2091.79 Q2238.44 2093.68 2236.34 2096.28 Q2235.76 2096.95 2232.65 2100.16 Q2229.55 2103.36 2223.9 2109.12 Z" fill="#000000" fill-rule="evenodd" fill-opacity="1" /><path clip-path="url(#clip700)" d="M 0 0 M2101.02 2232.01 L2117.34 2232.01 L2117.34 2235.95 L2095.39 2235.95 L2095.39 2232.01 Q2098.05 2229.26 2102.64 2224.63 Q2107.24 2219.98 2108.42 2218.63 Q2110.67 2216.11 2111.55 2214.37 Q2112.45 2212.61 2112.45 2210.92 Q2112.45 2208.17 2110.51 2206.43 Q2108.59 2204.7 2105.48 2204.7 Q2103.28 2204.7 2100.83 2205.46 Q2098.4 2206.23 2095.62 2207.78 L2095.62 2203.05 Q2098.45 2201.92 2100.9 2201.34 Q2103.35 2200.76 2105.39 2200.76 Q2110.76 2200.76 2113.96 2203.45 Q2117.15 2206.13 2117.15 2210.62 Q2117.15 2212.75 2116.34 2214.67 Q2115.55 2216.57 2113.45 2219.17 Q2112.87 2219.84 2109.77 2223.05 Q2106.66 2226.25 2101.02 2232.01 Z" fill="#000000" fill-rule="evenodd" fill-opacity="1" /><path clip-path="url(#clip700)" d="M 0 0 M2162.46 1914.55 L2178.78 1914.55 L2178.78 1918.48 L2156.84 1918.48 L2156.84 1914.55 Q2159.5 1911.79 2164.08 1907.16 Q2168.69 1902.51 2169.87 1901.17 Q2172.11 1898.65 2172.99 1896.91 Q2173.9 1895.15 2173.9 1893.46 Q2173.9 1890.71 2171.95 1888.97 Q2170.03 1887.23 2166.93 1887.23 Q2164.73 1887.23 2162.28 1888 Q2159.84 1888.76 2157.07 1890.31 L2157.07 1885.59 Q2159.89 1884.46 2162.34 1883.88 Q2164.8 1883.3 2166.84 1883.3 Q2172.21 1883.3 2175.4 1885.98 Q2178.59 1888.67 2178.59 1893.16 Q2178.59 1895.29 2177.78 1897.21 Q2177 1899.11 2174.89 1901.7 Q2174.31 1902.37 2171.21 1905.59 Q2168.11 1908.78 2162.46 1914.55 Z" fill="#000000" fill-rule="evenodd" fill-opacity="1" /><path clip-path="url(#clip700)" d="M 0 0 M1906.44 2170.57 L1922.76 2170.57 L1922.76 2174.5 L1900.82 2174.5 L1900.82 2170.57 Q1903.48 2167.81 1908.06 2163.18 Q1912.67 2158.53 1913.85 2157.19 Q1916.09 2154.67 1916.97 2152.93 Q1917.88 2151.17 1917.88 2149.48 Q1917.88 2146.73 1915.93 2144.99 Q1914.01 2143.25 1910.91 2143.25 Q1908.71 2143.25 1906.26 2144.02 Q1903.83 2144.78 1901.05 2146.33 L1901.05 2141.61 Q1903.87 2140.48 1906.33 2139.9 Q1908.78 2139.32 1910.82 2139.32 Q1916.19 2139.32 1919.38 2142 Q1922.58 2144.69 1922.58 2149.18 Q1922.58 2151.31 1921.76 2153.23 Q1920.98 2155.13 1918.87 2157.72 Q1918.29 2158.39 1915.19 2161.61 Q1912.09 2164.8 1906.44 2170.57 Z" fill="#000000" fill-rule="evenodd" fill-opacity="1" /><path clip-path="url(#clip700)" d="M 0 0 M2029.33 1525.4 L2045.65 1525.4 L2045.65 1529.33 L2023.71 1529.33 L2023.71 1525.4 Q2026.37 1522.64 2030.95 1518.01 Q2035.56 1513.36 2036.74 1512.02 Q2038.98 1509.5 2039.86 1507.76 Q2040.77 1506 2040.77 1504.31 Q2040.77 1501.56 2038.82 1499.82 Q2036.9 1498.08 2033.8 1498.08 Q2031.6 1498.08 2029.15 1498.85 Q2026.71 1499.61 2023.94 1501.16 L2023.94 1496.44 Q2026.76 1495.31 2029.21 1494.73 Q2031.67 1494.15 2033.71 1494.15 Q2039.08 1494.15 2042.27 1496.83 Q2045.46 1499.52 2045.46 1504.01 Q2045.46 1506.14 2044.65 1508.06 Q2043.87 1509.96 2041.76 1512.55 Q2041.18 1513.22 2038.08 1516.44 Q2034.98 1519.64 2029.33 1525.4 Z" fill="#000000" fill-rule="evenodd" fill-opacity="1" /><path clip-path="url(#clip700)" d="M 0 0 M1517.29 2037.44 L1533.61 2037.44 L1533.61 2041.37 L1511.67 2041.37 L1511.67 2037.44 Q1514.33 2034.68 1518.91 2030.05 Q1523.52 2025.4 1524.7 2024.06 Q1526.94 2021.54 1527.82 2019.8 Q1528.73 2018.04 1528.73 2016.35 Q1528.73 2013.6 1526.78 2011.86 Q1524.86 2010.12 1521.76 2010.12 Q1519.56 2010.12 1517.11 2010.89 Q1514.68 2011.65 1511.9 2013.2 L1511.9 2008.48 Q1514.72 2007.35 1517.18 2006.77 Q1519.63 2006.19 1521.67 2006.19 Q1527.04 2006.19 1530.23 2008.87 Q1533.43 2011.56 1533.43 2016.05 Q1533.43 2018.18 1532.62 2020.1 Q1531.83 2022 1529.72 2024.59 Q1529.14 2025.26 1526.04 2028.48 Q1522.94 2031.67 1517.29 2037.44 Z" fill="#000000" fill-rule="evenodd" fill-opacity="1" /><path clip-path="url(#clip700)" d="M 0 0 M1773.31 747.1 L1789.63 747.1 L1789.63 751.035 L1767.69 751.035 L1767.69 747.1 Q1770.35 744.345 1774.93 739.716 Q1779.54 735.063 1780.72 733.721 Q1782.96 731.197 1783.84 729.461 Q1784.75 727.702 1784.75 726.012 Q1784.75 723.258 1782.8 721.521 Q1780.88 719.785 1777.78 719.785 Q1775.58 719.785 1773.13 720.549 Q1770.7 721.313 1767.92 722.864 L1767.92 718.142 Q1770.74 717.008 1773.2 716.429 Q1775.65 715.85 1777.69 715.85 Q1783.06 715.85 1786.25 718.535 Q1789.44 721.221 1789.44 725.711 Q1789.44 727.841 1788.63 729.762 Q1787.85 731.66 1785.74 734.253 Q1785.16 734.924 1782.06 738.142 Q1778.96 741.336 1773.31 747.1 Z" fill="#000000" fill-rule="evenodd" fill-opacity="1" /><path clip-path="url(#clip700)" d="M 0 0 M738.992 1781.42 L755.312 1781.42 L755.312 1785.35 L733.367 1785.35 L733.367 1781.42 Q736.03 1778.66 740.613 1774.03 Q745.219 1769.38 746.4 1768.04 Q748.645 1765.52 749.525 1763.78 Q750.428 1762.02 750.428 1760.33 Q750.428 1757.58 748.483 1755.84 Q746.562 1754.1 743.46 1754.1 Q741.261 1754.1 738.807 1754.87 Q736.377 1755.63 733.599 1757.18 L733.599 1752.46 Q736.423 1751.33 738.877 1750.75 Q741.33 1750.17 743.367 1750.17 Q748.738 1750.17 751.932 1752.85 Q755.127 1755.54 755.127 1760.03 Q755.127 1762.16 754.316 1764.08 Q753.529 1765.98 751.423 1768.57 Q750.844 1769.24 747.742 1772.46 Q744.641 1775.65 738.992 1781.42 Z" fill="#000000" fill-rule="evenodd" fill-opacity="1" /></svg>
