<?xml version="1.0" encoding="utf-8"?>
<svg xmlns="http://www.w3.org/2000/svg" xmlns:xlink="http://www.w3.org/1999/xlink" width="400" height="400" viewBox="0 0 1600 1600">
<defs>
  <clipPath id="clip140">
    <rect x="0" y="0" width="1600" height="1600"/>
  </clipPath>
</defs>
<path clip-path="url(#clip140)" d="
M0 1600 L1600 1600 L1600 0 L0 0  Z
  " fill="#ffffff" fill-rule="evenodd" fill-opacity="1"/>
<defs>
  <clipPath id="clip141">
    <rect x="320" y="160" width="1121" height="1121"/>
  </clipPath>
</defs>
<path clip-path="url(#clip140)" d="
M152.001 1552.76 L1552.76 1552.76 L1552.76 130.832 L152.001 130.832  Z
  " fill="#ffffff" fill-rule="evenodd" fill-opacity="1"/>
<defs>
  <clipPath id="clip142">
    <rect x="152" y="130" width="1402" height="1423"/>
  </clipPath>
</defs>
<polyline clip-path="url(#clip142)" style="stroke:#000000; stroke-width:2; stroke-opacity:0.1; fill:none" points="
  191.645,130.832 191.645,1552.76 
  "/>
<polyline clip-path="url(#clip142)" style="stroke:#000000; stroke-width:2; stroke-opacity:0.1; fill:none" points="
  283.232,130.832 283.232,1552.76 
  "/>
<polyline clip-path="url(#clip142)" style="stroke:#000000; stroke-width:2; stroke-opacity:0.1; fill:none" points="
  361.735,130.832 361.735,1552.76 
  "/>
<polyline clip-path="url(#clip142)" style="stroke:#000000; stroke-width:2; stroke-opacity:0.1; fill:none" points="
  453.322,130.832 453.322,1552.76 
  "/>
<polyline clip-path="url(#clip142)" style="stroke:#000000; stroke-width:2; stroke-opacity:0.1; fill:none" points="
  531.825,130.832 531.825,1552.76 
  "/>
<polyline clip-path="url(#clip142)" style="stroke:#000000; stroke-width:2; stroke-opacity:0.1; fill:none" points="
  623.411,130.832 623.411,1552.76 
  "/>
<polyline clip-path="url(#clip142)" style="stroke:#000000; stroke-width:2; stroke-opacity:0.1; fill:none" points="
  701.914,130.832 701.914,1552.76 
  "/>
<polyline clip-path="url(#clip142)" style="stroke:#000000; stroke-width:2; stroke-opacity:0.1; fill:none" points="
  780.417,130.832 780.417,1552.76 
  "/>
<polyline clip-path="url(#clip142)" style="stroke:#000000; stroke-width:2; stroke-opacity:0.1; fill:none" points="
  858.92,130.832 858.92,1552.76 
  "/>
<polyline clip-path="url(#clip142)" style="stroke:#000000; stroke-width:2; stroke-opacity:0.1; fill:none" points="
  950.507,130.832 950.507,1552.76 
  "/>
<polyline clip-path="url(#clip142)" style="stroke:#000000; stroke-width:2; stroke-opacity:0.1; fill:none" points="
  1029.01,130.832 1029.01,1552.76 
  "/>
<polyline clip-path="url(#clip142)" style="stroke:#000000; stroke-width:2; stroke-opacity:0.1; fill:none" points="
  1107.51,130.832 1107.51,1552.76 
  "/>
<polyline clip-path="url(#clip142)" style="stroke:#000000; stroke-width:2; stroke-opacity:0.1; fill:none" points="
  1186.02,130.832 1186.02,1552.76 
  "/>
<polyline clip-path="url(#clip142)" style="stroke:#000000; stroke-width:2; stroke-opacity:0.1; fill:none" points="
  1277.6,130.832 1277.6,1552.76 
  "/>
<polyline clip-path="url(#clip142)" style="stroke:#000000; stroke-width:2; stroke-opacity:0.1; fill:none" points="
  1356.11,130.832 1356.11,1552.76 
  "/>
<polyline clip-path="url(#clip142)" style="stroke:#000000; stroke-width:2; stroke-opacity:0.1; fill:none" points="
  1434.61,130.832 1434.61,1552.76 
  "/>
<polyline clip-path="url(#clip142)" style="stroke:#000000; stroke-width:2; stroke-opacity:0.1; fill:none" points="
  1513.11,130.832 1513.11,1552.76 
  "/>
<path clip-path="url(#clip140)" d="M 0 0 M182.027 103.729 L189.666 103.729 L189.666 77.3634 L181.356 79.03 L181.356 74.7708 L189.62 73.1041 L194.295 73.1041 L194.295 103.729 L201.934 103.729 L201.934 107.664 L182.027 107.664 L182.027 103.729 Z" fill="#000000" fill-rule="evenodd" fill-opacity="1" /><path clip-path="url(#clip140)" d="M 0 0 M283.232 91.2522 Q279.899 91.2522 277.977 93.0346 Q276.079 94.817 276.079 97.942 Q276.079 101.067 277.977 102.849 Q279.899 104.632 283.232 104.632 Q286.565 104.632 288.486 102.849 Q290.408 101.044 290.408 97.942 Q290.408 94.817 288.486 93.0346 Q286.588 91.2522 283.232 91.2522 M278.556 89.2614 Q275.547 88.5207 273.857 86.4605 Q272.19 84.4004 272.19 81.4374 Q272.19 77.2939 275.13 74.8865 Q278.093 72.4791 283.232 72.4791 Q288.394 72.4791 291.334 74.8865 Q294.273 77.2939 294.273 81.4374 Q294.273 84.4004 292.584 86.4605 Q290.917 88.5207 287.931 89.2614 Q291.31 90.0485 293.185 92.3401 Q295.084 94.6318 295.084 97.942 Q295.084 102.965 292.005 105.65 Q288.949 108.335 283.232 108.335 Q277.514 108.335 274.436 105.65 Q271.38 102.965 271.38 97.942 Q271.38 94.6318 273.278 92.3401 Q275.176 90.0485 278.556 89.2614 M276.843 81.8772 Q276.843 84.5624 278.51 86.067 Q280.199 87.5716 283.232 87.5716 Q286.241 87.5716 287.931 86.067 Q289.644 84.5624 289.644 81.8772 Q289.644 79.1921 287.931 77.6874 Q286.241 76.1828 283.232 76.1828 Q280.199 76.1828 278.51 77.6874 Q276.843 79.1921 276.843 81.8772 Z" fill="#000000" fill-rule="evenodd" fill-opacity="1" /><path clip-path="url(#clip140)" d="M 0 0 M338.367 103.729 L346.006 103.729 L346.006 77.3634 L337.696 79.03 L337.696 74.7708 L345.959 73.1041 L350.635 73.1041 L350.635 103.729 L358.274 103.729 L358.274 107.664 L338.367 107.664 L338.367 103.729 Z" fill="#000000" fill-rule="evenodd" fill-opacity="1" /><path clip-path="url(#clip140)" d="M 0 0 M376.191 77.1782 L364.385 95.6272 L376.191 95.6272 L376.191 77.1782 M374.964 73.1041 L380.843 73.1041 L380.843 95.6272 L385.774 95.6272 L385.774 99.516 L380.843 99.516 L380.843 107.664 L376.191 107.664 L376.191 99.516 L360.589 99.516 L360.589 95.0022 L374.964 73.1041 Z" fill="#000000" fill-rule="evenodd" fill-opacity="1" /><path clip-path="url(#clip140)" d="M 0 0 M435.081 103.729 L451.4 103.729 L451.4 107.664 L429.456 107.664 L429.456 103.729 Q432.118 100.974 436.701 96.3447 Q441.308 91.692 442.488 90.3494 Q444.734 87.8263 445.613 86.0902 Q446.516 84.3309 446.516 82.6411 Q446.516 79.8865 444.572 78.1504 Q442.65 76.4143 439.549 76.4143 Q437.349 76.4143 434.896 77.1782 Q432.465 77.9421 429.687 79.493 L429.687 74.7708 Q432.512 73.6365 434.965 73.0578 Q437.419 72.4791 439.456 72.4791 Q444.826 72.4791 448.021 75.1643 Q451.215 77.8495 451.215 82.3402 Q451.215 84.4698 450.405 86.3911 Q449.618 88.2892 447.511 90.8818 Q446.933 91.5531 443.831 94.7707 Q440.729 97.9651 435.081 103.729 Z" fill="#000000" fill-rule="evenodd" fill-opacity="1" /><path clip-path="url(#clip140)" d="M 0 0 M457.28 103.729 L464.919 103.729 L464.919 77.3634 L456.609 79.03 L456.609 74.7708 L464.872 73.1041 L469.548 73.1041 L469.548 103.729 L477.187 103.729 L477.187 107.664 L457.28 107.664 L457.28 103.729 Z" fill="#000000" fill-rule="evenodd" fill-opacity="1" /><path clip-path="url(#clip140)" d="M 0 0 M513.422 103.729 L529.741 103.729 L529.741 107.664 L507.797 107.664 L507.797 103.729 Q510.459 100.974 515.042 96.3447 Q519.649 91.692 520.829 90.3494 Q523.075 87.8263 523.954 86.0902 Q524.857 84.3309 524.857 82.6411 Q524.857 79.8865 522.913 78.1504 Q520.991 76.4143 517.889 76.4143 Q515.69 76.4143 513.237 77.1782 Q510.806 77.9421 508.028 79.493 L508.028 74.7708 Q510.852 73.6365 513.306 73.0578 Q515.76 72.4791 517.797 72.4791 Q523.167 72.4791 526.362 75.1643 Q529.556 77.8495 529.556 82.3402 Q529.556 84.4698 528.746 86.3911 Q527.959 88.2892 525.852 90.8818 Q525.274 91.5531 522.172 94.7707 Q519.07 97.9651 513.422 103.729 Z" fill="#000000" fill-rule="evenodd" fill-opacity="1" /><path clip-path="url(#clip140)" d="M 0 0 M533.63 73.1041 L555.852 73.1041 L555.852 75.0949 L543.306 107.664 L538.422 107.664 L550.227 77.0393 L533.63 77.0393 L533.63 73.1041 Z" fill="#000000" fill-rule="evenodd" fill-opacity="1" /><path clip-path="url(#clip140)" d="M 0 0 M613.909 89.03 Q617.266 89.7476 619.141 92.0161 Q621.039 94.2846 621.039 97.6179 Q621.039 102.734 617.52 105.535 Q614.002 108.335 607.52 108.335 Q605.344 108.335 603.03 107.896 Q600.738 107.479 598.284 106.622 L598.284 102.109 Q600.229 103.243 602.543 103.822 Q604.858 104.4 607.381 104.4 Q611.78 104.4 614.071 102.664 Q616.386 100.928 616.386 97.6179 Q616.386 94.5623 614.233 92.8494 Q612.104 91.1133 608.284 91.1133 L604.256 91.1133 L604.256 87.2707 L608.469 87.2707 Q611.918 87.2707 613.747 85.905 Q615.576 84.5161 615.576 81.9235 Q615.576 79.2615 613.678 77.8495 Q611.803 76.4143 608.284 76.4143 Q606.363 76.4143 604.164 76.831 Q601.965 77.2476 599.326 78.1272 L599.326 73.9606 Q601.988 73.2199 604.303 72.8495 Q606.641 72.4791 608.701 72.4791 Q614.025 72.4791 617.127 74.9097 Q620.229 77.3171 620.229 81.4374 Q620.229 84.3078 618.585 86.2985 Q616.942 88.2661 613.909 89.03 Z" fill="#000000" fill-rule="evenodd" fill-opacity="1" /><path clip-path="url(#clip140)" d="M 0 0 M638.955 77.1782 L627.15 95.6272 L638.955 95.6272 L638.955 77.1782 M637.728 73.1041 L643.608 73.1041 L643.608 95.6272 L648.539 95.6272 L648.539 99.516 L643.608 99.516 L643.608 107.664 L638.955 107.664 L638.955 99.516 L623.354 99.516 L623.354 95.0022 L637.728 73.1041 Z" fill="#000000" fill-rule="evenodd" fill-opacity="1" /><path clip-path="url(#clip140)" d="M 0 0 M691.417 77.1782 L679.611 95.6272 L691.417 95.6272 L691.417 77.1782 M690.19 73.1041 L696.07 73.1041 L696.07 95.6272 L701 95.6272 L701 99.516 L696.07 99.516 L696.07 107.664 L691.417 107.664 L691.417 99.516 L675.815 99.516 L675.815 95.0022 L690.19 73.1041 Z" fill="#000000" fill-rule="evenodd" fill-opacity="1" /><path clip-path="url(#clip140)" d="M 0 0 M716.069 76.1828 Q712.458 76.1828 710.63 79.7476 Q708.824 83.2893 708.824 90.4188 Q708.824 97.5253 710.63 101.09 Q712.458 104.632 716.069 104.632 Q719.704 104.632 721.509 101.09 Q723.338 97.5253 723.338 90.4188 Q723.338 83.2893 721.509 79.7476 Q719.704 76.1828 716.069 76.1828 M716.069 72.4791 Q721.88 72.4791 724.935 77.0856 Q728.014 81.6689 728.014 90.4188 Q728.014 99.1457 724.935 103.752 Q721.88 108.335 716.069 108.335 Q710.259 108.335 707.181 103.752 Q704.125 99.1457 704.125 90.4188 Q704.125 81.6689 707.181 77.0856 Q710.259 72.4791 716.069 72.4791 Z" fill="#000000" fill-rule="evenodd" fill-opacity="1" /><path clip-path="url(#clip140)" d="M 0 0 M769.839 77.1782 L758.033 95.6272 L769.839 95.6272 L769.839 77.1782 M768.612 73.1041 L774.491 73.1041 L774.491 95.6272 L779.422 95.6272 L779.422 99.516 L774.491 99.516 L774.491 107.664 L769.839 107.664 L769.839 99.516 L754.237 99.516 L754.237 95.0022 L768.612 73.1041 Z" fill="#000000" fill-rule="evenodd" fill-opacity="1" /><path clip-path="url(#clip140)" d="M 0 0 M795.07 88.5207 Q791.922 88.5207 790.07 90.6735 Q788.241 92.8262 788.241 96.5762 Q788.241 100.303 790.07 102.479 Q791.922 104.632 795.07 104.632 Q798.218 104.632 800.047 102.479 Q801.899 100.303 801.899 96.5762 Q801.899 92.8262 800.047 90.6735 Q798.218 88.5207 795.07 88.5207 M804.352 73.868 L804.352 78.1272 Q802.593 77.2939 800.788 76.8541 Q799.005 76.4143 797.246 76.4143 Q792.616 76.4143 790.163 79.5393 Q787.732 82.6643 787.385 88.9837 Q788.751 86.9698 790.811 85.905 Q792.871 84.817 795.348 84.817 Q800.556 84.817 803.565 87.9883 Q806.598 91.1364 806.598 96.5762 Q806.598 101.9 803.45 105.118 Q800.302 108.335 795.07 108.335 Q789.075 108.335 785.903 103.752 Q782.732 99.1457 782.732 90.4188 Q782.732 82.2244 786.621 77.3634 Q790.51 72.4791 797.061 72.4791 Q798.82 72.4791 800.602 72.8263 Q802.408 73.1736 804.352 73.868 Z" fill="#000000" fill-rule="evenodd" fill-opacity="1" /><path clip-path="url(#clip140)" d="M 0 0 M836.49 73.1041 L854.846 73.1041 L854.846 77.0393 L840.772 77.0393 L840.772 85.5115 Q841.791 85.1642 842.809 85.0022 Q843.828 84.817 844.846 84.817 Q850.633 84.817 854.013 87.9883 Q857.393 91.1596 857.393 96.5762 Q857.393 102.155 853.92 105.257 Q850.448 108.335 844.129 108.335 Q841.953 108.335 839.684 107.965 Q837.439 107.595 835.032 106.854 L835.032 102.155 Q837.115 103.289 839.337 103.845 Q841.559 104.4 844.036 104.4 Q848.041 104.4 850.379 102.294 Q852.717 100.187 852.717 96.5762 Q852.717 92.9651 850.379 90.8587 Q848.041 88.7522 844.036 88.7522 Q842.161 88.7522 840.286 89.1689 Q838.434 89.5855 836.49 90.4651 L836.49 73.1041 Z" fill="#000000" fill-rule="evenodd" fill-opacity="1" /><path clip-path="url(#clip140)" d="M 0 0 M866.49 103.729 L882.809 103.729 L882.809 107.664 L860.865 107.664 L860.865 103.729 Q863.527 100.974 868.11 96.3447 Q872.717 91.692 873.897 90.3494 Q876.142 87.8263 877.022 86.0902 Q877.925 84.3309 877.925 82.6411 Q877.925 79.8865 875.98 78.1504 Q874.059 76.4143 870.957 76.4143 Q868.758 76.4143 866.305 77.1782 Q863.874 77.9421 861.096 79.493 L861.096 74.7708 Q863.92 73.6365 866.374 73.0578 Q868.828 72.4791 870.865 72.4791 Q876.235 72.4791 879.43 75.1643 Q882.624 77.8495 882.624 82.3402 Q882.624 84.4698 881.814 86.3911 Q881.027 88.2892 878.92 90.8818 Q878.342 91.5531 875.24 94.7707 Q872.138 97.9651 866.49 103.729 Z" fill="#000000" fill-rule="evenodd" fill-opacity="1" /><path clip-path="url(#clip140)" d="M 0 0 M927.371 73.1041 L945.727 73.1041 L945.727 77.0393 L931.653 77.0393 L931.653 85.5115 Q932.672 85.1642 933.69 85.0022 Q934.709 84.817 935.727 84.817 Q941.514 84.817 944.894 87.9883 Q948.273 91.1596 948.273 96.5762 Q948.273 102.155 944.801 105.257 Q941.329 108.335 935.01 108.335 Q932.834 108.335 930.565 107.965 Q928.32 107.595 925.912 106.854 L925.912 102.155 Q927.996 103.289 930.218 103.845 Q932.44 104.4 934.917 104.4 Q938.922 104.4 941.26 102.294 Q943.597 100.187 943.597 96.5762 Q943.597 92.9651 941.26 90.8587 Q938.922 88.7522 934.917 88.7522 Q933.042 88.7522 931.167 89.1689 Q929.315 89.5855 927.371 90.4651 L927.371 73.1041 Z" fill="#000000" fill-rule="evenodd" fill-opacity="1" /><path clip-path="url(#clip140)" d="M 0 0 M953.482 106.947 L953.482 102.687 Q955.241 103.521 957.046 103.96 Q958.852 104.4 960.588 104.4 Q965.218 104.4 967.648 101.298 Q970.102 98.1734 970.449 91.8309 Q969.107 93.8216 967.046 94.8864 Q964.986 95.9512 962.486 95.9512 Q957.301 95.9512 954.269 92.8262 Q951.259 89.6781 951.259 84.2383 Q951.259 78.9143 954.408 75.6967 Q957.556 72.4791 962.787 72.4791 Q968.783 72.4791 971.931 77.0856 Q975.102 81.6689 975.102 90.4188 Q975.102 98.5901 971.213 103.474 Q967.347 108.335 960.796 108.335 Q959.037 108.335 957.232 107.988 Q955.426 107.641 953.482 106.947 M962.787 92.2938 Q965.935 92.2938 967.764 90.1411 Q969.616 87.9883 969.616 84.2383 Q969.616 80.5115 967.764 78.3587 Q965.935 76.1828 962.787 76.1828 Q959.639 76.1828 957.787 78.3587 Q955.959 80.5115 955.959 84.2383 Q955.959 87.9883 957.787 90.1411 Q959.639 92.2938 962.787 92.2938 Z" fill="#000000" fill-rule="evenodd" fill-opacity="1" /><path clip-path="url(#clip140)" d="M 0 0 M1016.41 88.5207 Q1013.26 88.5207 1011.41 90.6735 Q1009.58 92.8262 1009.58 96.5762 Q1009.58 100.303 1011.41 102.479 Q1013.26 104.632 1016.41 104.632 Q1019.55 104.632 1021.38 102.479 Q1023.23 100.303 1023.23 96.5762 Q1023.23 92.8262 1021.38 90.6735 Q1019.55 88.5207 1016.41 88.5207 M1025.69 73.868 L1025.69 78.1272 Q1023.93 77.2939 1022.12 76.8541 Q1020.34 76.4143 1018.58 76.4143 Q1013.95 76.4143 1011.5 79.5393 Q1009.07 82.6643 1008.72 88.9837 Q1010.09 86.9698 1012.15 85.905 Q1014.21 84.817 1016.68 84.817 Q1021.89 84.817 1024.9 87.9883 Q1027.93 91.1364 1027.93 96.5762 Q1027.93 101.9 1024.79 105.118 Q1021.64 108.335 1016.41 108.335 Q1010.41 108.335 1007.24 103.752 Q1004.07 99.1457 1004.07 90.4188 Q1004.07 82.2244 1007.96 77.3634 Q1011.85 72.4791 1018.4 72.4791 Q1020.16 72.4791 1021.94 72.8263 Q1023.74 73.1736 1025.69 73.868 Z" fill="#000000" fill-rule="evenodd" fill-opacity="1" /><path clip-path="url(#clip140)" d="M 0 0 M1033.05 73.1041 L1051.41 73.1041 L1051.41 77.0393 L1037.33 77.0393 L1037.33 85.5115 Q1038.35 85.1642 1039.37 85.0022 Q1040.39 84.817 1041.41 84.817 Q1047.19 84.817 1050.57 87.9883 Q1053.95 91.1596 1053.95 96.5762 Q1053.95 102.155 1050.48 105.257 Q1047.01 108.335 1040.69 108.335 Q1038.51 108.335 1036.24 107.965 Q1034 107.595 1031.59 106.854 L1031.59 102.155 Q1033.67 103.289 1035.9 103.845 Q1038.12 104.4 1040.6 104.4 Q1044.6 104.4 1046.94 102.294 Q1049.28 100.187 1049.28 96.5762 Q1049.28 92.9651 1046.94 90.8587 Q1044.6 88.7522 1040.6 88.7522 Q1038.72 88.7522 1036.85 89.1689 Q1034.99 89.5855 1033.05 90.4651 L1033.05 73.1041 Z" fill="#000000" fill-rule="evenodd" fill-opacity="1" /><path clip-path="url(#clip140)" d="M 0 0 M1083.51 73.1041 L1105.73 73.1041 L1105.73 75.0949 L1093.18 107.664 L1088.3 107.664 L1100.11 77.0393 L1083.51 77.0393 L1083.51 73.1041 Z" fill="#000000" fill-rule="evenodd" fill-opacity="1" /><path clip-path="url(#clip140)" d="M 0 0 M1111.61 103.729 L1119.25 103.729 L1119.25 77.3634 L1110.94 79.03 L1110.94 74.7708 L1119.2 73.1041 L1123.88 73.1041 L1123.88 103.729 L1131.52 103.729 L1131.52 107.664 L1111.61 107.664 L1111.61 103.729 Z" fill="#000000" fill-rule="evenodd" fill-opacity="1" /><path clip-path="url(#clip140)" d="M 0 0 M1161.85 73.1041 L1184.07 73.1041 L1184.07 75.0949 L1171.53 107.664 L1166.64 107.664 L1178.45 77.0393 L1161.85 77.0393 L1161.85 73.1041 Z" fill="#000000" fill-rule="evenodd" fill-opacity="1" /><path clip-path="url(#clip140)" d="M 0 0 M1187.96 73.1041 L1210.18 73.1041 L1210.18 75.0949 L1197.64 107.664 L1192.75 107.664 L1204.56 77.0393 L1187.96 77.0393 L1187.96 73.1041 Z" fill="#000000" fill-rule="evenodd" fill-opacity="1" /><path clip-path="url(#clip140)" d="M 0 0 M1263.85 91.2522 Q1260.52 91.2522 1258.6 93.0346 Q1256.7 94.817 1256.7 97.942 Q1256.7 101.067 1258.6 102.849 Q1260.52 104.632 1263.85 104.632 Q1267.19 104.632 1269.11 102.849 Q1271.03 101.044 1271.03 97.942 Q1271.03 94.817 1269.11 93.0346 Q1267.21 91.2522 1263.85 91.2522 M1259.18 89.2614 Q1256.17 88.5207 1254.48 86.4605 Q1252.81 84.4004 1252.81 81.4374 Q1252.81 77.2939 1255.75 74.8865 Q1258.71 72.4791 1263.85 72.4791 Q1269.02 72.4791 1271.95 74.8865 Q1274.89 77.2939 1274.89 81.4374 Q1274.89 84.4004 1273.2 86.4605 Q1271.54 88.5207 1268.55 89.2614 Q1271.93 90.0485 1273.81 92.3401 Q1275.7 94.6318 1275.7 97.942 Q1275.7 102.965 1272.63 105.65 Q1269.57 108.335 1263.85 108.335 Q1258.14 108.335 1255.06 105.65 Q1252 102.965 1252 97.942 Q1252 94.6318 1253.9 92.3401 Q1255.8 90.0485 1259.18 89.2614 M1257.46 81.8772 Q1257.46 84.5624 1259.13 86.067 Q1260.82 87.5716 1263.85 87.5716 Q1266.86 87.5716 1268.55 86.067 Q1270.27 84.5624 1270.27 81.8772 Q1270.27 79.1921 1268.55 77.6874 Q1266.86 76.1828 1263.85 76.1828 Q1260.82 76.1828 1259.13 77.6874 Q1257.46 79.1921 1257.46 81.8772 Z" fill="#000000" fill-rule="evenodd" fill-opacity="1" /><path clip-path="url(#clip140)" d="M 0 0 M1293.62 77.1782 L1281.82 95.6272 L1293.62 95.6272 L1293.62 77.1782 M1292.39 73.1041 L1298.27 73.1041 L1298.27 95.6272 L1303.2 95.6272 L1303.2 99.516 L1298.27 99.516 L1298.27 107.664 L1293.62 107.664 L1293.62 99.516 L1278.02 99.516 L1278.02 95.0022 L1292.39 73.1041 Z" fill="#000000" fill-rule="evenodd" fill-opacity="1" /><path clip-path="url(#clip140)" d="M 0 0 M1332.9 106.947 L1332.9 102.687 Q1334.66 103.521 1336.46 103.96 Q1338.27 104.4 1340.01 104.4 Q1344.64 104.4 1347.07 101.298 Q1349.52 98.1734 1349.87 91.8309 Q1348.52 93.8216 1346.46 94.8864 Q1344.4 95.9512 1341.9 95.9512 Q1336.72 95.9512 1333.69 92.8262 Q1330.68 89.6781 1330.68 84.2383 Q1330.68 78.9143 1333.83 75.6967 Q1336.97 72.4791 1342.21 72.4791 Q1348.2 72.4791 1351.35 77.0856 Q1354.52 81.6689 1354.52 90.4188 Q1354.52 98.5901 1350.63 103.474 Q1346.77 108.335 1340.21 108.335 Q1338.46 108.335 1336.65 107.988 Q1334.84 107.641 1332.9 106.947 M1342.21 92.2938 Q1345.35 92.2938 1347.18 90.1411 Q1349.03 87.9883 1349.03 84.2383 Q1349.03 80.5115 1347.18 78.3587 Q1345.35 76.1828 1342.21 76.1828 Q1339.06 76.1828 1337.21 78.3587 Q1335.38 80.5115 1335.38 84.2383 Q1335.38 87.9883 1337.21 90.1411 Q1339.06 92.2938 1342.21 92.2938 Z" fill="#000000" fill-rule="evenodd" fill-opacity="1" /><path clip-path="url(#clip140)" d="M 0 0 M1369.59 76.1828 Q1365.98 76.1828 1364.15 79.7476 Q1362.34 83.2893 1362.34 90.4188 Q1362.34 97.5253 1364.15 101.09 Q1365.98 104.632 1369.59 104.632 Q1373.22 104.632 1375.03 101.09 Q1376.86 97.5253 1376.86 90.4188 Q1376.86 83.2893 1375.03 79.7476 Q1373.22 76.1828 1369.59 76.1828 M1369.59 72.4791 Q1375.4 72.4791 1378.46 77.0856 Q1381.53 81.6689 1381.53 90.4188 Q1381.53 99.1457 1378.46 103.752 Q1375.4 108.335 1369.59 108.335 Q1363.78 108.335 1360.7 103.752 Q1357.65 99.1457 1357.65 90.4188 Q1357.65 81.6689 1360.7 77.0856 Q1363.78 72.4791 1369.59 72.4791 Z" fill="#000000" fill-rule="evenodd" fill-opacity="1" /><path clip-path="url(#clip140)" d="M 0 0 M1411.32 106.947 L1411.32 102.687 Q1413.08 103.521 1414.89 103.96 Q1416.69 104.4 1418.43 104.4 Q1423.06 104.4 1425.49 101.298 Q1427.94 98.1734 1428.29 91.8309 Q1426.95 93.8216 1424.89 94.8864 Q1422.83 95.9512 1420.33 95.9512 Q1415.14 95.9512 1412.11 92.8262 Q1409.1 89.6781 1409.1 84.2383 Q1409.1 78.9143 1412.25 75.6967 Q1415.4 72.4791 1420.63 72.4791 Q1426.62 72.4791 1429.77 77.0856 Q1432.94 81.6689 1432.94 90.4188 Q1432.94 98.5901 1429.05 103.474 Q1425.19 108.335 1418.64 108.335 Q1416.88 108.335 1415.07 107.988 Q1413.27 107.641 1411.32 106.947 M1420.63 92.2938 Q1423.78 92.2938 1425.6 90.1411 Q1427.46 87.9883 1427.46 84.2383 Q1427.46 80.5115 1425.6 78.3587 Q1423.78 76.1828 1420.63 76.1828 Q1417.48 76.1828 1415.63 78.3587 Q1413.8 80.5115 1413.8 84.2383 Q1413.8 87.9883 1415.63 90.1411 Q1417.48 92.2938 1420.63 92.2938 Z" fill="#000000" fill-rule="evenodd" fill-opacity="1" /><path clip-path="url(#clip140)" d="M 0 0 M1448.59 88.5207 Q1445.44 88.5207 1443.59 90.6735 Q1441.76 92.8262 1441.76 96.5762 Q1441.76 100.303 1443.59 102.479 Q1445.44 104.632 1448.59 104.632 Q1451.74 104.632 1453.57 102.479 Q1455.42 100.303 1455.42 96.5762 Q1455.42 92.8262 1453.57 90.6735 Q1451.74 88.5207 1448.59 88.5207 M1457.87 73.868 L1457.87 78.1272 Q1456.11 77.2939 1454.31 76.8541 Q1452.53 76.4143 1450.77 76.4143 Q1446.14 76.4143 1443.68 79.5393 Q1441.25 82.6643 1440.91 88.9837 Q1442.27 86.9698 1444.33 85.905 Q1446.39 84.817 1448.87 84.817 Q1454.08 84.817 1457.09 87.9883 Q1460.12 91.1364 1460.12 96.5762 Q1460.12 101.9 1456.97 105.118 Q1453.82 108.335 1448.59 108.335 Q1442.59 108.335 1439.42 103.752 Q1436.25 99.1457 1436.25 90.4188 Q1436.25 82.2244 1440.14 77.3634 Q1444.03 72.4791 1450.58 72.4791 Q1452.34 72.4791 1454.12 72.8263 Q1455.93 73.1736 1457.87 73.868 Z" fill="#000000" fill-rule="evenodd" fill-opacity="1" /><path clip-path="url(#clip140)" d="M 0 0 M1477.28 103.729 L1484.92 103.729 L1484.92 77.3634 L1476.61 79.03 L1476.61 74.7708 L1484.87 73.1041 L1489.55 73.1041 L1489.55 103.729 L1497.19 103.729 L1497.19 107.664 L1477.28 107.664 L1477.28 103.729 Z" fill="#000000" fill-rule="evenodd" fill-opacity="1" /><path clip-path="url(#clip140)" d="M 0 0 M1512.26 76.1828 Q1508.64 76.1828 1506.82 79.7476 Q1505.01 83.2893 1505.01 90.4188 Q1505.01 97.5253 1506.82 101.09 Q1508.64 104.632 1512.26 104.632 Q1515.89 104.632 1517.7 101.09 Q1519.52 97.5253 1519.52 90.4188 Q1519.52 83.2893 1517.7 79.7476 Q1515.89 76.1828 1512.26 76.1828 M1512.26 72.4791 Q1518.07 72.4791 1521.12 77.0856 Q1524.2 81.6689 1524.2 90.4188 Q1524.2 99.1457 1521.12 103.752 Q1518.07 108.335 1512.26 108.335 Q1506.45 108.335 1503.37 103.752 Q1500.31 99.1457 1500.31 90.4188 Q1500.31 81.6689 1503.37 77.0856 Q1506.45 72.4791 1512.26 72.4791 Z" fill="#000000" fill-rule="evenodd" fill-opacity="1" /><path clip-path="url(#clip140)" d="M 0 0 M1533.3 103.729 L1549.62 103.729 L1549.62 107.664 L1527.67 107.664 L1527.67 103.729 Q1530.33 100.974 1534.92 96.3447 Q1539.52 91.692 1540.7 90.3494 Q1542.95 87.8263 1543.83 86.0902 Q1544.73 84.3309 1544.73 82.6411 Q1544.73 79.8865 1542.79 78.1504 Q1540.87 76.4143 1537.76 76.4143 Q1535.57 76.4143 1533.11 77.1782 Q1530.68 77.9421 1527.9 79.493 L1527.9 74.7708 Q1530.73 73.6365 1533.18 73.0578 Q1535.63 72.4791 1537.67 72.4791 Q1543.04 72.4791 1546.24 75.1643 Q1549.43 77.8495 1549.43 82.3402 Q1549.43 84.4698 1548.62 86.3911 Q1547.83 88.2892 1545.73 90.8818 Q1545.15 91.5531 1542.05 94.7707 Q1538.95 97.9651 1533.3 103.729 Z" fill="#000000" fill-rule="evenodd" fill-opacity="1" /><polyline clip-path="url(#clip142)" style="stroke:#000000; stroke-width:2; stroke-opacity:0.1; fill:none" points="
  152.001,181.061 1552.76,181.061 
  "/>
<polyline clip-path="url(#clip142)" style="stroke:#000000; stroke-width:2; stroke-opacity:0.1; fill:none" points="
  152.001,272.647 1552.76,272.647 
  "/>
<polyline clip-path="url(#clip142)" style="stroke:#000000; stroke-width:2; stroke-opacity:0.1; fill:none" points="
  152.001,351.15 1552.76,351.15 
  "/>
<polyline clip-path="url(#clip142)" style="stroke:#000000; stroke-width:2; stroke-opacity:0.1; fill:none" points="
  152.001,442.737 1552.76,442.737 
  "/>
<polyline clip-path="url(#clip142)" style="stroke:#000000; stroke-width:2; stroke-opacity:0.1; fill:none" points="
  152.001,521.24 1552.76,521.24 
  "/>
<polyline clip-path="url(#clip142)" style="stroke:#000000; stroke-width:2; stroke-opacity:0.1; fill:none" points="
  152.001,612.827 1552.76,612.827 
  "/>
<polyline clip-path="url(#clip142)" style="stroke:#000000; stroke-width:2; stroke-opacity:0.1; fill:none" points="
  152.001,691.33 1552.76,691.33 
  "/>
<polyline clip-path="url(#clip142)" style="stroke:#000000; stroke-width:2; stroke-opacity:0.1; fill:none" points="
  152.001,769.833 1552.76,769.833 
  "/>
<polyline clip-path="url(#clip142)" style="stroke:#000000; stroke-width:2; stroke-opacity:0.1; fill:none" points="
  152.001,848.336 1552.76,848.336 
  "/>
<polyline clip-path="url(#clip142)" style="stroke:#000000; stroke-width:2; stroke-opacity:0.1; fill:none" points="
  152.001,939.923 1552.76,939.923 
  "/>
<polyline clip-path="url(#clip142)" style="stroke:#000000; stroke-width:2; stroke-opacity:0.1; fill:none" points="
  152.001,1018.43 1552.76,1018.43 
  "/>
<polyline clip-path="url(#clip142)" style="stroke:#000000; stroke-width:2; stroke-opacity:0.1; fill:none" points="
  152.001,1096.93 1552.76,1096.93 
  "/>
<polyline clip-path="url(#clip142)" style="stroke:#000000; stroke-width:2; stroke-opacity:0.1; fill:none" points="
  152.001,1175.43 1552.76,1175.43 
  "/>
<polyline clip-path="url(#clip142)" style="stroke:#000000; stroke-width:2; stroke-opacity:0.1; fill:none" points="
  152.001,1267.02 1552.76,1267.02 
  "/>
<polyline clip-path="url(#clip142)" style="stroke:#000000; stroke-width:2; stroke-opacity:0.1; fill:none" points="
  152.001,1345.52 1552.76,1345.52 
  "/>
<polyline clip-path="url(#clip142)" style="stroke:#000000; stroke-width:2; stroke-opacity:0.1; fill:none" points="
  152.001,1424.02 1552.76,1424.02 
  "/>
<polyline clip-path="url(#clip142)" style="stroke:#000000; stroke-width:2; stroke-opacity:0.1; fill:none" points="
  152.001,1502.53 1552.76,1502.53 
  "/>
<path clip-path="url(#clip140)" d="M 0 0 M108.094 194.405 L115.733 194.405 L115.733 168.04 L107.422 169.706 L107.422 165.447 L115.686 163.781 L120.362 163.781 L120.362 194.405 L128.001 194.405 L128.001 198.341 L108.094 198.341 L108.094 194.405 Z" fill="#000000" fill-rule="evenodd" fill-opacity="1" /><path clip-path="url(#clip140)" d="M 0 0 M116.149 273.515 Q112.816 273.515 110.895 275.298 Q108.996 277.08 108.996 280.205 Q108.996 283.33 110.895 285.113 Q112.816 286.895 116.149 286.895 Q119.483 286.895 121.404 285.113 Q123.325 283.307 123.325 280.205 Q123.325 277.08 121.404 275.298 Q119.506 273.515 116.149 273.515 M111.473 271.525 Q108.464 270.784 106.774 268.724 Q105.108 266.664 105.108 263.701 Q105.108 259.557 108.047 257.15 Q111.01 254.742 116.149 254.742 Q121.311 254.742 124.251 257.15 Q127.191 259.557 127.191 263.701 Q127.191 266.664 125.501 268.724 Q123.834 270.784 120.848 271.525 Q124.228 272.312 126.103 274.603 Q128.001 276.895 128.001 280.205 Q128.001 285.228 124.922 287.914 Q121.867 290.599 116.149 290.599 Q110.432 290.599 107.353 287.914 Q104.297 285.228 104.297 280.205 Q104.297 276.895 106.196 274.603 Q108.094 272.312 111.473 271.525 M109.76 264.14 Q109.76 266.826 111.427 268.33 Q113.117 269.835 116.149 269.835 Q119.158 269.835 120.848 268.33 Q122.561 266.826 122.561 264.14 Q122.561 261.455 120.848 259.951 Q119.158 258.446 116.149 258.446 Q113.117 258.446 111.427 259.951 Q109.76 261.455 109.76 264.14 Z" fill="#000000" fill-rule="evenodd" fill-opacity="1" /><path clip-path="url(#clip140)" d="M 0 0 M80.5938 364.495 L88.2327 364.495 L88.2327 338.13 L79.9225 339.796 L79.9225 335.537 L88.1864 333.87 L92.8623 333.87 L92.8623 364.495 L100.501 364.495 L100.501 368.43 L80.5938 368.43 L80.5938 364.495 Z" fill="#000000" fill-rule="evenodd" fill-opacity="1" /><path clip-path="url(#clip140)" d="M 0 0 M118.418 337.944 L106.612 356.393 L118.418 356.393 L118.418 337.944 M117.191 333.87 L123.07 333.87 L123.07 356.393 L128.001 356.393 L128.001 360.282 L123.07 360.282 L123.07 368.43 L118.418 368.43 L118.418 360.282 L102.816 360.282 L102.816 355.768 L117.191 333.87 Z" fill="#000000" fill-rule="evenodd" fill-opacity="1" /><path clip-path="url(#clip140)" d="M 0 0 M85.8947 456.082 L102.214 456.082 L102.214 460.017 L80.2698 460.017 L80.2698 456.082 Q82.9318 453.327 87.5151 448.698 Q92.1216 444.045 93.3021 442.702 Q95.5475 440.179 96.4271 438.443 Q97.3299 436.684 97.3299 434.994 Q97.3299 432.24 95.3854 430.503 Q93.4641 428.767 90.3623 428.767 Q88.1632 428.767 85.7096 429.531 Q83.279 430.295 80.5012 431.846 L80.5012 427.124 Q83.3253 425.99 85.779 425.411 Q88.2327 424.832 90.2697 424.832 Q95.6401 424.832 98.8345 427.517 Q102.029 430.203 102.029 434.693 Q102.029 436.823 101.219 438.744 Q100.432 440.642 98.3252 443.235 Q97.7465 443.906 94.6447 447.124 Q91.5429 450.318 85.8947 456.082 Z" fill="#000000" fill-rule="evenodd" fill-opacity="1" /><path clip-path="url(#clip140)" d="M 0 0 M108.094 456.082 L115.733 456.082 L115.733 429.716 L107.422 431.383 L107.422 427.124 L115.686 425.457 L120.362 425.457 L120.362 456.082 L128.001 456.082 L128.001 460.017 L108.094 460.017 L108.094 456.082 Z" fill="#000000" fill-rule="evenodd" fill-opacity="1" /><path clip-path="url(#clip140)" d="M 0 0 M85.5707 534.585 L101.89 534.585 L101.89 538.52 L79.9457 538.52 L79.9457 534.585 Q82.6077 531.83 87.191 527.201 Q91.7975 522.548 92.978 521.205 Q95.2234 518.682 96.103 516.946 Q97.0058 515.187 97.0058 513.497 Q97.0058 510.743 95.0614 509.006 Q93.1401 507.27 90.0382 507.27 Q87.8392 507.27 85.3855 508.034 Q82.9549 508.798 80.1772 510.349 L80.1772 505.627 Q83.0012 504.493 85.4549 503.914 Q87.9086 503.335 89.9456 503.335 Q95.316 503.335 98.5104 506.02 Q101.705 508.706 101.705 513.196 Q101.705 515.326 100.895 517.247 Q100.108 519.145 98.0012 521.738 Q97.4225 522.409 94.3206 525.627 Q91.2188 528.821 85.5707 534.585 Z" fill="#000000" fill-rule="evenodd" fill-opacity="1" /><path clip-path="url(#clip140)" d="M 0 0 M105.779 503.96 L128.001 503.96 L128.001 505.951 L115.455 538.52 L110.571 538.52 L122.376 507.895 L105.779 507.895 L105.779 503.96 Z" fill="#000000" fill-rule="evenodd" fill-opacity="1" /><path clip-path="url(#clip140)" d="M 0 0 M93.3715 611.473 Q96.728 612.19 98.603 614.459 Q100.501 616.727 100.501 620.061 Q100.501 625.176 96.9826 627.977 Q93.4641 630.778 86.9827 630.778 Q84.8068 630.778 82.492 630.338 Q80.2003 629.922 77.7466 629.065 L77.7466 624.551 Q79.6911 625.686 82.0059 626.264 Q84.3207 626.843 86.8438 626.843 Q91.2419 626.843 93.5336 625.107 Q95.8484 623.371 95.8484 620.061 Q95.8484 617.005 93.6956 615.292 Q91.566 613.556 87.7466 613.556 L83.7188 613.556 L83.7188 609.714 L87.9318 609.714 Q91.3808 609.714 93.2095 608.348 Q95.0382 606.959 95.0382 604.366 Q95.0382 601.704 93.1401 600.292 Q91.2651 598.857 87.7466 598.857 Q85.8253 598.857 83.6262 599.274 Q81.4272 599.69 78.7883 600.57 L78.7883 596.403 Q81.4503 595.663 83.7651 595.292 Q86.1031 594.922 88.1632 594.922 Q93.4873 594.922 96.5891 597.353 Q99.691 599.76 99.691 603.88 Q99.691 606.751 98.0475 608.741 Q96.4039 610.709 93.3715 611.473 Z" fill="#000000" fill-rule="evenodd" fill-opacity="1" /><path clip-path="url(#clip140)" d="M 0 0 M118.418 599.621 L106.612 618.07 L118.418 618.07 L118.418 599.621 M117.191 595.547 L123.07 595.547 L123.07 618.07 L128.001 618.07 L128.001 621.959 L123.07 621.959 L123.07 630.107 L118.418 630.107 L118.418 621.959 L102.816 621.959 L102.816 617.445 L117.191 595.547 Z" fill="#000000" fill-rule="evenodd" fill-opacity="1" /><path clip-path="url(#clip140)" d="M 0 0 M91.404 678.124 L79.5985 696.573 L91.404 696.573 L91.404 678.124 M90.1771 674.05 L96.0567 674.05 L96.0567 696.573 L100.987 696.573 L100.987 700.462 L96.0567 700.462 L96.0567 708.61 L91.404 708.61 L91.404 700.462 L75.8022 700.462 L75.8022 695.948 L90.1771 674.05 Z" fill="#000000" fill-rule="evenodd" fill-opacity="1" /><path clip-path="url(#clip140)" d="M 0 0 M116.057 677.129 Q112.446 677.129 110.617 680.693 Q108.811 684.235 108.811 691.365 Q108.811 698.471 110.617 702.036 Q112.446 705.578 116.057 705.578 Q119.691 705.578 121.496 702.036 Q123.325 698.471 123.325 691.365 Q123.325 684.235 121.496 680.693 Q119.691 677.129 116.057 677.129 M116.057 673.425 Q121.867 673.425 124.922 678.031 Q128.001 682.615 128.001 691.365 Q128.001 700.091 124.922 704.698 Q121.867 709.281 116.057 709.281 Q110.246 709.281 107.168 704.698 Q104.112 700.091 104.112 691.365 Q104.112 682.615 107.168 678.031 Q110.246 673.425 116.057 673.425 Z" fill="#000000" fill-rule="evenodd" fill-opacity="1" /><path clip-path="url(#clip140)" d="M 0 0 M91.2419 756.627 L79.4364 775.076 L91.2419 775.076 L91.2419 756.627 M90.0151 752.553 L95.8947 752.553 L95.8947 775.076 L100.825 775.076 L100.825 778.965 L95.8947 778.965 L95.8947 787.113 L91.2419 787.113 L91.2419 778.965 L75.6402 778.965 L75.6402 774.451 L90.0151 752.553 Z" fill="#000000" fill-rule="evenodd" fill-opacity="1" /><path clip-path="url(#clip140)" d="M 0 0 M116.473 767.97 Q113.325 767.97 111.473 770.122 Q109.645 772.275 109.645 776.025 Q109.645 779.752 111.473 781.928 Q113.325 784.081 116.473 784.081 Q119.621 784.081 121.45 781.928 Q123.302 779.752 123.302 776.025 Q123.302 772.275 121.45 770.122 Q119.621 767.97 116.473 767.97 M125.756 753.317 L125.756 757.576 Q123.996 756.743 122.191 756.303 Q120.408 755.863 118.649 755.863 Q114.02 755.863 111.566 758.988 Q109.135 762.113 108.788 768.432 Q110.154 766.419 112.214 765.354 Q114.274 764.266 116.751 764.266 Q121.959 764.266 124.969 767.437 Q128.001 770.585 128.001 776.025 Q128.001 781.349 124.853 784.567 Q121.705 787.784 116.473 787.784 Q110.478 787.784 107.307 783.201 Q104.135 778.594 104.135 769.868 Q104.135 761.673 108.024 756.812 Q111.913 751.928 118.464 751.928 Q120.223 751.928 122.006 752.275 Q123.811 752.622 125.756 753.317 Z" fill="#000000" fill-rule="evenodd" fill-opacity="1" /><path clip-path="url(#clip140)" d="M 0 0 M81.6818 831.056 L100.038 831.056 L100.038 834.991 L85.9642 834.991 L85.9642 843.463 Q86.9827 843.116 88.0012 842.954 Q89.0197 842.769 90.0382 842.769 Q95.8252 842.769 99.2049 845.94 Q102.584 849.111 102.584 854.528 Q102.584 860.107 99.1123 863.209 Q95.6401 866.287 89.3206 866.287 Q87.1447 866.287 84.8762 865.917 Q82.6309 865.546 80.2235 864.806 L80.2235 860.107 Q82.3068 861.241 84.529 861.797 Q86.7512 862.352 89.2281 862.352 Q93.2327 862.352 95.5706 860.246 Q97.9086 858.139 97.9086 854.528 Q97.9086 850.917 95.5706 848.81 Q93.2327 846.704 89.2281 846.704 Q87.3531 846.704 85.4781 847.121 Q83.6262 847.537 81.6818 848.417 L81.6818 831.056 Z" fill="#000000" fill-rule="evenodd" fill-opacity="1" /><path clip-path="url(#clip140)" d="M 0 0 M111.682 861.681 L128.001 861.681 L128.001 865.616 L106.057 865.616 L106.057 861.681 Q108.719 858.926 113.302 854.297 Q117.908 849.644 119.089 848.301 Q121.334 845.778 122.214 844.042 Q123.117 842.283 123.117 840.593 Q123.117 837.838 121.172 836.102 Q119.251 834.366 116.149 834.366 Q113.95 834.366 111.496 835.13 Q109.066 835.894 106.288 837.445 L106.288 832.723 Q109.112 831.588 111.566 831.01 Q114.02 830.431 116.057 830.431 Q121.427 830.431 124.621 833.116 Q127.816 835.801 127.816 840.292 Q127.816 842.422 127.006 844.343 Q126.219 846.241 124.112 848.834 Q123.533 849.505 120.432 852.722 Q117.33 855.917 111.682 861.681 Z" fill="#000000" fill-rule="evenodd" fill-opacity="1" /><path clip-path="url(#clip140)" d="M 0 0 M80.2698 922.643 L98.6262 922.643 L98.6262 926.578 L84.5522 926.578 L84.5522 935.05 Q85.5707 934.703 86.5892 934.541 Q87.6077 934.356 88.6262 934.356 Q94.4132 934.356 97.7928 937.527 Q101.172 940.698 101.172 946.115 Q101.172 951.694 97.7002 954.795 Q94.228 957.874 87.9086 957.874 Q85.7327 957.874 83.4642 957.504 Q81.2188 957.133 78.8114 956.393 L78.8114 951.694 Q80.8948 952.828 83.117 953.383 Q85.3392 953.939 87.816 953.939 Q91.8206 953.939 94.1586 951.832 Q96.4965 949.726 96.4965 946.115 Q96.4965 942.504 94.1586 940.397 Q91.8206 938.291 87.816 938.291 Q85.941 938.291 84.066 938.707 Q82.2142 939.124 80.2698 940.004 L80.2698 922.643 Z" fill="#000000" fill-rule="evenodd" fill-opacity="1" /><path clip-path="url(#clip140)" d="M 0 0 M106.381 956.485 L106.381 952.226 Q108.14 953.059 109.946 953.499 Q111.751 953.939 113.487 953.939 Q118.117 953.939 120.547 950.837 Q123.001 947.712 123.348 941.369 Q122.006 943.36 119.945 944.425 Q117.885 945.49 115.385 945.49 Q110.2 945.49 107.168 942.365 Q104.159 939.217 104.159 933.777 Q104.159 928.453 107.307 925.235 Q110.455 922.018 115.686 922.018 Q121.682 922.018 124.83 926.624 Q128.001 931.208 128.001 939.957 Q128.001 948.129 124.112 953.013 Q120.246 957.874 113.696 957.874 Q111.936 957.874 110.131 957.527 Q108.325 957.18 106.381 956.485 M115.686 941.832 Q118.834 941.832 120.663 939.68 Q122.515 937.527 122.515 933.777 Q122.515 930.05 120.663 927.897 Q118.834 925.721 115.686 925.721 Q112.538 925.721 110.686 927.897 Q108.858 930.05 108.858 933.777 Q108.858 937.527 110.686 939.68 Q112.538 941.832 115.686 941.832 Z" fill="#000000" fill-rule="evenodd" fill-opacity="1" /><path clip-path="url(#clip140)" d="M 0 0 M90.4549 1016.56 Q87.3068 1016.56 85.4549 1018.72 Q83.6262 1020.87 83.6262 1024.62 Q83.6262 1028.34 85.4549 1030.52 Q87.3068 1032.67 90.4549 1032.67 Q93.603 1032.67 95.4317 1030.52 Q97.2836 1028.34 97.2836 1024.62 Q97.2836 1020.87 95.4317 1018.72 Q93.603 1016.56 90.4549 1016.56 M99.7373 1001.91 L99.7373 1006.17 Q97.978 1005.34 96.1725 1004.9 Q94.3901 1004.46 92.6308 1004.46 Q88.0012 1004.46 85.5475 1007.58 Q83.117 1010.71 82.7698 1017.03 Q84.1355 1015.01 86.1957 1013.95 Q88.2558 1012.86 90.7327 1012.86 Q95.941 1012.86 98.9502 1016.03 Q101.983 1019.18 101.983 1024.62 Q101.983 1029.94 98.8345 1033.16 Q95.6864 1036.38 90.4549 1036.38 Q84.4596 1036.38 81.2883 1031.79 Q78.117 1027.19 78.117 1018.46 Q78.117 1010.27 82.0059 1005.4 Q85.8947 1000.52 92.4456 1000.52 Q94.2049 1000.52 95.9873 1000.87 Q97.7928 1001.22 99.7373 1001.91 Z" fill="#000000" fill-rule="evenodd" fill-opacity="1" /><path clip-path="url(#clip140)" d="M 0 0 M107.098 1001.15 L125.455 1001.15 L125.455 1005.08 L111.381 1005.08 L111.381 1013.55 Q112.399 1013.21 113.418 1013.04 Q114.436 1012.86 115.455 1012.86 Q121.242 1012.86 124.621 1016.03 Q128.001 1019.2 128.001 1024.62 Q128.001 1030.2 124.529 1033.3 Q121.057 1036.38 114.737 1036.38 Q112.561 1036.38 110.293 1036.01 Q108.047 1035.64 105.64 1034.9 L105.64 1030.2 Q107.723 1031.33 109.946 1031.89 Q112.168 1032.44 114.645 1032.44 Q118.649 1032.44 120.987 1030.34 Q123.325 1028.23 123.325 1024.62 Q123.325 1021.01 120.987 1018.9 Q118.649 1016.79 114.645 1016.79 Q112.77 1016.79 110.895 1017.21 Q109.043 1017.63 107.098 1018.51 L107.098 1001.15 Z" fill="#000000" fill-rule="evenodd" fill-opacity="1" /><path clip-path="url(#clip140)" d="M 0 0 M79.992 1079.65 L102.214 1079.65 L102.214 1081.64 L89.6679 1114.21 L84.7836 1114.21 L96.5891 1083.58 L79.992 1083.58 L79.992 1079.65 Z" fill="#000000" fill-rule="evenodd" fill-opacity="1" /><path clip-path="url(#clip140)" d="M 0 0 M108.094 1110.27 L115.733 1110.27 L115.733 1083.91 L107.422 1085.57 L107.422 1081.32 L115.686 1079.65 L120.362 1079.65 L120.362 1110.27 L128.001 1110.27 L128.001 1114.21 L108.094 1114.21 L108.094 1110.27 Z" fill="#000000" fill-rule="evenodd" fill-opacity="1" /><path clip-path="url(#clip140)" d="M 0 0 M79.6679 1158.15 L101.89 1158.15 L101.89 1160.14 L89.3438 1192.71 L84.4596 1192.71 L96.2651 1162.09 L79.6679 1162.09 L79.6679 1158.15 Z" fill="#000000" fill-rule="evenodd" fill-opacity="1" /><path clip-path="url(#clip140)" d="M 0 0 M105.779 1158.15 L128.001 1158.15 L128.001 1160.14 L115.455 1192.71 L110.571 1192.71 L122.376 1162.09 L105.779 1162.09 L105.779 1158.15 Z" fill="#000000" fill-rule="evenodd" fill-opacity="1" /><path clip-path="url(#clip140)" d="M 0 0 M88.6494 1267.89 Q85.316 1267.89 83.3948 1269.67 Q81.4966 1271.45 81.4966 1274.58 Q81.4966 1277.7 83.3948 1279.48 Q85.316 1281.27 88.6494 1281.27 Q91.9827 1281.27 93.904 1279.48 Q95.8252 1277.68 95.8252 1274.58 Q95.8252 1271.45 93.904 1269.67 Q92.0058 1267.89 88.6494 1267.89 M83.9735 1265.9 Q80.9642 1265.16 79.2744 1263.09 Q77.6077 1261.03 77.6077 1258.07 Q77.6077 1253.93 80.5475 1251.52 Q83.5105 1249.11 88.6494 1249.11 Q93.8114 1249.11 96.7512 1251.52 Q99.691 1253.93 99.691 1258.07 Q99.691 1261.03 98.0012 1263.09 Q96.3345 1265.16 93.3484 1265.9 Q96.728 1266.68 98.603 1268.97 Q100.501 1271.27 100.501 1274.58 Q100.501 1279.6 97.4225 1282.28 Q94.3669 1284.97 88.6494 1284.97 Q82.9318 1284.97 79.8531 1282.28 Q76.7976 1279.6 76.7976 1274.58 Q76.7976 1271.27 78.6957 1268.97 Q80.5938 1266.68 83.9735 1265.9 M82.2605 1258.51 Q82.2605 1261.2 83.9272 1262.7 Q85.617 1264.21 88.6494 1264.21 Q91.6586 1264.21 93.3484 1262.7 Q95.0614 1261.2 95.0614 1258.51 Q95.0614 1255.83 93.3484 1254.32 Q91.6586 1252.82 88.6494 1252.82 Q85.617 1252.82 83.9272 1254.32 Q82.2605 1255.83 82.2605 1258.51 Z" fill="#000000" fill-rule="evenodd" fill-opacity="1" /><path clip-path="url(#clip140)" d="M 0 0 M118.418 1253.81 L106.612 1272.26 L118.418 1272.26 L118.418 1253.81 M117.191 1249.74 L123.07 1249.74 L123.07 1272.26 L128.001 1272.26 L128.001 1276.15 L123.07 1276.15 L123.07 1284.3 L118.418 1284.3 L118.418 1276.15 L102.816 1276.15 L102.816 1271.64 L117.191 1249.74 Z" fill="#000000" fill-rule="evenodd" fill-opacity="1" /><path clip-path="url(#clip140)" d="M 0 0 M79.367 1362.08 L79.367 1357.82 Q81.1262 1358.66 82.9318 1359.1 Q84.7373 1359.54 86.4734 1359.54 Q91.103 1359.54 93.5336 1356.44 Q95.9873 1353.31 96.3345 1346.97 Q94.9919 1348.96 92.9317 1350.02 Q90.8716 1351.09 88.3716 1351.09 Q83.1864 1351.09 80.154 1347.96 Q77.1448 1344.82 77.1448 1339.38 Q77.1448 1334.05 80.2929 1330.83 Q83.441 1327.62 88.6725 1327.62 Q94.6678 1327.62 97.816 1332.22 Q100.987 1336.81 100.987 1345.56 Q100.987 1353.73 97.0984 1358.61 Q93.2327 1363.47 86.6818 1363.47 Q84.9225 1363.47 83.117 1363.13 Q81.3114 1362.78 79.367 1362.08 M88.6725 1347.43 Q91.8206 1347.43 93.6493 1345.28 Q95.5012 1343.13 95.5012 1339.38 Q95.5012 1335.65 93.6493 1333.5 Q91.8206 1331.32 88.6725 1331.32 Q85.5244 1331.32 83.6725 1333.5 Q81.8438 1335.65 81.8438 1339.38 Q81.8438 1343.13 83.6725 1345.28 Q85.5244 1347.43 88.6725 1347.43 Z" fill="#000000" fill-rule="evenodd" fill-opacity="1" /><path clip-path="url(#clip140)" d="M 0 0 M116.057 1331.32 Q112.446 1331.32 110.617 1334.88 Q108.811 1338.43 108.811 1345.56 Q108.811 1352.66 110.617 1356.23 Q112.446 1359.77 116.057 1359.77 Q119.691 1359.77 121.496 1356.23 Q123.325 1352.66 123.325 1345.56 Q123.325 1338.43 121.496 1334.88 Q119.691 1331.32 116.057 1331.32 M116.057 1327.62 Q121.867 1327.62 124.922 1332.22 Q128.001 1336.81 128.001 1345.56 Q128.001 1354.28 124.922 1358.89 Q121.867 1363.47 116.057 1363.47 Q110.246 1363.47 107.168 1358.89 Q104.112 1354.28 104.112 1345.56 Q104.112 1336.81 107.168 1332.22 Q110.246 1327.62 116.057 1327.62 Z" fill="#000000" fill-rule="evenodd" fill-opacity="1" /><path clip-path="url(#clip140)" d="M 0 0 M79.205 1440.59 L79.205 1436.33 Q80.9642 1437.16 82.7698 1437.6 Q84.5753 1438.04 86.3114 1438.04 Q90.941 1438.04 93.3715 1434.94 Q95.8252 1431.81 96.1725 1425.47 Q94.8299 1427.46 92.7697 1428.53 Q90.7095 1429.59 88.2095 1429.59 Q83.0244 1429.59 79.992 1426.47 Q76.9827 1423.32 76.9827 1417.88 Q76.9827 1412.55 80.1309 1409.34 Q83.279 1406.12 88.5105 1406.12 Q94.5058 1406.12 97.6539 1410.73 Q100.825 1415.31 100.825 1424.06 Q100.825 1432.23 96.9363 1437.11 Q93.0706 1441.98 86.5197 1441.98 Q84.7605 1441.98 82.9549 1441.63 Q81.1494 1441.28 79.205 1440.59 M88.5105 1425.93 Q91.6586 1425.93 93.4873 1423.78 Q95.3391 1421.63 95.3391 1417.88 Q95.3391 1414.15 93.4873 1412 Q91.6586 1409.82 88.5105 1409.82 Q85.3623 1409.82 83.5105 1412 Q81.6818 1414.15 81.6818 1417.88 Q81.6818 1421.63 83.5105 1423.78 Q85.3623 1425.93 88.5105 1425.93 Z" fill="#000000" fill-rule="evenodd" fill-opacity="1" /><path clip-path="url(#clip140)" d="M 0 0 M116.473 1422.16 Q113.325 1422.16 111.473 1424.31 Q109.645 1426.47 109.645 1430.22 Q109.645 1433.94 111.473 1436.12 Q113.325 1438.27 116.473 1438.27 Q119.621 1438.27 121.45 1436.12 Q123.302 1433.94 123.302 1430.22 Q123.302 1426.47 121.45 1424.31 Q119.621 1422.16 116.473 1422.16 M125.756 1407.51 L125.756 1411.77 Q123.996 1410.93 122.191 1410.49 Q120.408 1410.05 118.649 1410.05 Q114.02 1410.05 111.566 1413.18 Q109.135 1416.3 108.788 1422.62 Q110.154 1420.61 112.214 1419.55 Q114.274 1418.46 116.751 1418.46 Q121.959 1418.46 124.969 1421.63 Q128.001 1424.78 128.001 1430.22 Q128.001 1435.54 124.853 1438.76 Q121.705 1441.98 116.473 1441.98 Q110.478 1441.98 107.307 1437.39 Q104.135 1432.79 104.135 1424.06 Q104.135 1415.86 108.024 1411 Q111.913 1406.12 118.464 1406.12 Q120.223 1406.12 122.006 1406.47 Q123.811 1406.81 125.756 1407.51 Z" fill="#000000" fill-rule="evenodd" fill-opacity="1" /><path clip-path="url(#clip140)" d="M 0 0 M55.6634 1515.87 L63.3023 1515.87 L63.3023 1489.51 L54.9921 1491.17 L54.9921 1486.91 L63.256 1485.25 L67.9319 1485.25 L67.9319 1515.87 L75.5707 1515.87 L75.5707 1519.81 L55.6634 1519.81 L55.6634 1515.87 Z" fill="#000000" fill-rule="evenodd" fill-opacity="1" /><path clip-path="url(#clip140)" d="M 0 0 M90.6401 1488.33 Q87.029 1488.33 85.2003 1491.89 Q83.3948 1495.43 83.3948 1502.56 Q83.3948 1509.67 85.2003 1513.23 Q87.029 1516.78 90.6401 1516.78 Q94.2743 1516.78 96.0799 1513.23 Q97.9086 1509.67 97.9086 1502.56 Q97.9086 1495.43 96.0799 1491.89 Q94.2743 1488.33 90.6401 1488.33 M90.6401 1484.62 Q96.4502 1484.62 99.5058 1489.23 Q102.584 1493.81 102.584 1502.56 Q102.584 1511.29 99.5058 1515.9 Q96.4502 1520.48 90.6401 1520.48 Q84.8299 1520.48 81.7512 1515.9 Q78.6957 1511.29 78.6957 1502.56 Q78.6957 1493.81 81.7512 1489.23 Q84.8299 1484.62 90.6401 1484.62 Z" fill="#000000" fill-rule="evenodd" fill-opacity="1" /><path clip-path="url(#clip140)" d="M 0 0 M111.682 1515.87 L128.001 1515.87 L128.001 1519.81 L106.057 1519.81 L106.057 1515.87 Q108.719 1513.12 113.302 1508.49 Q117.908 1503.84 119.089 1502.49 Q121.334 1499.97 122.214 1498.23 Q123.117 1496.47 123.117 1494.78 Q123.117 1492.03 121.172 1490.29 Q119.251 1488.56 116.149 1488.56 Q113.95 1488.56 111.496 1489.32 Q109.066 1490.09 106.288 1491.64 L106.288 1486.91 Q109.112 1485.78 111.566 1485.2 Q114.02 1484.62 116.057 1484.62 Q121.427 1484.62 124.621 1487.31 Q127.816 1489.99 127.816 1494.48 Q127.816 1496.61 127.006 1498.53 Q126.219 1500.43 124.112 1503.03 Q123.533 1503.7 120.432 1506.91 Q117.33 1510.11 111.682 1515.87 Z" fill="#000000" fill-rule="evenodd" fill-opacity="1" /><path clip-path="url(#clip142)" d="
M191.645 181.061 L283.232 181.061 L283.232 272.647 L191.645 272.647 L191.645 181.061  Z
  " fill="#ff6347" fill-rule="evenodd" fill-opacity="1"/>
<polyline clip-path="url(#clip142)" style="stroke:#000000; stroke-width:4; stroke-opacity:1; fill:none" points="
  191.645,181.061 283.232,181.061 283.232,272.647 191.645,272.647 191.645,181.061 
  "/>
<path clip-path="url(#clip142)" d="
M283.232 272.647 L361.735 272.647 L361.735 351.15 L283.232 351.15 L283.232 272.647  Z
  " fill="#ff6347" fill-rule="evenodd" fill-opacity="1"/>
<polyline clip-path="url(#clip142)" style="stroke:#000000; stroke-width:4; stroke-opacity:1; fill:none" points="
  283.232,272.647 361.735,272.647 361.735,351.15 283.232,351.15 283.232,272.647 
  "/>
<path clip-path="url(#clip142)" d="
M283.232 181.061 L361.735 181.061 L361.735 272.647 L283.232 272.647 L283.232 181.061  Z
  " fill="#f0f8ff" fill-rule="evenodd" fill-opacity="1"/>
<polyline clip-path="url(#clip142)" style="stroke:#000000; stroke-width:4; stroke-opacity:1; fill:none" points="
  283.232,181.061 361.735,181.061 361.735,272.647 283.232,272.647 283.232,181.061 
  "/>
<path clip-path="url(#clip142)" d="
M191.645 272.647 L283.232 272.647 L283.232 351.15 L191.645 351.15 L191.645 272.647  Z
  " fill="#f0f8ff" fill-rule="evenodd" fill-opacity="1"/>
<polyline clip-path="url(#clip142)" style="stroke:#000000; stroke-width:4; stroke-opacity:1; fill:none" points="
  191.645,272.647 283.232,272.647 283.232,351.15 191.645,351.15 191.645,272.647 
  "/>
<path clip-path="url(#clip142)" d="
M361.735 351.15 L453.322 351.15 L453.322 442.737 L361.735 442.737 L361.735 351.15  Z
  " fill="#ff6347" fill-rule="evenodd" fill-opacity="1"/>
<polyline clip-path="url(#clip142)" style="stroke:#000000; stroke-width:4; stroke-opacity:1; fill:none" points="
  361.735,351.15 453.322,351.15 453.322,442.737 361.735,442.737 361.735,351.15 
  "/>
<path clip-path="url(#clip142)" d="
M453.322 442.737 L531.825 442.737 L531.825 521.24 L453.322 521.24 L453.322 442.737  Z
  " fill="#ff6347" fill-rule="evenodd" fill-opacity="1"/>
<polyline clip-path="url(#clip142)" style="stroke:#000000; stroke-width:4; stroke-opacity:1; fill:none" points="
  453.322,442.737 531.825,442.737 531.825,521.24 453.322,521.24 453.322,442.737 
  "/>
<path clip-path="url(#clip142)" d="
M453.322 351.15 L531.825 351.15 L531.825 442.737 L453.322 442.737 L453.322 351.15  Z
  " fill="#f0f8ff" fill-rule="evenodd" fill-opacity="1"/>
<polyline clip-path="url(#clip142)" style="stroke:#000000; stroke-width:4; stroke-opacity:1; fill:none" points="
  453.322,351.15 531.825,351.15 531.825,442.737 453.322,442.737 453.322,351.15 
  "/>
<path clip-path="url(#clip142)" d="
M361.735 442.737 L453.322 442.737 L453.322 521.24 L361.735 521.24 L361.735 442.737  Z
  " fill="#f0f8ff" fill-rule="evenodd" fill-opacity="1"/>
<polyline clip-path="url(#clip142)" style="stroke:#000000; stroke-width:4; stroke-opacity:1; fill:none" points="
  361.735,442.737 453.322,442.737 453.322,521.24 361.735,521.24 361.735,442.737 
  "/>
<path clip-path="url(#clip142)" d="
M361.735 181.061 L531.825 181.061 L531.825 351.15 L361.735 351.15 L361.735 181.061  Z
  " fill="#f0f8ff" fill-rule="evenodd" fill-opacity="1"/>
<polyline clip-path="url(#clip142)" style="stroke:#000000; stroke-width:4; stroke-opacity:1; fill:none" points="
  361.735,181.061 531.825,181.061 531.825,351.15 361.735,351.15 361.735,181.061 
  "/>
<path clip-path="url(#clip142)" d="
M191.645 351.15 L361.735 351.15 L361.735 521.24 L191.645 521.24 L191.645 351.15  Z
  " fill="#f0f8ff" fill-rule="evenodd" fill-opacity="1"/>
<polyline clip-path="url(#clip142)" style="stroke:#000000; stroke-width:4; stroke-opacity:1; fill:none" points="
  191.645,351.15 361.735,351.15 361.735,521.24 191.645,521.24 191.645,351.15 
  "/>
<path clip-path="url(#clip142)" d="
M531.825 521.24 L623.411 521.24 L623.411 612.827 L531.825 612.827 L531.825 521.24  Z
  " fill="#ff6347" fill-rule="evenodd" fill-opacity="1"/>
<polyline clip-path="url(#clip142)" style="stroke:#000000; stroke-width:4; stroke-opacity:1; fill:none" points="
  531.825,521.24 623.411,521.24 623.411,612.827 531.825,612.827 531.825,521.24 
  "/>
<path clip-path="url(#clip142)" d="
M623.411 612.827 L701.914 612.827 L701.914 691.33 L623.411 691.33 L623.411 612.827  Z
  " fill="#ff6347" fill-rule="evenodd" fill-opacity="1"/>
<polyline clip-path="url(#clip142)" style="stroke:#000000; stroke-width:4; stroke-opacity:1; fill:none" points="
  623.411,612.827 701.914,612.827 701.914,691.33 623.411,691.33 623.411,612.827 
  "/>
<path clip-path="url(#clip142)" d="
M623.411 521.24 L701.914 521.24 L701.914 612.827 L623.411 612.827 L623.411 521.24  Z
  " fill="#f0f8ff" fill-rule="evenodd" fill-opacity="1"/>
<polyline clip-path="url(#clip142)" style="stroke:#000000; stroke-width:4; stroke-opacity:1; fill:none" points="
  623.411,521.24 701.914,521.24 701.914,612.827 623.411,612.827 623.411,521.24 
  "/>
<path clip-path="url(#clip142)" d="
M531.825 612.827 L623.411 612.827 L623.411 691.33 L531.825 691.33 L531.825 612.827  Z
  " fill="#f0f8ff" fill-rule="evenodd" fill-opacity="1"/>
<polyline clip-path="url(#clip142)" style="stroke:#000000; stroke-width:4; stroke-opacity:1; fill:none" points="
  531.825,612.827 623.411,612.827 623.411,691.33 531.825,691.33 531.825,612.827 
  "/>
<path clip-path="url(#clip142)" d="
M701.914 691.33 L780.417 691.33 L780.417 769.833 L701.914 769.833 L701.914 691.33  Z
  " fill="#ff6347" fill-rule="evenodd" fill-opacity="1"/>
<polyline clip-path="url(#clip142)" style="stroke:#000000; stroke-width:4; stroke-opacity:1; fill:none" points="
  701.914,691.33 780.417,691.33 780.417,769.833 701.914,769.833 701.914,691.33 
  "/>
<path clip-path="url(#clip142)" d="
M780.417 769.833 L858.92 769.833 L858.92 848.336 L780.417 848.336 L780.417 769.833  Z
  " fill="#ff6347" fill-rule="evenodd" fill-opacity="1"/>
<polyline clip-path="url(#clip142)" style="stroke:#000000; stroke-width:4; stroke-opacity:1; fill:none" points="
  780.417,769.833 858.92,769.833 858.92,848.336 780.417,848.336 780.417,769.833 
  "/>
<path clip-path="url(#clip142)" d="
M780.417 691.33 L858.92 691.33 L858.92 769.833 L780.417 769.833 L780.417 691.33  Z
  " fill="#f0f8ff" fill-rule="evenodd" fill-opacity="1"/>
<polyline clip-path="url(#clip142)" style="stroke:#000000; stroke-width:4; stroke-opacity:1; fill:none" points="
  780.417,691.33 858.92,691.33 858.92,769.833 780.417,769.833 780.417,691.33 
  "/>
<path clip-path="url(#clip142)" d="
M701.914 769.833 L780.417 769.833 L780.417 848.336 L701.914 848.336 L701.914 769.833  Z
  " fill="#f0f8ff" fill-rule="evenodd" fill-opacity="1"/>
<polyline clip-path="url(#clip142)" style="stroke:#000000; stroke-width:4; stroke-opacity:1; fill:none" points="
  701.914,769.833 780.417,769.833 780.417,848.336 701.914,848.336 701.914,769.833 
  "/>
<path clip-path="url(#clip142)" d="
M701.914 521.24 L858.92 521.24 L858.92 691.33 L701.914 691.33 L701.914 521.24  Z
  " fill="#f0f8ff" fill-rule="evenodd" fill-opacity="1"/>
<polyline clip-path="url(#clip142)" style="stroke:#000000; stroke-width:4; stroke-opacity:1; fill:none" points="
  701.914,521.24 858.92,521.24 858.92,691.33 701.914,691.33 701.914,521.24 
  "/>
<path clip-path="url(#clip142)" d="
M531.825 691.33 L701.914 691.33 L701.914 848.336 L531.825 848.336 L531.825 691.33  Z
  " fill="#f0f8ff" fill-rule="evenodd" fill-opacity="1"/>
<polyline clip-path="url(#clip142)" style="stroke:#000000; stroke-width:4; stroke-opacity:1; fill:none" points="
  531.825,691.33 701.914,691.33 701.914,848.336 531.825,848.336 531.825,691.33 
  "/>
<path clip-path="url(#clip142)" d="
M531.825 181.061 L858.92 181.061 L858.92 521.24 L531.825 521.24 L531.825 181.061  Z
  " fill="#f0f8ff" fill-rule="evenodd" fill-opacity="1"/>
<polyline clip-path="url(#clip142)" style="stroke:#000000; stroke-width:4; stroke-opacity:1; fill:none" points="
  531.825,181.061 858.92,181.061 858.92,521.24 531.825,521.24 531.825,181.061 
  "/>
<path clip-path="url(#clip142)" d="
M191.645 521.24 L531.825 521.24 L531.825 848.336 L191.645 848.336 L191.645 521.24  Z
  " fill="#f0f8ff" fill-rule="evenodd" fill-opacity="1"/>
<polyline clip-path="url(#clip142)" style="stroke:#000000; stroke-width:4; stroke-opacity:1; fill:none" points="
  191.645,521.24 531.825,521.24 531.825,848.336 191.645,848.336 191.645,521.24 
  "/>
<path clip-path="url(#clip142)" d="
M858.92 848.336 L950.507 848.336 L950.507 939.923 L858.92 939.923 L858.92 848.336  Z
  " fill="#ff6347" fill-rule="evenodd" fill-opacity="1"/>
<polyline clip-path="url(#clip142)" style="stroke:#000000; stroke-width:4; stroke-opacity:1; fill:none" points="
  858.92,848.336 950.507,848.336 950.507,939.923 858.92,939.923 858.92,848.336 
  "/>
<path clip-path="url(#clip142)" d="
M950.507 939.923 L1029.01 939.923 L1029.01 1018.43 L950.507 1018.43 L950.507 939.923  Z
  " fill="#ff6347" fill-rule="evenodd" fill-opacity="1"/>
<polyline clip-path="url(#clip142)" style="stroke:#000000; stroke-width:4; stroke-opacity:1; fill:none" points="
  950.507,939.923 1029.01,939.923 1029.01,1018.43 950.507,1018.43 950.507,939.923 
  "/>
<path clip-path="url(#clip142)" d="
M950.507 848.336 L1029.01 848.336 L1029.01 939.923 L950.507 939.923 L950.507 848.336  Z
  " fill="#f0f8ff" fill-rule="evenodd" fill-opacity="1"/>
<polyline clip-path="url(#clip142)" style="stroke:#000000; stroke-width:4; stroke-opacity:1; fill:none" points="
  950.507,848.336 1029.01,848.336 1029.01,939.923 950.507,939.923 950.507,848.336 
  "/>
<path clip-path="url(#clip142)" d="
M858.92 939.923 L950.507 939.923 L950.507 1018.43 L858.92 1018.43 L858.92 939.923  Z
  " fill="#f0f8ff" fill-rule="evenodd" fill-opacity="1"/>
<polyline clip-path="url(#clip142)" style="stroke:#000000; stroke-width:4; stroke-opacity:1; fill:none" points="
  858.92,939.923 950.507,939.923 950.507,1018.43 858.92,1018.43 858.92,939.923 
  "/>
<path clip-path="url(#clip142)" d="
M1029.01 1018.43 L1107.51 1018.43 L1107.51 1096.93 L1029.01 1096.93 L1029.01 1018.43  Z
  " fill="#ff6347" fill-rule="evenodd" fill-opacity="1"/>
<polyline clip-path="url(#clip142)" style="stroke:#000000; stroke-width:4; stroke-opacity:1; fill:none" points="
  1029.01,1018.43 1107.51,1018.43 1107.51,1096.93 1029.01,1096.93 1029.01,1018.43 
  "/>
<path clip-path="url(#clip142)" d="
M1107.51 1096.93 L1186.02 1096.93 L1186.02 1175.43 L1107.51 1175.43 L1107.51 1096.93  Z
  " fill="#ff6347" fill-rule="evenodd" fill-opacity="1"/>
<polyline clip-path="url(#clip142)" style="stroke:#000000; stroke-width:4; stroke-opacity:1; fill:none" points="
  1107.51,1096.93 1186.02,1096.93 1186.02,1175.43 1107.51,1175.43 1107.51,1096.93 
  "/>
<path clip-path="url(#clip142)" d="
M1107.51 1018.43 L1186.02 1018.43 L1186.02 1096.93 L1107.51 1096.93 L1107.51 1018.43  Z
  " fill="#f0f8ff" fill-rule="evenodd" fill-opacity="1"/>
<polyline clip-path="url(#clip142)" style="stroke:#000000; stroke-width:4; stroke-opacity:1; fill:none" points="
  1107.51,1018.43 1186.02,1018.43 1186.02,1096.93 1107.51,1096.93 1107.51,1018.43 
  "/>
<path clip-path="url(#clip142)" d="
M1029.01 1096.93 L1107.51 1096.93 L1107.51 1175.43 L1029.01 1175.43 L1029.01 1096.93  Z
  " fill="#f0f8ff" fill-rule="evenodd" fill-opacity="1"/>
<polyline clip-path="url(#clip142)" style="stroke:#000000; stroke-width:4; stroke-opacity:1; fill:none" points="
  1029.01,1096.93 1107.51,1096.93 1107.51,1175.43 1029.01,1175.43 1029.01,1096.93 
  "/>
<path clip-path="url(#clip142)" d="
M1029.01 848.336 L1186.02 848.336 L1186.02 1018.43 L1029.01 1018.43 L1029.01 848.336  Z
  " fill="#f0f8ff" fill-rule="evenodd" fill-opacity="1"/>
<polyline clip-path="url(#clip142)" style="stroke:#000000; stroke-width:4; stroke-opacity:1; fill:none" points="
  1029.01,848.336 1186.02,848.336 1186.02,1018.43 1029.01,1018.43 1029.01,848.336 
  "/>
<path clip-path="url(#clip142)" d="
M858.92 1018.43 L1029.01 1018.43 L1029.01 1175.43 L858.92 1175.43 L858.92 1018.43  Z
  " fill="#f0f8ff" fill-rule="evenodd" fill-opacity="1"/>
<polyline clip-path="url(#clip142)" style="stroke:#000000; stroke-width:4; stroke-opacity:1; fill:none" points="
  858.92,1018.43 1029.01,1018.43 1029.01,1175.43 858.92,1175.43 858.92,1018.43 
  "/>
<path clip-path="url(#clip142)" d="
M1186.02 1175.43 L1277.6 1175.43 L1277.6 1267.02 L1186.02 1267.02 L1186.02 1175.43  Z
  " fill="#ff6347" fill-rule="evenodd" fill-opacity="1"/>
<polyline clip-path="url(#clip142)" style="stroke:#000000; stroke-width:4; stroke-opacity:1; fill:none" points="
  1186.02,1175.43 1277.6,1175.43 1277.6,1267.02 1186.02,1267.02 1186.02,1175.43 
  "/>
<path clip-path="url(#clip142)" d="
M1277.6 1267.02 L1356.11 1267.02 L1356.11 1345.52 L1277.6 1345.52 L1277.6 1267.02  Z
  " fill="#ff6347" fill-rule="evenodd" fill-opacity="1"/>
<polyline clip-path="url(#clip142)" style="stroke:#000000; stroke-width:4; stroke-opacity:1; fill:none" points="
  1277.6,1267.02 1356.11,1267.02 1356.11,1345.52 1277.6,1345.52 1277.6,1267.02 
  "/>
<path clip-path="url(#clip142)" d="
M1277.6 1175.43 L1356.11 1175.43 L1356.11 1267.02 L1277.6 1267.02 L1277.6 1175.43  Z
  " fill="#f0f8ff" fill-rule="evenodd" fill-opacity="1"/>
<polyline clip-path="url(#clip142)" style="stroke:#000000; stroke-width:4; stroke-opacity:1; fill:none" points="
  1277.6,1175.43 1356.11,1175.43 1356.11,1267.02 1277.6,1267.02 1277.6,1175.43 
  "/>
<path clip-path="url(#clip142)" d="
M1186.02 1267.02 L1277.6 1267.02 L1277.6 1345.52 L1186.02 1345.52 L1186.02 1267.02  Z
  " fill="#f0f8ff" fill-rule="evenodd" fill-opacity="1"/>
<polyline clip-path="url(#clip142)" style="stroke:#000000; stroke-width:4; stroke-opacity:1; fill:none" points="
  1186.02,1267.02 1277.6,1267.02 1277.6,1345.52 1186.02,1345.52 1186.02,1267.02 
  "/>
<path clip-path="url(#clip142)" d="
M1356.11 1345.52 L1434.61 1345.52 L1434.61 1424.02 L1356.11 1424.02 L1356.11 1345.52  Z
  " fill="#ff6347" fill-rule="evenodd" fill-opacity="1"/>
<polyline clip-path="url(#clip142)" style="stroke:#000000; stroke-width:4; stroke-opacity:1; fill:none" points="
  1356.11,1345.52 1434.61,1345.52 1434.61,1424.02 1356.11,1424.02 1356.11,1345.52 
  "/>
<path clip-path="url(#clip142)" d="
M1434.61 1424.02 L1513.11 1424.02 L1513.11 1502.53 L1434.61 1502.53 L1434.61 1424.02  Z
  " fill="#ff6347" fill-rule="evenodd" fill-opacity="1"/>
<polyline clip-path="url(#clip142)" style="stroke:#000000; stroke-width:4; stroke-opacity:1; fill:none" points="
  1434.61,1424.02 1513.11,1424.02 1513.11,1502.53 1434.61,1502.53 1434.61,1424.02 
  "/>
<path clip-path="url(#clip142)" d="
M1434.61 1345.52 L1513.11 1345.52 L1513.11 1424.02 L1434.61 1424.02 L1434.61 1345.52  Z
  " fill="#f0f8ff" fill-rule="evenodd" fill-opacity="1"/>
<polyline clip-path="url(#clip142)" style="stroke:#000000; stroke-width:4; stroke-opacity:1; fill:none" points="
  1434.61,1345.52 1513.11,1345.52 1513.11,1424.02 1434.61,1424.02 1434.61,1345.52 
  "/>
<path clip-path="url(#clip142)" d="
M1356.11 1424.02 L1434.61 1424.02 L1434.61 1502.53 L1356.11 1502.53 L1356.11 1424.02  Z
  " fill="#f0f8ff" fill-rule="evenodd" fill-opacity="1"/>
<polyline clip-path="url(#clip142)" style="stroke:#000000; stroke-width:4; stroke-opacity:1; fill:none" points="
  1356.11,1424.02 1434.61,1424.02 1434.61,1502.53 1356.11,1502.53 1356.11,1424.02 
  "/>
<path clip-path="url(#clip142)" d="
M1356.11 1175.43 L1513.11 1175.43 L1513.11 1345.52 L1356.11 1345.52 L1356.11 1175.43  Z
  " fill="#f0f8ff" fill-rule="evenodd" fill-opacity="1"/>
<polyline clip-path="url(#clip142)" style="stroke:#000000; stroke-width:4; stroke-opacity:1; fill:none" points="
  1356.11,1175.43 1513.11,1175.43 1513.11,1345.52 1356.11,1345.52 1356.11,1175.43 
  "/>
<path clip-path="url(#clip142)" d="
M1186.02 1345.52 L1356.11 1345.52 L1356.11 1502.53 L1186.02 1502.53 L1186.02 1345.52  Z
  " fill="#f0f8ff" fill-rule="evenodd" fill-opacity="1"/>
<polyline clip-path="url(#clip142)" style="stroke:#000000; stroke-width:4; stroke-opacity:1; fill:none" points="
  1186.02,1345.52 1356.11,1345.52 1356.11,1502.53 1186.02,1502.53 1186.02,1345.52 
  "/>
<path clip-path="url(#clip142)" d="
M1186.02 848.336 L1513.11 848.336 L1513.11 1175.43 L1186.02 1175.43 L1186.02 848.336  Z
  " fill="#f0f8ff" fill-rule="evenodd" fill-opacity="1"/>
<polyline clip-path="url(#clip142)" style="stroke:#000000; stroke-width:4; stroke-opacity:1; fill:none" points="
  1186.02,848.336 1513.11,848.336 1513.11,1175.43 1186.02,1175.43 1186.02,848.336 
  "/>
<path clip-path="url(#clip142)" d="
M858.92 1175.43 L1186.02 1175.43 L1186.02 1502.53 L858.92 1502.53 L858.92 1175.43  Z
  " fill="#f0f8ff" fill-rule="evenodd" fill-opacity="1"/>
<polyline clip-path="url(#clip142)" style="stroke:#000000; stroke-width:4; stroke-opacity:1; fill:none" points="
  858.92,1175.43 1186.02,1175.43 1186.02,1502.53 858.92,1502.53 858.92,1175.43 
  "/>
<path clip-path="url(#clip142)" d="
M858.92 181.061 L1513.11 181.061 L1513.11 848.336 L858.92 848.336 L858.92 181.061  Z
  " fill="#f0f8ff" fill-rule="evenodd" fill-opacity="1"/>
<polyline clip-path="url(#clip142)" style="stroke:#000000; stroke-width:4; stroke-opacity:1; fill:none" points="
  858.92,181.061 1513.11,181.061 1513.11,848.336 858.92,848.336 858.92,181.061 
  "/>
<path clip-path="url(#clip142)" d="
M191.645 848.336 L858.92 848.336 L858.92 1502.53 L191.645 1502.53 L191.645 848.336  Z
  " fill="#f0f8ff" fill-rule="evenodd" fill-opacity="1"/>
<polyline clip-path="url(#clip142)" style="stroke:#000000; stroke-width:4; stroke-opacity:1; fill:none" points="
  191.645,848.336 858.92,848.336 858.92,1502.53 191.645,1502.53 191.645,848.336 
  "/>
<path clip-path="url(#clip140)" d="M 0 0 M317.136 240.199 L333.455 240.199 L333.455 244.134 L311.511 244.134 L311.511 240.199 Q314.173 237.444 318.756 232.815 Q323.363 228.162 324.543 226.819 Q326.789 224.296 327.668 222.56 Q328.571 220.801 328.571 219.111 Q328.571 216.356 326.627 214.62 Q324.706 212.884 321.604 212.884 Q319.405 212.884 316.951 213.648 Q314.52 214.412 311.743 215.963 L311.743 211.241 Q314.567 210.106 317.02 209.528 Q319.474 208.949 321.511 208.949 Q326.881 208.949 330.076 211.634 Q333.27 214.319 333.27 218.81 Q333.27 220.94 332.46 222.861 Q331.673 224.759 329.567 227.352 Q328.988 228.023 325.886 231.241 Q322.784 234.435 317.136 240.199 Z" fill="#000000" fill-rule="evenodd" fill-opacity="1" /><path clip-path="url(#clip140)" d="M 0 0 M232.091 325.244 L248.411 325.244 L248.411 329.179 L226.466 329.179 L226.466 325.244 Q229.128 322.489 233.712 317.859 Q238.318 313.207 239.499 311.864 Q241.744 309.341 242.624 307.605 Q243.526 305.846 243.526 304.156 Q243.526 301.401 241.582 299.665 Q239.661 297.929 236.559 297.929 Q234.36 297.929 231.906 298.693 Q229.475 299.457 226.698 301.008 L226.698 296.286 Q229.522 295.151 231.975 294.573 Q234.429 293.994 236.466 293.994 Q241.837 293.994 245.031 296.679 Q248.225 299.364 248.225 303.855 Q248.225 305.985 247.415 307.906 Q246.628 309.804 244.522 312.397 Q243.943 313.068 240.841 316.285 Q237.739 319.48 232.091 325.244 Z" fill="#000000" fill-rule="evenodd" fill-opacity="1" /><path clip-path="url(#clip140)" d="M 0 0 M487.226 410.289 L503.545 410.289 L503.545 414.224 L481.601 414.224 L481.601 410.289 Q484.263 407.534 488.846 402.904 Q493.453 398.252 494.633 396.909 Q496.879 394.386 497.758 392.65 Q498.661 390.891 498.661 389.201 Q498.661 386.446 496.717 384.71 Q494.795 382.974 491.693 382.974 Q489.494 382.974 487.041 383.738 Q484.61 384.502 481.832 386.053 L481.832 381.33 Q484.656 380.196 487.11 379.617 Q489.564 379.039 491.601 379.039 Q496.971 379.039 500.166 381.724 Q503.36 384.409 503.36 388.9 Q503.36 391.029 502.55 392.951 Q501.763 394.849 499.656 397.441 Q499.078 398.113 495.976 401.33 Q492.874 404.525 487.226 410.289 Z" fill="#000000" fill-rule="evenodd" fill-opacity="1" /><path clip-path="url(#clip140)" d="M 0 0 M402.181 495.334 L418.5 495.334 L418.5 499.269 L396.556 499.269 L396.556 495.334 Q399.218 492.579 403.801 487.949 Q408.408 483.297 409.588 481.954 Q411.834 479.431 412.713 477.695 Q413.616 475.935 413.616 474.246 Q413.616 471.491 411.672 469.755 Q409.75 468.019 406.649 468.019 Q404.45 468.019 401.996 468.783 Q399.565 469.547 396.788 471.098 L396.788 466.375 Q399.612 465.241 402.065 464.662 Q404.519 464.084 406.556 464.084 Q411.926 464.084 415.121 466.769 Q418.315 469.454 418.315 473.945 Q418.315 476.074 417.505 477.996 Q416.718 479.894 414.612 482.486 Q414.033 483.158 410.931 486.375 Q407.829 489.57 402.181 495.334 Z" fill="#000000" fill-rule="evenodd" fill-opacity="1" /><path clip-path="url(#clip140)" d="M 0 0 M441.433 279.45 L457.752 279.45 L457.752 283.385 L435.808 283.385 L435.808 279.45 Q438.47 276.696 443.053 272.066 Q447.659 267.413 448.84 266.071 Q451.085 263.548 451.965 261.812 Q452.868 260.052 452.868 258.362 Q452.868 255.608 450.923 253.872 Q449.002 252.136 445.9 252.136 Q443.701 252.136 441.247 252.9 Q438.817 253.663 436.039 255.214 L436.039 250.492 Q438.863 249.358 441.317 248.779 Q443.77 248.2 445.807 248.2 Q451.178 248.2 454.372 250.886 Q457.567 253.571 457.567 258.062 Q457.567 260.191 456.756 262.112 Q455.969 264.011 453.863 266.603 Q453.284 267.274 450.182 270.492 Q447.081 273.686 441.433 279.45 Z" fill="#000000" fill-rule="evenodd" fill-opacity="1" /><path clip-path="url(#clip140)" d="M 0 0 M271.343 449.54 L287.662 449.54 L287.662 453.475 L265.718 453.475 L265.718 449.54 Q268.38 446.785 272.963 442.156 Q277.57 437.503 278.75 436.161 Q280.995 433.637 281.875 431.901 Q282.778 430.142 282.778 428.452 Q282.778 425.698 280.833 423.962 Q278.912 422.225 275.81 422.225 Q273.611 422.225 271.158 422.989 Q268.727 423.753 265.949 425.304 L265.949 420.582 Q268.773 419.448 271.227 418.869 Q273.681 418.29 275.718 418.29 Q281.088 418.29 284.282 420.975 Q287.477 423.661 287.477 428.151 Q287.477 430.281 286.667 432.202 Q285.88 434.1 283.773 436.693 Q283.194 437.364 280.093 440.582 Q276.991 443.776 271.343 449.54 Z" fill="#000000" fill-rule="evenodd" fill-opacity="1" /><path clip-path="url(#clip140)" d="M 0 0 M657.316 580.378 L673.635 580.378 L673.635 584.314 L651.691 584.314 L651.691 580.378 Q654.353 577.624 658.936 572.994 Q663.543 568.341 664.723 566.999 Q666.968 564.476 667.848 562.74 Q668.751 560.98 668.751 559.291 Q668.751 556.536 666.806 554.8 Q664.885 553.064 661.783 553.064 Q659.584 553.064 657.131 553.828 Q654.7 554.592 651.922 556.142 L651.922 551.42 Q654.746 550.286 657.2 549.707 Q659.654 549.129 661.691 549.129 Q667.061 549.129 670.255 551.814 Q673.45 554.499 673.45 558.99 Q673.45 561.119 672.64 563.041 Q671.853 564.939 669.746 567.531 Q669.167 568.203 666.066 571.42 Q662.964 574.615 657.316 580.378 Z" fill="#000000" fill-rule="evenodd" fill-opacity="1" /><path clip-path="url(#clip140)" d="M 0 0 M572.271 665.423 L588.59 665.423 L588.59 669.358 L566.646 669.358 L566.646 665.423 Q569.308 662.669 573.891 658.039 Q578.498 653.386 579.678 652.044 Q581.924 649.521 582.803 647.785 Q583.706 646.025 583.706 644.335 Q583.706 641.581 581.762 639.845 Q579.84 638.109 576.738 638.109 Q574.539 638.109 572.086 638.873 Q569.655 639.636 566.877 641.187 L566.877 636.465 Q569.701 635.331 572.155 634.752 Q574.609 634.173 576.646 634.173 Q582.016 634.173 585.211 636.859 Q588.405 639.544 588.405 644.035 Q588.405 646.164 587.595 648.085 Q586.808 649.984 584.701 652.576 Q584.123 653.247 581.021 656.465 Q577.919 659.659 572.271 665.423 Z" fill="#000000" fill-rule="evenodd" fill-opacity="1" /><path clip-path="url(#clip140)" d="M 0 0 M814.322 743.926 L830.641 743.926 L830.641 747.861 L808.697 747.861 L808.697 743.926 Q811.359 741.172 815.942 736.542 Q820.548 731.889 821.729 730.547 Q823.974 728.024 824.854 726.287 Q825.757 724.528 825.757 722.838 Q825.757 720.084 823.812 718.348 Q821.891 716.612 818.789 716.612 Q816.59 716.612 814.136 717.376 Q811.706 718.139 808.928 719.69 L808.928 714.968 Q811.752 713.834 814.206 713.255 Q816.66 712.676 818.697 712.676 Q824.067 712.676 827.261 715.362 Q830.456 718.047 830.456 722.538 Q830.456 724.667 829.646 726.588 Q828.859 728.487 826.752 731.079 Q826.173 731.75 823.072 734.968 Q819.97 738.162 814.322 743.926 Z" fill="#000000" fill-rule="evenodd" fill-opacity="1" /><path clip-path="url(#clip140)" d="M 0 0 M735.819 822.429 L752.138 822.429 L752.138 826.364 L730.194 826.364 L730.194 822.429 Q732.856 819.675 737.439 815.045 Q742.046 810.392 743.226 809.05 Q745.471 806.527 746.351 804.79 Q747.254 803.031 747.254 801.341 Q747.254 798.587 745.309 796.851 Q743.388 795.115 740.286 795.115 Q738.087 795.115 735.634 795.878 Q733.203 796.642 730.425 798.193 L730.425 793.471 Q733.249 792.337 735.703 791.758 Q738.157 791.179 740.194 791.179 Q745.564 791.179 748.758 793.865 Q751.953 796.55 751.953 801.041 Q751.953 803.17 751.143 805.091 Q750.356 806.99 748.249 809.582 Q747.67 810.253 744.569 813.471 Q741.467 816.665 735.819 822.429 Z" fill="#000000" fill-rule="evenodd" fill-opacity="1" /><path clip-path="url(#clip140)" d="M 0 0 M775.07 619.63 L791.39 619.63 L791.39 623.565 L769.445 623.565 L769.445 619.63 Q772.107 616.875 776.691 612.246 Q781.297 607.593 782.478 606.25 Q784.723 603.727 785.603 601.991 Q786.505 600.232 786.505 598.542 Q786.505 595.787 784.561 594.051 Q782.64 592.315 779.538 592.315 Q777.339 592.315 774.885 593.079 Q772.454 593.843 769.677 595.394 L769.677 590.672 Q772.501 589.537 774.954 588.959 Q777.408 588.38 779.445 588.38 Q784.816 588.38 788.01 591.065 Q791.204 593.75 791.204 598.241 Q791.204 600.371 790.394 602.292 Q789.607 604.19 787.501 606.783 Q786.922 607.454 783.82 610.672 Q780.718 613.866 775.07 619.63 Z" fill="#000000" fill-rule="evenodd" fill-opacity="1" /><path clip-path="url(#clip140)" d="M 0 0 M611.522 783.178 L627.842 783.178 L627.842 787.113 L605.897 787.113 L605.897 783.178 Q608.559 780.423 613.143 775.794 Q617.749 771.141 618.93 769.798 Q621.175 767.275 622.055 765.539 Q622.957 763.78 622.957 762.09 Q622.957 759.335 621.013 757.599 Q619.092 755.863 615.99 755.863 Q613.791 755.863 611.337 756.627 Q608.907 757.391 606.129 758.942 L606.129 754.22 Q608.953 753.085 611.407 752.507 Q613.86 751.928 615.897 751.928 Q621.268 751.928 624.462 754.613 Q627.656 757.298 627.656 761.789 Q627.656 763.919 626.846 765.84 Q626.059 767.738 623.953 770.331 Q623.374 771.002 620.272 774.219 Q617.17 777.414 611.522 783.178 Z" fill="#000000" fill-rule="evenodd" fill-opacity="1" /><path clip-path="url(#clip140)" d="M 0 0 M690.025 364.495 L706.345 364.495 L706.345 368.43 L684.4 368.43 L684.4 364.495 Q687.062 361.741 691.646 357.111 Q696.252 352.458 697.433 351.116 Q699.678 348.593 700.558 346.856 Q701.46 345.097 701.46 343.407 Q701.46 340.653 699.516 338.917 Q697.595 337.181 694.493 337.181 Q692.294 337.181 689.84 337.944 Q687.41 338.708 684.632 340.259 L684.632 335.537 Q687.456 334.403 689.91 333.824 Q692.363 333.245 694.4 333.245 Q699.771 333.245 702.965 335.931 Q706.159 338.616 706.159 343.106 Q706.159 345.236 705.349 347.157 Q704.562 349.055 702.456 351.648 Q701.877 352.319 698.775 355.537 Q695.673 358.731 690.025 364.495 Z" fill="#000000" fill-rule="evenodd" fill-opacity="1" /><path clip-path="url(#clip140)" d="M 0 0 M356.388 698.133 L372.707 698.133 L372.707 702.068 L350.763 702.068 L350.763 698.133 Q353.425 695.378 358.008 690.749 Q362.614 686.096 363.795 684.753 Q366.04 682.23 366.92 680.494 Q367.823 678.735 367.823 677.045 Q367.823 674.29 365.878 672.554 Q363.957 670.818 360.855 670.818 Q358.656 670.818 356.202 671.582 Q353.772 672.346 350.994 673.897 L350.994 669.175 Q353.818 668.04 356.272 667.462 Q358.726 666.883 360.763 666.883 Q366.133 666.883 369.327 669.568 Q372.522 672.253 372.522 676.744 Q372.522 678.874 371.712 680.795 Q370.925 682.693 368.818 685.286 Q368.239 685.957 365.138 689.175 Q362.036 692.369 356.388 698.133 Z" fill="#000000" fill-rule="evenodd" fill-opacity="1" /><path clip-path="url(#clip140)" d="M 0 0 M984.411 907.474 L1000.73 907.474 L1000.73 911.409 L978.787 911.409 L978.787 907.474 Q981.449 904.72 986.032 900.09 Q990.638 895.437 991.819 894.095 Q994.064 891.571 994.944 889.835 Q995.847 888.076 995.847 886.386 Q995.847 883.632 993.902 881.896 Q991.981 880.16 988.879 880.16 Q986.68 880.16 984.226 880.923 Q981.796 881.687 979.018 883.238 L979.018 878.516 Q981.842 877.382 984.296 876.803 Q986.749 876.224 988.786 876.224 Q994.157 876.224 997.351 878.91 Q1000.55 881.595 1000.55 886.085 Q1000.55 888.215 999.735 890.136 Q998.948 892.034 996.842 894.627 Q996.263 895.298 993.161 898.516 Q990.06 901.71 984.411 907.474 Z" fill="#000000" fill-rule="evenodd" fill-opacity="1" /><path clip-path="url(#clip140)" d="M 0 0 M899.367 992.519 L915.686 992.519 L915.686 996.454 L893.742 996.454 L893.742 992.519 Q896.404 989.764 900.987 985.135 Q905.593 980.482 906.774 979.14 Q909.019 976.616 909.899 974.88 Q910.802 973.121 910.802 971.431 Q910.802 968.677 908.857 966.941 Q906.936 965.204 903.834 965.204 Q901.635 965.204 899.181 965.968 Q896.751 966.732 893.973 968.283 L893.973 963.561 Q896.797 962.427 899.251 961.848 Q901.705 961.269 903.742 961.269 Q909.112 961.269 912.306 963.954 Q915.501 966.64 915.501 971.13 Q915.501 973.26 914.691 975.181 Q913.904 977.079 911.797 979.672 Q911.218 980.343 908.117 983.561 Q905.015 986.755 899.367 992.519 Z" fill="#000000" fill-rule="evenodd" fill-opacity="1" /><path clip-path="url(#clip140)" d="M 0 0 M1141.42 1071.02 L1157.74 1071.02 L1157.74 1074.96 L1135.79 1074.96 L1135.79 1071.02 Q1138.45 1068.27 1143.04 1063.64 Q1147.64 1058.99 1148.82 1057.64 Q1151.07 1055.12 1151.95 1053.38 Q1152.85 1051.62 1152.85 1049.93 Q1152.85 1047.18 1150.91 1045.44 Q1148.99 1043.71 1145.89 1043.71 Q1143.69 1043.71 1141.23 1044.47 Q1138.8 1045.24 1136.02 1046.79 L1136.02 1042.06 Q1138.85 1040.93 1141.3 1040.35 Q1143.76 1039.77 1145.79 1039.77 Q1151.16 1039.77 1154.36 1042.46 Q1157.55 1045.14 1157.55 1049.63 Q1157.55 1051.76 1156.74 1053.68 Q1155.95 1055.58 1153.85 1058.17 Q1153.27 1058.85 1150.17 1062.06 Q1147.07 1065.26 1141.42 1071.02 Z" fill="#000000" fill-rule="evenodd" fill-opacity="1" /><path clip-path="url(#clip140)" d="M 0 0 M1062.91 1149.53 L1079.23 1149.53 L1079.23 1153.46 L1057.29 1153.46 L1057.29 1149.53 Q1059.95 1146.77 1064.53 1142.14 Q1069.14 1137.49 1070.32 1136.15 Q1072.57 1133.62 1073.45 1131.89 Q1074.35 1130.13 1074.35 1128.44 Q1074.35 1125.68 1072.41 1123.95 Q1070.48 1122.21 1067.38 1122.21 Q1065.18 1122.21 1062.73 1122.97 Q1060.3 1123.74 1057.52 1125.29 L1057.52 1120.57 Q1060.35 1119.43 1062.8 1118.85 Q1065.25 1118.28 1067.29 1118.28 Q1072.66 1118.28 1075.85 1120.96 Q1079.05 1123.65 1079.05 1128.14 Q1079.05 1130.27 1078.24 1132.19 Q1077.45 1134.09 1075.34 1136.68 Q1074.77 1137.35 1071.66 1140.57 Q1068.56 1143.76 1062.91 1149.53 Z" fill="#000000" fill-rule="evenodd" fill-opacity="1" /><path clip-path="url(#clip140)" d="M 0 0 M1102.17 946.726 L1118.49 946.726 L1118.49 950.661 L1096.54 950.661 L1096.54 946.726 Q1099.2 943.971 1103.79 939.341 Q1108.39 934.689 1109.57 933.346 Q1111.82 930.823 1112.7 929.087 Q1113.6 927.328 1113.6 925.638 Q1113.6 922.883 1111.66 921.147 Q1109.74 919.411 1106.63 919.411 Q1104.43 919.411 1101.98 920.175 Q1099.55 920.939 1096.77 922.49 L1096.77 917.767 Q1099.6 916.633 1102.05 916.055 Q1104.5 915.476 1106.54 915.476 Q1111.91 915.476 1115.11 918.161 Q1118.3 920.846 1118.3 925.337 Q1118.3 927.467 1117.49 929.388 Q1116.7 931.286 1114.6 933.879 Q1114.02 934.55 1110.92 937.767 Q1107.81 940.962 1102.17 946.726 Z" fill="#000000" fill-rule="evenodd" fill-opacity="1" /><path clip-path="url(#clip140)" d="M 0 0 M938.618 1110.27 L954.937 1110.27 L954.937 1114.21 L932.993 1114.21 L932.993 1110.27 Q935.655 1107.52 940.238 1102.89 Q944.845 1098.24 946.025 1096.89 Q948.271 1094.37 949.15 1092.63 Q950.053 1090.88 950.053 1089.19 Q950.053 1086.43 948.109 1084.69 Q946.187 1082.96 943.086 1082.96 Q940.887 1082.96 938.433 1083.72 Q936.002 1084.49 933.225 1086.04 L933.225 1081.32 Q936.049 1080.18 938.502 1079.6 Q940.956 1079.02 942.993 1079.02 Q948.363 1079.02 951.558 1081.71 Q954.752 1084.39 954.752 1088.88 Q954.752 1091.01 953.942 1092.94 Q953.155 1094.83 951.049 1097.43 Q950.47 1098.1 947.368 1101.32 Q944.266 1104.51 938.618 1110.27 Z" fill="#000000" fill-rule="evenodd" fill-opacity="1" /><path clip-path="url(#clip140)" d="M 0 0 M1311.51 1234.57 L1327.83 1234.57 L1327.83 1238.51 L1305.88 1238.51 L1305.88 1234.57 Q1308.54 1231.82 1313.13 1227.19 Q1317.73 1222.53 1318.91 1221.19 Q1321.16 1218.67 1322.04 1216.93 Q1322.94 1215.17 1322.94 1213.48 Q1322.94 1210.73 1321 1208.99 Q1319.08 1207.26 1315.97 1207.26 Q1313.78 1207.26 1311.32 1208.02 Q1308.89 1208.78 1306.11 1210.33 L1306.11 1205.61 Q1308.94 1204.48 1311.39 1203.9 Q1313.85 1203.32 1315.88 1203.32 Q1321.25 1203.32 1324.45 1206.01 Q1327.64 1208.69 1327.64 1213.18 Q1327.64 1215.31 1326.83 1217.23 Q1326.04 1219.13 1323.94 1221.72 Q1323.36 1222.39 1320.26 1225.61 Q1317.16 1228.81 1311.51 1234.57 Z" fill="#000000" fill-rule="evenodd" fill-opacity="1" /><path clip-path="url(#clip140)" d="M 0 0 M1226.46 1319.61 L1242.78 1319.61 L1242.78 1323.55 L1220.84 1323.55 L1220.84 1319.61 Q1223.5 1316.86 1228.08 1312.23 Q1232.69 1307.58 1233.87 1306.24 Q1236.12 1303.71 1236.99 1301.98 Q1237.9 1300.22 1237.9 1298.53 Q1237.9 1295.77 1235.95 1294.04 Q1234.03 1292.3 1230.93 1292.3 Q1228.73 1292.3 1226.28 1293.06 Q1223.85 1293.83 1221.07 1295.38 L1221.07 1290.66 Q1223.89 1289.52 1226.35 1288.94 Q1228.8 1288.37 1230.84 1288.37 Q1236.21 1288.37 1239.4 1291.05 Q1242.6 1293.74 1242.6 1298.23 Q1242.6 1300.36 1241.79 1302.28 Q1241 1304.18 1238.89 1306.77 Q1238.31 1307.44 1235.21 1310.66 Q1232.11 1313.85 1226.46 1319.61 Z" fill="#000000" fill-rule="evenodd" fill-opacity="1" /><path clip-path="url(#clip140)" d="M 0 0 M1468.51 1398.12 L1484.83 1398.12 L1484.83 1402.05 L1462.89 1402.05 L1462.89 1398.12 Q1465.55 1395.36 1470.13 1390.73 Q1474.74 1386.08 1475.92 1384.74 Q1478.17 1382.22 1479.05 1380.48 Q1479.95 1378.72 1479.95 1377.03 Q1479.95 1374.28 1478 1372.54 Q1476.08 1370.8 1472.98 1370.8 Q1470.78 1370.8 1468.33 1371.57 Q1465.9 1372.33 1463.12 1373.88 L1463.12 1369.16 Q1465.94 1368.03 1468.4 1367.45 Q1470.85 1366.87 1472.89 1366.87 Q1478.26 1366.87 1481.45 1369.55 Q1484.65 1372.24 1484.65 1376.73 Q1484.65 1378.86 1483.84 1380.78 Q1483.05 1382.68 1480.94 1385.27 Q1480.37 1385.94 1477.26 1389.16 Q1474.16 1392.35 1468.51 1398.12 Z" fill="#000000" fill-rule="evenodd" fill-opacity="1" /><path clip-path="url(#clip140)" d="M 0 0 M1390.01 1476.62 L1406.33 1476.62 L1406.33 1480.56 L1384.39 1480.56 L1384.39 1476.62 Q1387.05 1473.87 1391.63 1469.24 Q1396.24 1464.58 1397.42 1463.24 Q1399.66 1460.72 1400.54 1458.98 Q1401.45 1457.22 1401.45 1455.53 Q1401.45 1452.78 1399.5 1451.04 Q1397.58 1449.31 1394.48 1449.31 Q1392.28 1449.31 1389.83 1450.07 Q1387.39 1450.83 1384.62 1452.38 L1384.62 1447.66 Q1387.44 1446.53 1389.89 1445.95 Q1392.35 1445.37 1394.39 1445.37 Q1399.76 1445.37 1402.95 1448.06 Q1406.14 1450.74 1406.14 1455.23 Q1406.14 1457.36 1405.33 1459.28 Q1404.55 1461.18 1402.44 1463.77 Q1401.86 1464.44 1398.76 1467.66 Q1395.66 1470.86 1390.01 1476.62 Z" fill="#000000" fill-rule="evenodd" fill-opacity="1" /><path clip-path="url(#clip140)" d="M 0 0 M1429.26 1273.82 L1445.58 1273.82 L1445.58 1277.76 L1423.64 1277.76 L1423.64 1273.82 Q1426.3 1271.07 1430.88 1266.44 Q1435.49 1261.78 1436.67 1260.44 Q1438.91 1257.92 1439.79 1256.18 Q1440.7 1254.42 1440.7 1252.73 Q1440.7 1249.98 1438.75 1248.24 Q1436.83 1246.51 1433.73 1246.51 Q1431.53 1246.51 1429.08 1247.27 Q1426.65 1248.03 1423.87 1249.59 L1423.87 1244.86 Q1426.69 1243.73 1429.15 1243.15 Q1431.6 1242.57 1433.64 1242.57 Q1439.01 1242.57 1442.2 1245.26 Q1445.4 1247.94 1445.4 1252.43 Q1445.4 1254.56 1444.59 1256.48 Q1443.8 1258.38 1441.69 1260.97 Q1441.11 1261.65 1438.01 1264.86 Q1434.91 1268.06 1429.26 1273.82 Z" fill="#000000" fill-rule="evenodd" fill-opacity="1" /><path clip-path="url(#clip140)" d="M 0 0 M1265.71 1437.37 L1282.03 1437.37 L1282.03 1441.3 L1260.09 1441.3 L1260.09 1437.37 Q1262.75 1434.61 1267.33 1429.99 Q1271.94 1425.33 1273.12 1423.99 Q1275.37 1421.47 1276.25 1419.73 Q1277.15 1417.97 1277.15 1416.28 Q1277.15 1413.53 1275.2 1411.79 Q1273.28 1410.05 1270.18 1410.05 Q1267.98 1410.05 1265.53 1410.82 Q1263.1 1411.58 1260.32 1413.13 L1260.32 1408.41 Q1263.14 1407.28 1265.6 1406.7 Q1268.05 1406.12 1270.09 1406.12 Q1275.46 1406.12 1278.65 1408.8 Q1281.85 1411.49 1281.85 1415.98 Q1281.85 1418.11 1281.04 1420.03 Q1280.25 1421.93 1278.14 1424.52 Q1277.57 1425.19 1274.46 1428.41 Q1271.36 1431.61 1265.71 1437.37 Z" fill="#000000" fill-rule="evenodd" fill-opacity="1" /><path clip-path="url(#clip140)" d="M 0 0 M1344.22 1025.23 L1360.54 1025.23 L1360.54 1029.16 L1338.59 1029.16 L1338.59 1025.23 Q1341.25 1022.47 1345.84 1017.84 Q1350.44 1013.19 1351.62 1011.85 Q1353.87 1009.33 1354.75 1007.59 Q1355.65 1005.83 1355.65 1004.14 Q1355.65 1001.39 1353.71 999.65 Q1351.79 997.914 1348.68 997.914 Q1346.49 997.914 1344.03 998.678 Q1341.6 999.442 1338.82 1000.99 L1338.82 996.27 Q1341.65 995.136 1344.1 994.558 Q1346.55 993.979 1348.59 993.979 Q1353.96 993.979 1357.16 996.664 Q1360.35 999.349 1360.35 1003.84 Q1360.35 1005.97 1359.54 1007.89 Q1358.75 1009.79 1356.65 1012.38 Q1356.07 1013.05 1352.97 1016.27 Q1349.86 1019.46 1344.22 1025.23 Z" fill="#000000" fill-rule="evenodd" fill-opacity="1" /><path clip-path="url(#clip140)" d="M 0 0 M1017.12 1352.32 L1033.44 1352.32 L1033.44 1356.26 L1011.5 1356.26 L1011.5 1352.32 Q1014.16 1349.57 1018.74 1344.94 Q1023.35 1340.29 1024.53 1338.94 Q1026.77 1336.42 1027.65 1334.69 Q1028.56 1332.93 1028.56 1331.24 Q1028.56 1328.48 1026.61 1326.75 Q1024.69 1325.01 1021.59 1325.01 Q1019.39 1325.01 1016.94 1325.77 Q1014.51 1326.54 1011.73 1328.09 L1011.73 1323.37 Q1014.55 1322.23 1017.01 1321.65 Q1019.46 1321.07 1021.5 1321.07 Q1026.87 1321.07 1030.06 1323.76 Q1033.26 1326.44 1033.26 1330.94 Q1033.26 1333.07 1032.45 1334.99 Q1031.66 1336.88 1029.55 1339.48 Q1028.97 1340.15 1025.87 1343.37 Q1022.77 1346.56 1017.12 1352.32 Z" fill="#000000" fill-rule="evenodd" fill-opacity="1" /><path clip-path="url(#clip140)" d="M 0 0 M1180.67 528.043 L1196.99 528.043 L1196.99 531.978 L1175.04 531.978 L1175.04 528.043 Q1177.71 525.288 1182.29 520.659 Q1186.9 516.006 1188.08 514.664 Q1190.32 512.14 1191.2 510.404 Q1192.1 508.645 1192.1 506.955 Q1192.1 504.201 1190.16 502.465 Q1188.24 500.728 1185.14 500.728 Q1182.94 500.728 1180.48 501.492 Q1178.05 502.256 1175.28 503.807 L1175.28 499.085 Q1178.1 497.951 1180.55 497.372 Q1183.01 496.793 1185.04 496.793 Q1190.41 496.793 1193.61 499.478 Q1196.8 502.164 1196.8 506.654 Q1196.8 508.784 1195.99 510.705 Q1195.21 512.603 1193.1 515.196 Q1192.52 515.867 1189.42 519.085 Q1186.32 522.279 1180.67 528.043 Z" fill="#000000" fill-rule="evenodd" fill-opacity="1" /><path clip-path="url(#clip140)" d="M 0 0 M519.935 1188.78 L536.255 1188.78 L536.255 1192.71 L514.311 1192.71 L514.311 1188.78 Q516.973 1186.02 521.556 1181.39 Q526.162 1176.74 527.343 1175.4 Q529.588 1172.87 530.468 1171.14 Q531.371 1169.38 531.371 1167.69 Q531.371 1164.93 529.426 1163.2 Q527.505 1161.46 524.403 1161.46 Q522.204 1161.46 519.75 1162.23 Q517.32 1162.99 514.542 1164.54 L514.542 1159.82 Q517.366 1158.68 519.82 1158.11 Q522.273 1157.53 524.31 1157.53 Q529.681 1157.53 532.875 1160.21 Q536.07 1162.9 536.07 1167.39 Q536.07 1169.52 535.259 1171.44 Q534.472 1173.34 532.366 1175.93 Q531.787 1176.6 528.685 1179.82 Q525.584 1183.01 519.935 1188.78 Z" fill="#000000" fill-rule="evenodd" fill-opacity="1" /></svg>
